<svg width="5584" height="5415" viewBox="0 0 5584 5415" fill="none" xmlns="http://www.w3.org/2000/svg">
<g clip-path="url(#clip0_369_1730)">
<path fill-rule="evenodd" clip-rule="evenodd" d="M3391.33 2802.05C3420 2843.02 3433.57 2907.96 3423.7 2956.98C3415.67 2996.81 3422.76 3038 3447.06 3072.31C3498.33 3144.69 3607 3159.26 3691.07 3105.53C3691.08 3105.52 3691.11 3105.51 3691.13 3105.52L3712.39 3089.79C3784.24 3036.62 3861.81 2991.66 3943.66 2955.73L4021.52 2921.55C4043.69 2910.72 4055.69 2886.31 4050.67 2862.26C4045.27 2836.43 4021.83 2818.36 3995.36 2819.61L3839.14 2827C3820.74 2827.87 3804.45 2815.31 3800.7 2797.37C3796.95 2779.42 3806.85 2761.39 3824.05 2754.82L3970.16 2699.04C3994.93 2689.59 4009.17 2663.65 4003.77 2637.82C3998.75 2613.77 3977.98 2596.21 3953.32 2595.16L3868.3 2595.01C3778.91 2594.86 3689.82 2584.71 3602.69 2564.76L3576.92 2558.86C3576.9 2558.87 3576.88 2558.88 3576.85 2558.88C3478.31 2543.3 3384.56 2600.16 3366.56 2687.02C3358.03 2728.18 3368.03 2768.77 3391.33 2802.05Z" fill="url(#paint0_linear_369_1730)"/>
</g>
<g clip-path="url(#clip1_369_1730)">
<mask id="mask0_369_1730" style="mask-type:alpha" maskUnits="userSpaceOnUse" x="4822" y="3251" width="630" height="555">
<path d="M4823.26 3506.72C4821.25 3502.78 4822.82 3497.97 4826.76 3495.96L4877.19 3470.3C4882.36 3467.67 4888.62 3468.5 4892.92 3472.39L4956.75 3530.04C4964.91 3537.41 4977.27 3537.62 4985.68 3530.53L5094.93 3438.39C5096.81 3436.81 5099.01 3435.68 5101.39 3435.09L5241.7 3400.22C5252.64 3397.5 5259.76 3386.95 5258.18 3375.79L5246.48 3293.04C5245.65 3287.11 5248.67 3281.31 5254 3278.6L5305.33 3252.48C5309.46 3250.38 5314.5 3252.21 5316.31 3256.47L5450.23 3569.86C5452.72 3575.66 5450.27 3582.4 5444.64 3585.27L5014.15 3804.29C5008.55 3807.14 5001.7 3805.18 4998.44 3799.81L4836.36 3532.48L4823.26 3506.72Z" fill="url(#paint1_linear_369_1730)"/>
</mask>
<g mask="url(#mask0_369_1730)">
<rect x="4819.63" y="3499.59" width="553.5" height="359.775" transform="rotate(-26.9654 4819.63 3499.59)" fill="#F7A6A5"/>
<rect opacity="0.6" x="5002.93" y="3493.69" width="212.175" height="171.219" transform="rotate(-26.9654 5002.93 3493.69)" fill="url(#paint2_linear_369_1730)"/>
<rect opacity="0.6" x="4852.84" y="3425.6" width="293.781" height="96.1064" transform="rotate(29.242 4852.84 3425.6)" fill="url(#paint3_linear_369_1730)"/>
<rect opacity="0.6" width="293.781" height="75.5858" transform="matrix(-0.0930203 0.995664 0.995664 0.0930203 5247.38 3241.82)" fill="url(#paint4_linear_369_1730)"/>
</g>
<path fill-rule="evenodd" clip-rule="evenodd" d="M5011.63 3123.67C4985.33 3155.04 4936.89 3179.68 4896.05 3182.47C4862.87 3184.73 4831.81 3199.18 4809.86 3225.66C4763.52 3281.57 4775.06 3370.16 4835.35 3424.7C4835.37 3424.72 4835.37 3424.73 4835.37 3424.75L4852.31 3438.08C4909.57 3483.14 4961.56 3534.47 5007.32 3591.1L5050.84 3644.97C5064.1 3660.08 5085.94 3664.26 5103.88 3655.13C5123.15 3645.33 5132.46 3623.01 5125.86 3602.45L5086.88 3481.19C5082.29 3466.91 5088.77 3451.4 5102.16 3444.59C5115.55 3437.78 5131.89 3441.68 5140.73 3453.8L5215.8 3556.69C5228.53 3574.13 5252.05 3579.75 5271.32 3569.94C5289.26 3560.81 5298.74 3540.7 5294.34 3521.09L5276.42 3454.19C5257.58 3383.86 5246.71 3311.62 5243.99 3238.81L5243.19 3217.27C5243.18 3217.26 5243.17 3217.24 5243.17 3217.22C5234.58 3136.37 5169.76 3074.89 5097.29 3079.43C5062.95 3081.58 5032.99 3098.18 5011.63 3123.67Z" fill="url(#paint5_linear_369_1730)"/>
</g>
<g clip-path="url(#clip2_369_1730)">
<path fill-rule="evenodd" clip-rule="evenodd" d="M1954.41 1726.51C1904.92 1719.35 1848.31 1684.77 1819.35 1644C1795.82 1610.87 1760.95 1587.83 1719.31 1582.04C1631.45 1569.83 1546.41 1639.05 1528 1737.1C1527.99 1737.12 1527.98 1737.14 1527.96 1737.15L1524.87 1763.41C1514.4 1852.18 1494.04 1939.51 1464.18 2023.75L1435.76 2103.89C1428.47 2127.47 1438.04 2152.93 1459 2165.74C1481.52 2179.49 1510.74 2174.79 1527.96 2154.64L1629.56 2035.74C1641.53 2021.74 1661.83 2018.47 1677.48 2028.03C1693.13 2037.59 1699.49 2057.15 1692.49 2074.18L1633.07 2218.85C1623 2243.37 1632.15 2271.52 1654.67 2285.27C1675.64 2298.08 1702.66 2294.97 1720.31 2277.73L1778.64 2215.86C1839.97 2150.83 1908.37 2092.86 1982.58 2043.03L2004.53 2028.29C2004.53 2028.27 2004.54 2028.25 2004.56 2028.24C2083.4 1967.1 2106.17 1859.84 2055.2 1787.24C2031.05 1752.84 1994.63 1732.32 1954.41 1726.51Z" fill="url(#paint6_linear_369_1730)"/>
<g filter="url(#filter0_f_369_1730)">
<path d="M1687.01 1682.51L1709.89 1618.2C1710.21 1617.31 1709.86 1616.32 1709.05 1615.83L1693.08 1606.07C1692.25 1605.56 1691.17 1605.73 1690.53 1606.46L1646.05 1657.2C1644.14 1659.38 1641.08 1660.16 1638.36 1659.16L1566.93 1632.85C1566.03 1632.52 1565.03 1632.87 1564.53 1633.68L1555.37 1648.68C1554.86 1649.52 1555.03 1650.61 1555.78 1651.25L1613.11 1699.96C1615.41 1701.91 1616.2 1705.12 1615.07 1707.92L1588.64 1773.27C1588.27 1774.17 1588.61 1775.21 1589.45 1775.72L1605.4 1785.47C1606.21 1785.96 1607.26 1785.82 1607.91 1785.12L1656.27 1732.82C1658.25 1730.67 1661.35 1729.98 1664.05 1731.09L1730.69 1758.27C1732.05 1758.82 1733.62 1758.31 1734.38 1757.05L1742.69 1743.46C1743.43 1742.25 1743.21 1740.68 1742.17 1739.7L1688.84 1689.98C1686.79 1688.07 1686.08 1685.14 1687.01 1682.51Z" fill="url(#paint7_linear_369_1730)"/>
</g>
<path d="M1674.28 1683.21L1703.39 1618.36C1704.6 1615.67 1703.62 1612.51 1701.11 1610.98C1698.54 1609.41 1695.19 1610.05 1693.39 1612.46L1651.19 1668.74C1648.37 1672.51 1643.29 1673.8 1639.02 1671.83L1567.33 1638.89C1564.66 1637.67 1561.51 1638.63 1559.98 1641.13C1558.41 1643.7 1559.08 1647.04 1561.51 1648.81L1624.56 1694.8C1628.49 1697.67 1629.78 1702.94 1627.64 1707.3L1595.28 1773.09C1593.95 1775.79 1594.9 1779.05 1597.47 1780.62C1599.98 1782.15 1603.24 1781.57 1605.06 1779.27L1651.04 1721.24C1653.98 1717.53 1659.12 1716.39 1663.36 1718.51L1731.01 1752.38C1733.71 1753.73 1736.99 1752.79 1738.56 1750.22C1740.09 1747.72 1739.51 1744.47 1737.21 1742.65L1677.2 1695.15C1673.61 1692.31 1672.4 1687.39 1674.28 1683.21Z" fill="url(#paint8_linear_369_1730)"/>
<g filter="url(#filter1_f_369_1730)">
<path d="M1857.77 2090.23L1871.38 2051.98C1871.7 2051.08 1871.34 2050.09 1870.54 2049.6L1861.54 2044.1C1860.71 2043.6 1859.64 2043.76 1858.99 2044.49L1832.61 2074.59C1830.7 2076.77 1827.65 2077.54 1824.93 2076.54L1782.26 2060.83C1781.37 2060.5 1780.36 2060.85 1779.86 2061.66L1774.75 2070.03C1774.24 2070.87 1774.41 2071.96 1775.16 2072.59L1809.3 2101.6C1811.6 2103.55 1812.39 2106.76 1811.26 2109.56L1795.58 2148.32C1795.21 2149.23 1795.55 2150.27 1796.39 2150.78L1805.36 2156.26C1806.17 2156.76 1807.22 2156.61 1807.87 2155.91L1836.64 2124.79C1838.62 2122.65 1841.73 2121.96 1844.43 2123.06L1883.78 2139.12C1885.14 2139.67 1886.71 2139.16 1887.47 2137.9L1891.73 2130.94C1892.47 2129.73 1892.25 2128.16 1891.21 2127.18L1859.59 2097.7C1857.55 2095.8 1856.83 2092.86 1857.77 2090.23Z" fill="url(#paint9_linear_369_1730)"/>
</g>
<path d="M1850.37 2089.65L1867.5 2051.5C1868.25 2049.82 1867.64 2047.83 1866.06 2046.86C1864.44 2045.88 1862.34 2046.28 1861.2 2047.79L1836.47 2080.79C1833.64 2084.56 1828.57 2085.84 1824.29 2083.88L1781.94 2064.41C1780.27 2063.65 1778.28 2064.25 1777.32 2065.82C1776.33 2067.44 1776.75 2069.54 1778.28 2070.65L1815.41 2097.73C1819.33 2100.6 1820.63 2105.87 1818.49 2110.23L1799.52 2148.79C1798.68 2150.49 1799.28 2152.54 1800.89 2153.53C1802.47 2154.49 1804.52 2154.13 1805.67 2152.68L1832.7 2118.56C1835.64 2114.85 1840.78 2113.71 1845.02 2115.83L1884.86 2135.77C1886.56 2136.62 1888.62 2136.03 1889.6 2134.42C1890.57 2132.84 1890.2 2130.8 1888.76 2129.66L1853.29 2101.58C1849.7 2098.74 1848.5 2093.82 1850.37 2089.65Z" fill="url(#paint10_linear_369_1730)"/>
</g>
<g clip-path="url(#clip3_369_1730)">
<path fill-rule="evenodd" clip-rule="evenodd" d="M1312.55 169.695C1278.13 205.974 1217.21 232.234 1167.2 232.344C1126.57 232.433 1087.62 247.606 1058.86 278.261C998.153 342.964 1005.59 452.39 1075.06 524.032L1075.05 524.049L1186.21 635.36L1321.27 811.056C1336.31 830.62 1362.63 837.505 1385.19 827.78C1409.42 817.335 1422.45 790.762 1415.93 765.068L1377.5 613.469C1372.98 595.614 1382.03 577.148 1398.87 569.89C1415.71 562.632 1435.35 568.73 1445.22 584.28L1529.05 716.312C1543.25 738.69 1571.52 747.464 1595.75 737.02C1618.31 727.295 1631.38 703.436 1627.48 679.07L1592.49 460.237L1587.89 302.994L1587.87 302.994C1583.49 203.297 1509.04 122.753 1420.32 122.458C1378.29 122.319 1340.51 140.217 1312.55 169.695Z" fill="url(#paint11_linear_369_1730)"/>
<mask id="mask1_369_1730" style="mask-type:alpha" maskUnits="userSpaceOnUse" x="1077" y="148" width="552" height="685">
<path fill-rule="evenodd" clip-rule="evenodd" d="M1077.2 526.213L1186.2 635.363L1321.26 811.059C1336.3 830.623 1362.62 837.508 1385.18 827.783C1409.41 817.338 1422.44 790.765 1415.93 765.071L1377.5 613.472C1372.97 595.617 1382.02 577.151 1398.86 569.893C1415.7 562.635 1435.34 568.733 1445.22 584.283L1529.04 716.315C1543.25 738.693 1571.51 747.467 1595.74 737.023C1618.31 727.298 1631.37 703.439 1627.47 679.073L1592.48 460.24L1587.89 302.997L1587.86 302.997C1584.98 237.431 1551.8 180.149 1504.18 148.529L1077.2 526.213Z" fill="url(#paint12_linear_369_1730)"/>
</mask>
<g mask="url(#mask1_369_1730)">
<rect x="925.601" y="397.916" width="715.167" height="622.798" transform="rotate(-23.3177 925.601 397.916)" fill="url(#paint13_linear_369_1730)"/>
<g filter="url(#filter2_f_369_1730)">
<path d="M1440.02 448.418C1474.99 445.899 1501.57 415.925 1499.88 380.898L1494.22 263.63L1495.81 157.278L1097.34 509.6C1140.16 482.55 1189 466.493 1239.53 462.855L1440.02 448.418Z" fill="url(#paint14_linear_369_1730)" fill-opacity="0.17"/>
</g>
<g filter="url(#filter3_f_369_1730)">
<path d="M1323.98 460.136C1446.28 453.878 1529.77 333.853 1493.1 217.009C1490.76 209.548 1490.17 201.645 1491.4 193.922L1500.44 136.91L1495.81 157.277L1097.34 509.599L1101.23 507.139C1141.45 481.738 1187.52 467.119 1235.02 464.688L1323.98 460.136Z" fill="url(#paint15_linear_369_1730)" fill-opacity="0.17"/>
</g>
<g filter="url(#filter4_f_369_1730)">
<path d="M1429.2 454.752C1497.44 451.26 1543.3 383.329 1521.02 318.73C1511.12 290.014 1505.54 259.985 1504.46 229.627L1502.46 173.404C1501.93 158.365 1482.89 152.217 1473.66 164.103L1097.34 509.599L1130.9 488.399C1151.67 475.285 1175.45 467.737 1199.98 466.482L1429.2 454.752Z" fill="url(#paint16_linear_369_1730)" fill-opacity="0.17"/>
</g>
<path d="M1482.51 302.468C1482 355.782 1443.55 401.156 1391.05 410.42L1283.28 429.433C1209.4 445.762 1139.98 478.036 1079.88 523.998L1504.54 148.18C1491.34 159.855 1483.72 176.575 1483.55 194.191L1482.51 302.468Z" fill="url(#paint17_linear_369_1730)"/>
</g>
</g>
<g clip-path="url(#clip4_369_1730)">
<path d="M4104.04 4871.75L4396.43 4714.28L4438.8 4819.34C4451.06 4849.74 4479.91 4870.2 4512.66 4871.72L4171.53 5055.43C4188.28 5027.26 4187.07 4991.91 4168.44 4964.94L4104.04 4871.75Z" fill="url(#paint18_linear_369_1730)"/>
<path d="M4104.04 4871.75L4396.43 4714.28L4438.8 4819.34C4451.06 4849.74 4479.91 4870.2 4512.66 4871.72L4171.53 5055.43C4188.28 5027.26 4187.07 4991.91 4168.44 4964.94L4104.04 4871.75Z" fill="url(#paint19_linear_369_1730)" fill-opacity="0.4"/>
<path d="M4104.04 4871.75L4396.43 4714.28L4438.8 4819.34C4451.06 4849.74 4479.91 4870.2 4512.66 4871.72L4171.53 5055.43C4188.28 5027.26 4187.07 4991.91 4168.44 4964.94L4104.04 4871.75Z" fill="url(#paint20_linear_369_1730)" fill-opacity="0.05"/>
<path d="M4104.04 4871.75L4396.43 4714.28L4438.8 4819.34C4451.06 4849.74 4479.91 4870.2 4512.66 4871.72L4171.53 5055.43C4188.28 5027.26 4187.07 4991.91 4168.44 4964.94L4104.04 4871.75Z" fill="url(#paint21_linear_369_1730)" fill-opacity="0.2"/>
<path d="M4542.92 4893.12C4540.33 4878.97 4527.58 4868.9 4513.24 4870L4373.88 4880.76C4327.17 4884.36 4284.17 4907.52 4255.45 4944.53L4169.78 5054.97C4160.96 5066.34 4162.36 5082.52 4172.74 5092.48C4203.93 5122.37 4222.87 5144.29 4255.06 5182.21L4292.89 5226.79C4309.61 5244.94 4336.55 5249.43 4358.35 5237.72C4358.37 5237.71 4358.39 5237.7 4358.41 5237.69C4358.43 5237.68 4358.44 5237.67 4358.46 5237.66C4381.85 5225.03 4392.66 5197.36 4383.98 5172.33L4333.42 5025.88C4327.38 5008.47 4334.56 4988.59 4350.84 4979.82C4367.12 4971.05 4387.68 4976 4398.89 4990.62L4493.34 5113.44C4509.45 5134.46 4538.51 5140.66 4561.93 5128.09C4561.94 5128.08 4561.96 5128.07 4561.98 5128.06C4562 5128.05 4562.02 5128.04 4562.04 5128.03C4583.81 5116.27 4594.89 5091.3 4588.94 5067.36L4572.54 5011.23C4558.59 4963.49 4550.71 4935.61 4542.92 4893.12Z" fill="url(#paint22_linear_369_1730)"/>
<path d="M4542.92 4893.12C4540.33 4878.97 4527.58 4868.9 4513.24 4870L4373.88 4880.76C4327.17 4884.36 4284.17 4907.52 4255.45 4944.53L4169.78 5054.97C4160.96 5066.34 4162.36 5082.52 4172.74 5092.48C4203.93 5122.37 4222.87 5144.29 4255.06 5182.21L4292.89 5226.79C4309.61 5244.94 4336.55 5249.43 4358.35 5237.72C4358.37 5237.71 4358.39 5237.7 4358.41 5237.69C4358.43 5237.68 4358.44 5237.67 4358.46 5237.66C4381.85 5225.03 4392.66 5197.36 4383.98 5172.33L4333.42 5025.88C4327.38 5008.47 4334.56 4988.59 4350.84 4979.82C4367.12 4971.05 4387.68 4976 4398.89 4990.62L4493.34 5113.44C4509.45 5134.46 4538.51 5140.66 4561.93 5128.09C4561.94 5128.08 4561.96 5128.07 4561.98 5128.06C4562 5128.05 4562.02 5128.04 4562.04 5128.03C4583.81 5116.27 4594.89 5091.3 4588.94 5067.36L4572.54 5011.23C4558.59 4963.49 4550.71 4935.61 4542.92 4893.12Z" fill="url(#paint23_radial_369_1730)" fill-opacity="0.2"/>
<path d="M4107.25 4695.8C4157.4 4691.16 4216.3 4659.44 4247.77 4620.13C4260.98 4603.62 4277.08 4589.96 4295.37 4580.11L4295.39 4580.1C4312.5 4570.89 4331.52 4565 4351.9 4563.23C4440.91 4555.49 4522.35 4629.11 4535.12 4728.19L4535.14 4728.19C4535.72 4737.81 4536.21 4747.52 4536.8 4757.22C4537.72 4772.25 4526.93 4785.69 4511.97 4787.49L4335.32 4808.73C4289.07 4814.29 4246.63 4837.14 4216.53 4872.7L4101.57 5008.5C4091.84 5020 4074.68 5021.62 4062.64 5012.58C4054.87 5006.74 4047.03 5000.99 4039.32 4995.21L4039.33 4995.19C3963.64 4930 3946.98 4821.49 4002.44 4751.43C4028.71 4718.24 4066.5 4699.57 4107.25 4695.8Z" fill="url(#paint24_linear_369_1730)"/>
</g>
<g clip-path="url(#clip5_369_1730)">
<path d="M2137.38 3031.9L2430.75 2876.25L2472.47 2981.57C2484.54 3012.04 2513.26 3032.68 2545.99 3034.41L2203.73 3216C2220.66 3187.93 2219.67 3152.58 2201.2 3125.5L2137.38 3031.9Z" fill="url(#paint25_linear_369_1730)"/>
<path d="M2137.38 3031.9L2430.75 2876.25L2472.47 2981.57C2484.54 3012.04 2513.26 3032.68 2545.99 3034.41L2203.73 3216C2220.66 3187.93 2219.67 3152.58 2201.2 3125.5L2137.38 3031.9Z" fill="url(#paint26_linear_369_1730)" fill-opacity="0.4"/>
<path d="M2137.38 3031.9L2430.75 2876.25L2472.47 2981.57C2484.54 3012.04 2513.26 3032.68 2545.99 3034.41L2203.73 3216C2220.66 3187.93 2219.67 3152.58 2201.2 3125.5L2137.38 3031.9Z" fill="url(#paint27_linear_369_1730)" fill-opacity="0.05"/>
<path d="M2137.38 3031.9L2430.75 2876.25L2472.47 2981.57C2484.54 3012.04 2513.26 3032.68 2545.99 3034.41L2203.73 3216C2220.66 3187.93 2219.67 3152.58 2201.2 3125.5L2137.38 3031.9Z" fill="url(#paint28_linear_369_1730)" fill-opacity="0.2"/>
<path d="M2137.38 3031.9L2430.75 2876.25L2472.47 2981.57C2484.54 3012.04 2513.26 3032.68 2545.99 3034.41L2203.73 3216C2220.66 3187.93 2219.67 3152.58 2201.2 3125.5L2137.38 3031.9Z" fill="url(#paint29_linear_369_1730)" fill-opacity="0.3"/>
<path d="M2576.12 3055.99C2573.62 3041.83 2560.93 3031.67 2546.58 3032.69L2407.16 3042.58C2360.44 3045.9 2317.29 3068.79 2288.34 3105.62L2201.98 3215.53C2193.1 3226.84 2194.39 3243.03 2204.71 3253.05C2235.72 3283.14 2254.53 3305.17 2286.47 3343.29L2324.04 3388.11C2340.64 3406.36 2367.55 3411.02 2389.42 3399.44C2389.44 3399.43 2389.46 3399.42 2389.48 3399.41C2389.5 3399.4 2389.52 3399.39 2389.53 3399.38C2413 3386.9 2423.99 3359.29 2415.46 3334.21L2365.8 3187.45C2359.87 3170.01 2367.18 3150.17 2383.51 3141.5C2399.85 3132.84 2420.37 3137.91 2431.49 3152.6L2525.18 3276C2541.16 3297.12 2570.18 3303.5 2593.67 3291.07C2593.69 3291.06 2593.71 3291.05 2593.73 3291.04C2593.75 3291.03 2593.76 3291.02 2593.78 3291.01C2615.63 3279.39 2626.86 3254.49 2621.06 3230.51L2605.01 3174.28C2591.35 3126.46 2583.65 3098.53 2576.12 3055.99Z" fill="url(#paint30_linear_369_1730)"/>
<path d="M2576.12 3055.99C2573.62 3041.83 2560.93 3031.67 2546.58 3032.69L2407.16 3042.58C2360.44 3045.9 2317.29 3068.79 2288.34 3105.62L2201.98 3215.53C2193.1 3226.84 2194.39 3243.03 2204.71 3253.05C2235.72 3283.14 2254.53 3305.17 2286.47 3343.29L2324.04 3388.11C2340.64 3406.36 2367.55 3411.02 2389.42 3399.44C2389.44 3399.43 2389.46 3399.42 2389.48 3399.41C2389.5 3399.4 2389.52 3399.39 2389.53 3399.38C2413 3386.9 2423.99 3359.29 2415.46 3334.21L2365.8 3187.45C2359.87 3170.01 2367.18 3150.17 2383.51 3141.5C2399.85 3132.84 2420.37 3137.91 2431.49 3152.6L2525.18 3276C2541.16 3297.12 2570.18 3303.5 2593.67 3291.07C2593.69 3291.06 2593.71 3291.05 2593.73 3291.04C2593.75 3291.03 2593.76 3291.02 2593.78 3291.01C2615.63 3279.39 2626.86 3254.49 2621.06 3230.51L2605.01 3174.28C2591.35 3126.46 2583.65 3098.53 2576.12 3055.99Z" fill="url(#paint31_radial_369_1730)" fill-opacity="0.2"/>
<path d="M2141.68 2855.98C2191.86 2851.65 2250.95 2820.3 2282.67 2781.17C2295.98 2764.75 2312.17 2751.19 2330.52 2741.45L2330.54 2741.44C2347.7 2732.34 2366.76 2726.57 2387.15 2724.93C2476.21 2717.74 2557.18 2791.86 2569.34 2891.02L2569.36 2891.02C2569.88 2900.64 2570.31 2910.35 2570.85 2920.05C2571.68 2935.1 2560.8 2948.46 2545.83 2950.17L2369.05 2970.32C2322.76 2975.59 2280.18 2998.18 2249.86 3033.55L2134.07 3168.64C2124.27 3180.08 2107.1 3181.59 2095.11 3172.47C2087.37 3166.59 2079.57 3160.79 2071.9 3154.96L2071.91 3154.94C1996.62 3089.28 1980.64 2980.67 2036.53 2910.96C2063 2877.93 2100.91 2859.5 2141.68 2855.98Z" fill="url(#paint32_linear_369_1730)"/>
<g filter="url(#filter5_f_369_1730)">
<path d="M2049.67 2937.24L2011.63 2891.56C2011.03 2890.83 2009.99 2890.63 2009.16 2891.07L1994.92 2898.63C1994.06 2899.08 1993.66 2900.09 1993.96 2901.02L2012.24 2956.83C2013.14 2959.58 2012.25 2962.61 2010.01 2964.44L1958.55 3006.33C1957.81 3006.93 1957.6 3007.98 1958.05 3008.82L1965.12 3022.16C1965.58 3023.03 1966.61 3023.43 1967.54 3023.11L2029.49 3001.75C2032.35 3000.77 2035.51 3001.73 2037.34 3004.13L2074.56 3052.9C2075.15 3053.68 2076.22 3053.91 2077.09 3053.45L2091.3 3045.91C2092.14 3045.47 2092.55 3044.49 2092.27 3043.57L2074.54 2984.13C2073.7 2981.33 2074.69 2978.31 2077.01 2976.55L2126.87 2938.73C2128.04 2937.85 2128.4 2936.24 2127.71 2934.94L2121.4 2923.06C2120.74 2921.8 2119.27 2921.18 2117.91 2921.58L2057.02 2939.48C2054.35 2940.26 2051.46 2939.38 2049.67 2937.24Z" fill="url(#paint33_linear_369_1730)"/>
</g>
<path d="M2044.3 2946.88L2008.71 2896.41C2007.21 2894.29 2004.37 2893.61 2002.08 2894.83C1999.73 2896.08 1998.72 2898.9 1999.73 2901.36L2023.12 2957.77C2024.92 2962.12 2023.44 2967.14 2019.57 2969.82L1963.16 3008.86C1961.04 3010.34 1960.35 3013.16 1961.56 3015.44C1962.8 3017.79 1965.64 3018.79 1968.08 3017.74L2030.38 2990.95C2034.84 2989.03 2040.04 2990.6 2042.7 2994.67L2077.53 3047.94C2078.98 3050.16 2081.88 3050.91 2084.23 3049.66C2086.52 3048.45 2087.54 3045.71 2086.61 3043.29L2063.59 2983.24C2061.89 2978.82 2063.53 2973.82 2067.51 2971.25L2122.79 2935.66C2125.03 2934.22 2125.78 2931.31 2124.54 2928.97C2123.33 2926.69 2120.6 2925.67 2118.19 2926.59L2056.06 2950.45C2051.78 2952.09 2046.94 2950.62 2044.3 2946.88Z" fill="url(#paint34_linear_369_1730)"/>
</g>
<g clip-path="url(#clip6_369_1730)">
<path d="M610.666 1534.3C595.329 1543.38 575.697 1540.2 564.013 1526.74L449.179 1394.5C437.527 1381.08 437.129 1361.25 448.235 1347.38C459.325 1333.52 473.385 1321.59 481.228 1305.67C491.209 1285.41 489.201 1262.23 485.945 1240.41L722.98 1512.5C702.083 1506.29 677.131 1502.72 655.884 1508.93C639.621 1513.69 626.219 1525.1 611.638 1533.73L610.666 1534.3Z" fill="url(#paint35_linear_369_1730)"/>
<path d="M610.666 1534.3C595.329 1543.38 575.697 1540.2 564.013 1526.74L449.179 1394.5C437.527 1381.08 437.129 1361.25 448.235 1347.38C459.325 1333.52 473.385 1321.59 481.228 1305.67C491.209 1285.41 489.201 1262.23 485.945 1240.41L722.98 1512.5C702.083 1506.29 677.131 1502.72 655.884 1508.93C639.621 1513.69 626.219 1525.1 611.638 1533.73L610.666 1534.3Z" fill="url(#paint36_linear_369_1730)" fill-opacity="0.4"/>
<path d="M610.666 1534.3C595.329 1543.38 575.697 1540.2 564.013 1526.74L449.179 1394.5C437.527 1381.08 437.129 1361.25 448.235 1347.38C459.325 1333.52 473.385 1321.59 481.228 1305.67C491.209 1285.41 489.201 1262.23 485.945 1240.41L722.98 1512.5C702.083 1506.29 677.131 1502.72 655.884 1508.93C639.621 1513.69 626.219 1525.1 611.638 1533.73L610.666 1534.3Z" fill="url(#paint37_linear_369_1730)" fill-opacity="0.05"/>
<path d="M501.213 1210.46C489.745 1215.39 483.267 1227.59 485.673 1239.5C485.991 1241.08 486.626 1242.56 487.35 1243.99L550.413 1368.81C562.818 1393.36 581.127 1414.45 603.697 1430.17L718.438 1510.11C719.754 1511.03 721.136 1511.87 722.649 1512.4C734.112 1516.46 747.099 1511.75 753.583 1501.09C774.338 1466.96 790.326 1445.45 818.109 1408.77L850.773 1365.65C863.806 1346.92 862.539 1321.84 847.704 1304.72L847.666 1304.67L847.629 1304.63C831.653 1286.27 804.62 1282.3 783.809 1295.25L661.98 1370.83C647.507 1379.83 628.197 1377.5 617.098 1364.72C606 1351.94 606.396 1332.49 617.345 1319.42L709.254 1209.4C724.997 1190.61 724.851 1163.28 708.917 1144.89L708.88 1144.85L708.842 1144.8C693.967 1127.71 669.316 1122.94 648.945 1133.22L601.666 1159.52C561.452 1181.88 537.918 1194.7 501.213 1210.46Z" fill="url(#paint38_linear_369_1730)"/>
<path d="M501.213 1210.46C489.745 1215.39 483.267 1227.59 485.673 1239.5C485.991 1241.08 486.626 1242.56 487.35 1243.99L550.413 1368.81C562.818 1393.36 581.127 1414.45 603.697 1430.17L718.438 1510.11C719.754 1511.03 721.136 1511.87 722.649 1512.4C734.112 1516.46 747.099 1511.75 753.583 1501.09C774.338 1466.96 790.326 1445.45 818.109 1408.77L850.773 1365.65C863.806 1346.92 862.539 1321.84 847.704 1304.72L847.666 1304.67L847.629 1304.63C831.653 1286.27 804.62 1282.3 783.809 1295.25L661.98 1370.83C647.507 1379.83 628.197 1377.5 617.098 1364.72C606 1351.94 606.396 1332.49 617.345 1319.42L709.254 1209.4C724.997 1190.61 724.851 1163.28 708.917 1144.89L708.88 1144.85L708.842 1144.8C693.967 1127.71 669.316 1122.94 648.945 1133.22L601.666 1159.52C561.452 1181.88 537.918 1194.7 501.213 1210.46Z" fill="url(#paint39_radial_369_1730)" fill-opacity="0.2"/>
<path d="M319.157 1719.22C305.465 1675.48 265.715 1629.7 224.322 1610.01C206.944 1601.75 191.585 1590.3 179.237 1576.08L179.227 1576.07C167.683 1562.77 158.773 1547.05 153.311 1529.26C129.451 1451.5 180.335 1363.16 267.18 1330.64L267.173 1330.62C275.729 1328.05 284.386 1325.54 293.01 1322.95C305.685 1319.13 319.062 1325.01 324.217 1336.67C324.788 1337.96 325.321 1339.27 325.978 1340.52L405.797 1492.29C419.075 1517.53 438.026 1539.36 461.162 1556.05L600.242 1656.36C601.387 1657.18 602.61 1657.9 603.807 1658.64C614.629 1665.38 618.575 1679.45 613.017 1691.46C609.236 1699.64 605.538 1707.86 601.795 1715.97L601.775 1715.96C557.4 1797.39 462.796 1835.38 389.157 1800.85C354.269 1784.5 330.282 1754.77 319.157 1719.22Z" fill="url(#paint40_linear_369_1730)"/>
</g>
<g clip-path="url(#clip7_369_1730)">
<path d="M2374.61 3778.41C2405.39 3818.14 2463.62 3851.07 2513.54 3856.97C2554.09 3861.76 2591.48 3881.22 2617.17 3914.76C2671.4 3985.54 2653.18 4092.5 2576.76 4155.05L2576.77 4155.07L2526.91 4194.64C2515.15 4203.98 2498.89 4205.25 2485.81 4197.86L2096.78 3977.87C2083.7 3970.47 2076.41 3955.89 2078.35 3940.99L2086.57 3877.87L2086.59 3877.87C2100.8 3780.14 2183.06 3709.4 2271.67 3719.38C2313.65 3724.11 2349.6 3746.12 2374.61 3778.41Z" fill="url(#paint41_linear_369_1730)"/>
<path d="M2374.61 3778.41C2405.39 3818.14 2463.62 3851.07 2513.54 3856.97C2554.09 3861.76 2591.48 3881.22 2617.17 3914.76C2671.4 3985.54 2653.18 4092.5 2576.76 4155.05L2576.77 4155.07L2526.91 4194.64C2515.15 4203.98 2498.89 4205.25 2485.81 4197.86L2096.78 3977.87C2083.7 3970.47 2076.41 3955.89 2078.35 3940.99L2086.57 3877.87L2086.59 3877.87C2100.8 3780.14 2183.06 3709.4 2271.67 3719.38C2313.65 3724.11 2349.6 3746.12 2374.61 3778.41Z" fill="url(#paint42_linear_369_1730)" fill-opacity="0.1"/>
<path d="M2374.61 3778.41C2405.39 3818.14 2463.62 3851.07 2513.54 3856.97C2554.09 3861.76 2591.48 3881.22 2617.17 3914.76C2671.4 3985.54 2653.18 4092.5 2576.76 4155.05L2576.77 4155.07L2526.91 4194.64C2515.15 4203.98 2498.89 4205.25 2485.81 4197.86L2096.78 3977.87C2083.7 3970.47 2076.41 3955.89 2078.35 3940.99L2086.57 3877.87L2086.59 3877.87C2100.8 3780.14 2183.06 3709.4 2271.67 3719.38C2313.65 3724.11 2349.6 3746.12 2374.61 3778.41Z" fill="url(#paint43_linear_369_1730)" fill-opacity="0.05"/>
<path d="M2133.13 4030.22L2422.21 4193.69L2259.84 4339.88C2227.27 4369.2 2179.6 4374.43 2141.45 4352.86C2103.3 4331.28 2083.2 4287.74 2091.55 4244.71L2133.13 4030.22Z" fill="url(#paint44_linear_369_1730)"/>
<path d="M2055.1 3980.8C2061.37 3969.71 2075.44 3965.8 2086.53 3972.07L2496.06 4203.65C2507.15 4209.92 2511.05 4223.99 2504.78 4235.08C2498.51 4246.17 2484.44 4250.07 2473.36 4243.81L2063.82 4012.22C2052.74 4005.95 2048.83 3991.88 2055.1 3980.8Z" fill="url(#paint45_linear_369_1730)"/>
<path d="M2073.38 4229.59C2078.4 4220.72 2089.66 4217.59 2098.52 4222.61L2275.19 4322.5C2284.06 4327.52 2287.18 4338.78 2282.16 4347.65C2277.15 4356.52 2265.89 4359.64 2257.02 4354.62L2080.36 4254.73C2071.49 4249.71 2068.37 4238.46 2073.38 4229.59Z" fill="url(#paint46_linear_369_1730)"/>
<path d="M2085.09 4162.02C2090.11 4153.15 2101.37 4150.03 2110.24 4155.04L2327.05 4277.65C2335.92 4282.66 2339.04 4293.92 2334.03 4302.79C2329.01 4311.66 2317.75 4314.78 2308.88 4309.77L2092.07 4187.16C2083.2 4182.15 2080.08 4170.89 2085.09 4162.02Z" fill="url(#paint47_linear_369_1730)"/>
<path d="M2096.8 4094.46C2101.82 4085.59 2113.08 4082.47 2121.95 4087.48L2378.91 4232.79C2387.78 4237.8 2390.9 4249.06 2385.89 4257.93C2380.87 4266.8 2369.61 4269.92 2360.74 4264.91L2103.78 4119.6C2094.91 4114.59 2091.79 4103.33 2096.8 4094.46Z" fill="url(#paint48_linear_369_1730)"/>
</g>
<g clip-path="url(#clip8_369_1730)">
<path fill-rule="evenodd" clip-rule="evenodd" d="M3583.5 3622.69C3547.18 3657.07 3484.94 3680.02 3435 3677.45C3394.42 3675.35 3354.71 3688.41 3324.35 3717.48C3260.27 3778.82 3261.81 3888.46 3327.29 3963.72C3327.31 3963.74 3327.32 3963.76 3327.32 3963.78L3345.99 3982.5C3409.13 4045.78 3464.99 4115.91 3512.54 4191.6L3557.78 4263.6C3571.74 4283.94 3597.65 4292.23 3620.7 4283.73C3645.46 4274.6 3659.9 4248.76 3654.77 4222.76L3624.54 4069.31C3620.98 4051.24 3631.01 4033.29 3648.21 4026.94C3665.41 4020.6 3684.7 4027.74 3693.72 4043.8L3770.34 4180.14C3783.32 4203.25 3811.08 4213.53 3835.83 4204.4C3858.89 4195.9 3873.21 4172.78 3870.63 4148.24L3858.29 4064.11C3845.33 3975.67 3842.29 3886.06 3849.23 3796.94L3851.29 3770.58C3851.27 3770.56 3851.27 3770.54 3851.27 3770.52C3852.22 3670.76 3782.21 3586.37 3693.65 3581.31C3651.68 3578.91 3613 3594.76 3583.5 3622.69Z" fill="url(#paint49_linear_369_1730)"/>
<mask id="mask2_369_1730" style="mask-type:alpha" maskUnits="userSpaceOnUse" x="3277" y="3581" width="594" height="707">
<path fill-rule="evenodd" clip-rule="evenodd" d="M3583.5 3622.69C3547.18 3657.07 3484.94 3680.02 3435 3677.45C3394.42 3675.35 3354.71 3688.41 3324.35 3717.48C3260.27 3778.82 3261.81 3888.46 3327.29 3963.72C3327.31 3963.74 3327.32 3963.76 3327.32 3963.78L3345.99 3982.5C3409.13 4045.78 3464.99 4115.91 3512.54 4191.6L3557.78 4263.6C3571.74 4283.94 3597.65 4292.23 3620.7 4283.73C3645.46 4274.6 3659.9 4248.76 3654.77 4222.76L3624.54 4069.31C3620.98 4051.24 3631.01 4033.29 3648.21 4026.94C3665.41 4020.6 3684.7 4027.74 3693.72 4043.8L3770.34 4180.14C3783.32 4203.25 3811.08 4213.53 3835.83 4204.4C3858.89 4195.9 3873.21 4172.78 3870.63 4148.24L3858.29 4064.11C3845.33 3975.67 3842.29 3886.06 3849.23 3796.94L3851.29 3770.58C3851.27 3770.56 3851.27 3770.54 3851.27 3770.52C3852.22 3670.76 3782.21 3586.37 3693.65 3581.31C3651.68 3578.91 3613 3594.76 3583.5 3622.69Z" fill="url(#paint50_linear_369_1730)"/>
</mask>
<g mask="url(#mask2_369_1730)">
<path d="M3443.58 3731.52C3443.39 3731.01 3442.83 3730.75 3442.31 3730.91C3411.7 3740.72 3378.51 3724.74 3367.28 3694.28L3363.8 3684.84C3354.18 3658.77 3377.1 3655.8 3403.18 3646.19C3416.91 3641.12 3431.44 3642.43 3443.52 3648.61C3453.59 3628.09 3471.26 3611.25 3494.41 3602.72C3517.55 3594.18 3545.11 3604.17 3566.1 3613.24C3571.28 3600.7 3581.48 3590.28 3595.21 3585.21C3621.29 3575.6 3650.22 3588.94 3659.83 3615.02L3663.31 3624.46C3674.54 3654.91 3659.67 3688.61 3630.02 3701.03C3629.52 3701.24 3629.26 3701.8 3629.45 3702.31L3632.02 3709.29C3649.65 3757.09 3625.19 3810.13 3577.38 3827.76C3529.58 3845.38 3476.54 3820.92 3458.92 3773.12L3443.58 3731.52Z" fill="url(#paint51_linear_369_1730)"/>
</g>
</g>
<g clip-path="url(#clip9_369_1730)">
<path d="M2975.57 672.311C2999.83 663.024 3011.97 635.824 3002.69 611.559L2972.76 533.359C2954.63 486.008 2901.48 462.406 2854.2 480.718L2644.75 561.843C2640.85 563.353 2636.65 563.961 2632.49 563.619L2344.18 539.966C2330 538.803 2316.85 547.455 2312.31 560.938C2306.98 576.768 2315.17 593.973 2330.82 599.818L2607.62 703.203C2633.21 712.763 2661.88 709.117 2684.26 693.452L2863.7 567.902C2881.84 555.209 2907 561.237 2917.41 580.773L2963.9 667.952C2966.14 672.138 2971.14 674.008 2975.57 672.311Z" fill="url(#paint52_linear_369_1730)"/>
<mask id="mask3_369_1730" style="mask-type:alpha" maskUnits="userSpaceOnUse" x="2310" y="474" width="696" height="235">
<path d="M2975.57 672.311C2999.83 663.024 3011.97 635.824 3002.69 611.559L2972.76 533.359C2954.63 486.008 2901.48 462.406 2854.2 480.718L2644.75 561.843C2640.85 563.353 2636.65 563.961 2632.49 563.619L2344.18 539.966C2330 538.803 2316.85 547.455 2312.31 560.938C2306.98 576.768 2315.17 593.973 2330.82 599.818L2607.62 703.203C2633.21 712.763 2661.88 709.117 2684.26 693.452L2863.7 567.902C2881.84 555.209 2907 561.237 2917.41 580.773L2963.9 667.952C2966.14 672.138 2971.14 674.008 2975.57 672.311Z" fill="url(#paint53_linear_369_1730)"/>
</mask>
<g mask="url(#mask3_369_1730)">
<rect x="2743.27" y="682.2" width="138.375" height="184.5" transform="rotate(159.056 2743.27 682.2)" fill="url(#paint54_linear_369_1730)"/>
<rect x="2717.43" y="692.094" width="46.125" height="184.5" transform="rotate(159.056 2717.43 692.094)" fill="url(#paint55_linear_369_1730)"/>
<rect x="2768.27" y="472.056" width="46.125" height="184.5" transform="rotate(-5.94427 2768.27 472.056)" fill="url(#paint56_linear_369_1730)"/>
</g>
<path d="M2958.12 727.392C2967.41 751.657 2955.27 778.857 2931 788.144L2852.8 818.076C2805.45 836.199 2752.39 812.385 2734.46 764.963L2655 554.871C2653.52 550.96 2651.18 547.434 2648.14 544.56L2438.03 345.722C2427.7 335.943 2425.36 320.379 2432.37 307.995C2440.59 293.457 2458.87 288.066 2473.67 295.813L2735.45 432.847C2759.65 445.52 2776.08 469.292 2779.36 496.418L2805.7 713.825C2808.37 735.804 2829.65 750.507 2851.15 745.218L2947.09 721.619C2951.7 720.486 2956.43 722.961 2958.12 727.392Z" fill="url(#paint57_linear_369_1730)"/>
<mask id="mask4_369_1730" style="mask-type:alpha" maskUnits="userSpaceOnUse" x="2428" y="292" width="534" height="533">
<path d="M2958.12 727.392C2967.41 751.657 2955.27 778.857 2931 788.144L2852.8 818.076C2805.45 836.199 2752.39 812.385 2734.46 764.963L2655 554.871C2653.52 550.96 2651.18 547.434 2648.14 544.56L2438.03 345.722C2427.7 335.943 2425.36 320.379 2432.37 307.995C2440.59 293.457 2458.87 288.066 2473.67 295.813L2735.45 432.847C2759.65 445.52 2776.08 469.292 2779.36 496.418L2805.7 713.825C2808.37 735.804 2829.65 750.507 2851.15 745.218L2947.09 721.619C2951.7 720.486 2956.43 722.961 2958.12 727.392Z" fill="url(#paint58_linear_369_1730)"/>
</mask>
<g mask="url(#mask4_369_1730)">
<path d="M2867.44 713.698L2812.73 734.637L2606.69 364.066L2754.86 372.135L2867.44 713.698Z" fill="url(#paint59_linear_369_1730)"/>
</g>
<g filter="url(#filter6_d_369_1730)">
<path d="M2701.69 578.294C2695.45 592.252 2701.72 608.617 2715.68 614.847L2724.12 618.614C2738.07 624.845 2754.44 618.581 2760.67 604.624L2766.27 592.075C2772.5 578.118 2766.24 561.753 2752.28 555.523L2743.84 551.756C2729.88 545.525 2713.52 551.789 2707.29 565.746L2701.69 578.294Z" fill="url(#paint60_linear_369_1730)"/>
</g>
<path d="M2715.87 585.986C2713.79 590.638 2715.88 596.093 2720.53 598.17L2733.29 603.863C2737.94 605.94 2743.39 603.852 2745.47 599.2L2752.08 584.384C2754.16 579.732 2752.07 574.277 2747.42 572.2L2734.67 566.507C2730.02 564.43 2724.56 566.518 2722.48 571.17L2715.87 585.986Z" fill="url(#paint61_linear_369_1730)"/>
</g>
<g clip-path="url(#clip10_369_1730)">
<path fill-rule="evenodd" clip-rule="evenodd" d="M3515.9 1492.16C3467 1481.72 3412.81 1443.45 3386.63 1400.84C3365.36 1366.22 3332.1 1340.91 3290.94 1332.36C3204.09 1314.33 3114.63 1377.73 3089.73 1474.34C3089.72 1474.36 3089.71 1474.38 3089.69 1474.39L3084.85 1500.39C3068.5 1588.26 3042.38 1674.04 3006.96 1756.11L2973.28 1834.18C2964.43 1857.22 2972.29 1883.26 2992.35 1897.43C3013.9 1912.66 3043.37 1909.91 3061.89 1890.95L3171.18 1779.08C3184.05 1765.91 3204.53 1764 3219.51 1774.58C3234.48 1785.16 3239.53 1805.09 3231.41 1821.63L3162.5 1962.02C3150.82 1985.81 3158.07 2014.51 3179.63 2029.73C3199.69 2043.91 3226.86 2042.6 3245.62 2026.57L3307.94 1968.73C3373.46 1907.93 3445.57 1854.64 3522.93 1809.86L3545.82 1796.61C3545.82 1796.59 3545.83 1796.57 3545.85 1796.56C3628.59 1740.8 3658.45 1635.3 3612.43 1559.47C3590.62 1523.53 3555.64 1500.64 3515.9 1492.16Z" fill="url(#paint62_linear_369_1730)"/>
<path d="M3099.62 1445.08C3082.9 1519.32 3078.67 1607.69 3102.69 1703.47C3112 1740.59 3125.66 1775.67 3142.39 1808.56L3171.18 1779.08C3184.05 1765.91 3204.53 1764 3219.51 1774.58C3234.48 1785.16 3239.53 1805.09 3231.41 1821.63L3195.79 1894.2C3222.79 1930.54 3252.81 1963.13 3283.23 1991.66L3307.94 1968.73C3373.46 1907.93 3445.57 1854.64 3522.93 1809.86L3545.82 1796.61C3545.82 1796.59 3545.83 1796.57 3545.85 1796.56C3628.59 1740.8 3658.45 1635.3 3612.43 1559.47C3590.62 1523.53 3555.64 1500.64 3515.9 1492.16C3467 1481.72 3412.81 1443.45 3386.63 1400.84C3365.36 1366.22 3332.1 1340.91 3290.94 1332.36C3213.2 1316.22 3133.37 1365.32 3099.62 1445.08Z" fill="url(#paint63_linear_369_1730)"/>
<path d="M3099.62 1445.08C3082.9 1519.32 3078.67 1607.69 3102.69 1703.47C3112 1740.59 3125.66 1775.67 3142.39 1808.56L3171.18 1779.08C3184.05 1765.91 3204.53 1764 3219.51 1774.58C3234.48 1785.16 3239.53 1805.09 3231.41 1821.63L3195.79 1894.2C3222.79 1930.54 3252.81 1963.13 3283.23 1991.66L3307.94 1968.73C3373.46 1907.93 3445.57 1854.64 3522.93 1809.86L3545.82 1796.61C3545.82 1796.59 3545.83 1796.57 3545.85 1796.56C3628.59 1740.8 3658.45 1635.3 3612.43 1559.47C3590.62 1523.53 3555.64 1500.64 3515.9 1492.16C3467 1481.72 3412.81 1443.45 3386.63 1400.84C3365.36 1366.22 3332.1 1340.91 3290.94 1332.36C3213.2 1316.22 3133.37 1365.32 3099.62 1445.08Z" fill="url(#paint64_linear_369_1730)" fill-opacity="0.1"/>
<path d="M3099.62 1445.08C3082.9 1519.32 3078.67 1607.69 3102.69 1703.47C3112 1740.59 3125.66 1775.67 3142.39 1808.56L3171.18 1779.08C3184.05 1765.91 3204.53 1764 3219.51 1774.58C3234.48 1785.16 3239.53 1805.09 3231.41 1821.63L3195.79 1894.2C3222.79 1930.54 3252.81 1963.13 3283.23 1991.66L3307.94 1968.73C3373.46 1907.93 3445.57 1854.64 3522.93 1809.86L3545.82 1796.61C3545.82 1796.59 3545.83 1796.57 3545.85 1796.56C3628.59 1740.8 3658.45 1635.3 3612.43 1559.47C3590.62 1523.53 3555.64 1500.64 3515.9 1492.16C3467 1481.72 3412.81 1443.45 3386.63 1400.84C3365.36 1366.22 3332.1 1340.91 3290.94 1332.36C3213.2 1316.22 3133.37 1365.32 3099.62 1445.08Z" fill="url(#paint65_linear_369_1730)" fill-opacity="0.1"/>
<path d="M3120.77 1760.24C3116.12 1748.23 3111.9 1735.97 3108.17 1723.46C3128.72 1685.78 3143.73 1645.24 3152.65 1603.07L3173.69 1503.61C3187.94 1436.22 3273.34 1414.5 3318.07 1466.9L3348.04 1502.02C3368.05 1525.46 3393.61 1543.52 3422.39 1554.54L3470.1 1572.81C3533.59 1597.13 3542.54 1683.27 3485.41 1720.12L3394.25 1778.92C3346.61 1809.64 3305.31 1849.23 3272.6 1895.54L3237.57 1945.13C3232.89 1939.95 3228.27 1934.66 3223.69 1929.27L3278.33 1832.24C3293.41 1805.46 3293.36 1772.73 3278.19 1745.99C3266.59 1725.54 3246.47 1711.32 3223.32 1707.23C3193.05 1701.87 3162.19 1712.76 3141.98 1735.92L3120.77 1760.24Z" fill="url(#paint66_radial_369_1730)"/>
</g>
<g clip-path="url(#clip11_369_1730)">
<rect x="794.693" y="4043.24" width="92.25" height="55.35" rx="2" transform="rotate(28.5986 794.693 4043.24)" fill="url(#paint67_linear_369_1730)"/>
<rect x="852.098" y="3937.94" width="92.25" height="55.35" rx="2" transform="rotate(28.5986 852.098 3937.94)" fill="url(#paint68_linear_369_1730)"/>
<path d="M917.144 3741.18C843.129 3704.78 753.581 3733.2 714.1 3805.62C673.897 3879.36 700.238 3971.72 773.292 4013.16L1049.59 4169.89C1094.43 4195.33 1151.42 4179.07 1176.1 4133.81L1244.1 4009.08C1269.21 3963.01 1250.9 3905.29 1203.81 3882.14L917.144 3741.18Z" fill="url(#paint69_linear_369_1730)"/>
<path d="M623.83 4276.8C553.689 4234.63 529.257 4144.67 568.432 4072.81C608.805 3998.75 701.568 3971.45 775.623 4011.82L1054.61 4163.92C1099.34 4188.31 1115.83 4244.34 1091.45 4289.08L1027.11 4407.08C1002 4453.15 943.559 4469.02 898.587 4441.98L623.83 4276.8Z" fill="url(#paint70_linear_369_1730)"/>
<path fill-rule="evenodd" clip-rule="evenodd" d="M688.786 4364.37C683.025 4353.02 687.563 4339.14 698.923 4333.37C738.075 4313.52 842.545 4234.91 923.032 4087.28C1003.53 3939.63 1010.09 3814.58 1004.44 3773.96C1002.69 3761.34 1011.49 3749.69 1024.11 3747.94C1036.73 3746.18 1048.38 3754.99 1050.13 3767.6C1057.29 3819.11 1048.19 3954.06 963.529 4109.35C878.857 4264.67 767.768 4350.18 719.786 4374.51C708.427 4380.27 694.547 4375.73 688.786 4364.37Z" fill="url(#paint71_linear_369_1730)"/>
<path fill-rule="evenodd" clip-rule="evenodd" d="M1024.91 3747.84C1012.24 3749.15 1003.04 3760.48 1004.35 3773.15C1008.87 3816.82 999.391 3947.22 918.904 4094.85C838.409 4242.5 736.855 4315.76 699.65 4333.02C688.096 4338.38 683.074 4352.09 688.434 4363.65C693.794 4375.2 707.506 4380.22 719.06 4374.86C766.237 4352.98 874.736 4272.22 959.401 4116.93C1044.07 3961.62 1055.77 3821.92 1050.23 3768.4C1048.92 3755.74 1037.58 3746.53 1024.91 3747.84Z" fill="url(#paint72_radial_369_1730)" fill-opacity="0.3"/>
<path fill-rule="evenodd" clip-rule="evenodd" d="M1024.91 3747.84C1012.24 3749.15 1003.04 3760.48 1004.35 3773.15C1008.87 3816.82 999.391 3947.22 918.904 4094.85C838.409 4242.5 736.855 4315.76 699.65 4333.02C688.096 4338.38 683.074 4352.09 688.434 4363.65C693.794 4375.2 707.506 4380.22 719.06 4374.86C766.237 4352.98 874.736 4272.22 959.401 4116.93C1044.07 3961.62 1055.77 3821.92 1050.23 3768.4C1048.92 3755.74 1037.58 3746.53 1024.91 3747.84Z" fill="url(#paint73_radial_369_1730)" fill-opacity="0.3"/>
<path d="M758.696 4283.11C746.948 4278.15 744.649 4262.49 754.475 4254.37C789.768 4225.17 812.477 4183.52 817.898 4138.03C819.407 4125.37 833.81 4118.82 844.343 4126.01L861.306 4137.59C885.569 4154.14 911.424 4168.24 938.485 4179.66L957.404 4187.65C969.152 4192.61 971.451 4208.26 961.626 4216.39C926.333 4245.59 903.623 4287.24 898.202 4332.72C896.693 4345.39 882.29 4351.93 871.757 4344.75L854.794 4333.17C830.531 4316.61 804.677 4302.52 777.615 4291.09L758.696 4283.11Z" fill="#B4A9FC"/>
<g filter="url(#filter7_d_369_1730)">
<path d="M823.457 4279.56C805.564 4269.8 798.967 4247.39 808.722 4229.5L826.384 4197.1C836.139 4179.21 858.552 4172.61 876.445 4182.37L892.644 4191.2C910.537 4200.95 917.134 4223.36 907.379 4241.26L889.717 4273.66C879.962 4291.55 857.549 4298.15 839.656 4288.39L823.457 4279.56Z" fill="url(#paint74_linear_369_1730)"/>
<path d="M823.935 4278.68C806.527 4269.19 800.109 4247.39 809.599 4229.98L827.262 4197.58C836.753 4180.17 858.559 4173.75 875.967 4183.24L892.166 4192.07C909.574 4201.57 915.992 4223.37 906.501 4240.78L888.839 4273.18C879.348 4290.59 857.542 4297 840.134 4287.51L823.935 4278.68Z" stroke="url(#paint75_radial_369_1730)" stroke-width="2"/>
</g>
<g filter="url(#filter8_d_369_1730)">
<path d="M814.235 4190.48C803.052 4184.38 798.929 4170.37 805.026 4159.19C811.122 4148.01 825.131 4143.88 836.314 4149.98L860.612 4163.23C871.795 4169.32 875.919 4183.33 869.822 4194.51C863.725 4205.7 849.717 4209.82 838.534 4203.72L814.235 4190.48Z" fill="url(#paint76_linear_369_1730)"/>
</g>
<g filter="url(#filter9_d_369_1730)">
<path d="M895.23 4234.63C884.047 4228.54 879.924 4214.53 886.021 4203.35C892.118 4192.16 906.126 4188.04 917.309 4194.14L941.607 4207.38C952.79 4213.48 956.914 4227.49 950.817 4238.67C944.72 4249.85 930.712 4253.98 919.529 4247.88L895.23 4234.63Z" fill="url(#paint77_linear_369_1730)"/>
</g>
<g filter="url(#filter10_d_369_1730)">
<path d="M855.488 4307.53C844.305 4301.43 840.182 4287.42 846.279 4276.24C852.375 4265.06 866.384 4260.94 877.567 4267.03L901.865 4280.28C913.048 4286.38 917.171 4300.38 911.075 4311.57C904.978 4322.75 890.97 4326.87 879.787 4320.78L855.488 4307.53Z" fill="url(#paint78_linear_369_1730)"/>
</g>
<g filter="url(#filter11_d_369_1730)">
<path d="M774.493 4263.37C763.31 4257.28 759.187 4243.27 765.283 4232.08C771.38 4220.9 785.388 4216.78 796.572 4222.87L820.87 4236.12C832.053 4242.22 836.176 4256.23 830.079 4267.41C823.983 4278.59 809.974 4282.72 798.791 4276.62L774.493 4263.37Z" fill="url(#paint79_linear_369_1730)"/>
</g>
<path d="M908.831 4007.72C897.083 4002.77 894.784 3987.11 904.61 3978.98C939.902 3949.79 962.612 3908.13 968.033 3862.65C969.542 3849.99 983.945 3843.44 994.478 3850.63L1011.44 3862.2C1035.7 3878.76 1061.56 3892.86 1088.62 3904.28L1107.54 3912.27C1119.29 3917.23 1121.59 3932.88 1111.76 3941.01C1076.47 3970.2 1053.76 4011.86 1048.34 4057.34C1046.83 4070 1032.43 4076.55 1021.89 4069.36L1004.93 4057.79C980.666 4041.23 954.811 4027.14 927.75 4015.71L908.831 4007.72Z" fill="#B4A9FC"/>
<g filter="url(#filter12_d_369_1730)">
<rect x="941.193" y="3986.51" width="110.7" height="92.25" rx="4" transform="rotate(-61.4015 941.193 3986.51)" fill="url(#paint80_linear_369_1730)"/>
<rect x="942.55" y="3986.12" width="108.7" height="90.25" rx="3" transform="rotate(-61.4015 942.55 3986.12)" stroke="url(#paint81_radial_369_1730)" stroke-width="2"/>
</g>
<g filter="url(#filter13_d_369_1730)">
<path d="M964.37 3915.09C953.187 3909 949.064 3894.99 955.16 3883.81C961.257 3872.62 975.265 3868.5 986.448 3874.6L1010.75 3887.84C1021.93 3893.94 1026.05 3907.95 1019.96 3919.13C1013.86 3930.31 999.851 3934.44 988.668 3928.34L964.37 3915.09Z" fill="url(#paint82_linear_369_1730)"/>
</g>
<g filter="url(#filter14_d_369_1730)">
<path d="M1045.36 3959.25C1034.18 3953.15 1030.06 3939.15 1036.16 3927.96C1042.25 3916.78 1056.26 3912.66 1067.44 3918.75L1091.74 3932C1102.93 3938.1 1107.05 3952.11 1100.95 3963.29C1094.85 3974.47 1080.85 3978.6 1069.66 3972.5L1045.36 3959.25Z" fill="url(#paint83_linear_369_1730)"/>
</g>
<g filter="url(#filter15_d_369_1730)">
<path d="M1005.62 4032.15C994.44 4026.05 990.316 4012.04 996.413 4000.86C1002.51 3989.68 1016.52 3985.55 1027.7 3991.65L1052 4004.9C1063.18 4010.99 1067.31 4025 1061.21 4036.18C1055.11 4047.37 1041.1 4051.49 1029.92 4045.39L1005.62 4032.15Z" fill="url(#paint84_linear_369_1730)"/>
</g>
<g filter="url(#filter16_d_369_1730)">
<path d="M924.629 3987.99C913.446 3981.89 909.322 3967.88 915.419 3956.7C921.516 3945.52 935.524 3941.4 946.707 3947.49L971.006 3960.74C982.189 3966.84 986.312 3980.84 980.215 3992.03C974.118 4003.21 960.11 4007.33 948.927 4001.24L924.629 3987.99Z" fill="url(#paint85_linear_369_1730)"/>
</g>
</g>
<g clip-path="url(#clip12_369_1730)">
<path fill-rule="evenodd" clip-rule="evenodd" d="M506.391 2498.4C471.725 2534.44 410.623 2560.28 360.616 2560.05C319.986 2559.86 280.933 2574.76 251.961 2605.22C190.822 2669.49 197.492 2778.93 266.429 2851.05C266.445 2851.07 266.453 2851.09 266.453 2851.11L285.986 2868.93C352.014 2929.18 411.098 2996.63 462.139 3070L510.693 3139.81C525.597 3159.47 551.864 3166.54 574.492 3156.97C598.795 3146.69 612.006 3120.21 605.671 3094.47L568.287 2942.61C563.884 2924.73 573.065 2906.32 589.953 2899.18C606.841 2892.04 626.44 2898.27 636.205 2913.89L719.117 3046.5C733.169 3068.97 761.373 3077.94 785.676 3067.67C808.304 3058.1 821.532 3034.33 817.804 3009.94L801.545 2926.48C784.454 2838.74 777.225 2749.37 779.993 2660.03L780.812 2633.6C780.796 2633.58 780.787 2633.56 780.786 2633.54C777.065 2533.84 703.189 2452.82 614.488 2451.91C572.456 2451.48 534.557 2469.12 506.391 2498.4Z" fill="url(#paint86_linear_369_1730)"/>
<mask id="mask5_369_1730" style="mask-type:alpha" maskUnits="userSpaceOnUse" x="145" y="2495" width="824" height="638">
<rect x="141.278" y="2779.28" width="738" height="387.45" rx="12" transform="rotate(-22.9225 141.278 2779.28)" fill="#1B2C3B"/>
</mask>
<g mask="url(#mask5_369_1730)">
<rect x="141.278" y="2779.28" width="738" height="387.45" rx="12" transform="rotate(-22.9225 141.278 2779.28)" fill="#1B2C3B"/>
<path fill-rule="evenodd" clip-rule="evenodd" d="M509.268 2497.19C474.246 2533.38 412.63 2559.43 362.268 2559.35C321.349 2559.28 281.972 2574.32 252.702 2604.9C190.933 2669.44 197.32 2779 266.532 2851.01C266.547 2851.02 266.556 2851.04 266.556 2851.07L286.174 2868.85C352.491 2928.98 411.793 2996.33 462.977 3069.65L511.666 3139.4C526.617 3159.04 553.05 3166.04 575.868 3156.39C600.376 3146.03 613.761 3119.47 607.458 3093.72L570.266 2941.78C565.885 2923.88 575.187 2905.43 592.217 2898.23C609.247 2891.02 628.967 2897.21 638.754 2912.81L721.858 3045.34C735.942 3067.8 764.32 3076.7 788.827 3066.33C811.646 3056.68 825.039 3032.85 821.358 3008.43L805.235 2924.92C788.287 2837.12 781.275 2747.66 784.333 2658.19L785.237 2631.73C785.221 2631.71 785.212 2631.69 785.211 2631.67C781.764 2531.85 707.606 2450.95 618.275 2450.31C575.945 2450 537.723 2467.78 509.268 2497.19Z" fill="url(#paint87_linear_369_1730)"/>
<path d="M539.824 2869.43C548.294 2859.39 558.903 2851.88 570.688 2847.32C582.172 2842.04 594.948 2839.66 608.052 2840.57C640.224 2842.83 669.849 2862.65 686.126 2892.82L741.314 2995.1C743.587 2999.31 748.18 3001.71 752.79 3001.05C759.94 3000.04 763.971 2992.37 761.078 2985.53L740.352 2936.52C715.713 2878.26 701.668 2816.15 698.979 2753.58L693.834 2633.84C690.61 2558.8 607.994 2514.75 552.553 2558.51L510.886 2591.4C498.971 2600.81 486.007 2608.59 472.285 2614.62C458.401 2620.26 443.789 2624.15 428.741 2626.14L376.118 2633.13C306.099 2642.42 280.15 2732.37 331.742 2786.96L414.067 2874.06C457.088 2919.58 491.863 2972.92 516.502 3031.18L537.228 3080.19C540.12 3087.04 548.429 3089.48 554.136 3085.06C557.815 3082.21 559.297 3077.24 557.858 3072.68L522.92 2961.83C512.616 2929.14 519.03 2894.08 539.824 2869.43Z" fill="url(#paint88_radial_369_1730)"/>
<path fill-rule="evenodd" clip-rule="evenodd" d="M218.381 2866.86C202.506 2829.32 220.069 2786.02 257.609 2770.15L283.098 2759.37L290.284 2776.36L264.795 2787.14C236.64 2799.05 223.468 2831.52 235.374 2859.68L246.153 2885.17L229.16 2892.35L218.381 2866.86Z" fill="#617587"/>
<path fill-rule="evenodd" clip-rule="evenodd" d="M283.055 3019.8C298.93 3057.34 342.231 3074.9 379.771 3059.03L405.261 3048.25L398.075 3031.26L372.585 3042.04C344.43 3053.94 311.954 3040.77 300.048 3012.62L289.269 2987.13L272.276 2994.31L283.055 3019.8Z" fill="#617587"/>
<path fill-rule="evenodd" clip-rule="evenodd" d="M830.13 2608.17C814.255 2570.63 770.954 2553.06 733.414 2568.94L707.924 2579.72L715.11 2596.71L740.6 2585.93C768.755 2574.03 801.231 2587.2 813.137 2615.35L823.916 2640.84L840.909 2633.66L830.13 2608.17Z" fill="#617587"/>
<path fill-rule="evenodd" clip-rule="evenodd" d="M894.805 2761.1C910.68 2798.64 893.117 2841.95 855.577 2857.82L830.087 2868.6L822.901 2851.61L848.391 2840.83C876.546 2828.92 889.718 2796.45 877.812 2768.29L867.033 2742.8L884.026 2735.61L894.805 2761.1Z" fill="#617587"/>
</g>
</g>
<g clip-path="url(#clip13_369_1730)">
<rect x="5027.72" y="1412" width="738" height="738" rx="16" transform="rotate(68.9422 5027.72 1412)" fill="#1B2C3B"/>
<path fill-rule="evenodd" clip-rule="evenodd" d="M5070.67 1860.35C5042.17 1830.96 5022.64 1780.24 5024.08 1739.33C5025.24 1706.09 5014.07 1673.72 4989.98 1649.15C4939.15 1597.3 4849.83 1599.66 4789.37 1654.02C4789.36 1654.03 4789.34 1654.04 4789.32 1654.04L4774.32 1669.52C4723.6 1721.83 4667.2 1768.26 4606.16 1807.95L4548.1 1845.69C4531.71 1857.33 4525.3 1878.62 4532.53 1897.41C4540.3 1917.58 4561.54 1929.14 4582.67 1924.69L4707.3 1898.4C4721.97 1895.31 4736.74 1903.34 4742.13 1917.36C4747.53 1931.38 4741.97 1947.24 4729 1954.79L4618.93 2018.87C4600.27 2029.73 4592.27 2052.55 4600.03 2072.73C4607.27 2091.51 4626.3 2103.01 4646.26 2100.65L4714.65 2089.71C4786.54 2078.21 4859.52 2074.83 4932.22 2079.63L4953.73 2081.04C4953.74 2081.03 4953.76 2081.02 4953.78 2081.02C5035.08 2080.8 5102.92 2022.66 5105.86 1950.11C5107.25 1915.73 5093.82 1884.22 5070.67 1860.35Z" fill="url(#paint89_linear_369_1730)"/>
<path d="M4766.92 1875.34C4774.76 1882.59 4780.55 1891.49 4783.98 1901.25C4787.98 1910.78 4789.66 1921.27 4788.7 1931.91C4786.35 1958.02 4770.07 1981.44 4745.78 1993.63L4663.45 2034.97C4660.06 2036.67 4658.08 2040.33 4658.52 2044.1C4659.2 2049.96 4665.23 2053.51 4670.72 2051.4L4710.08 2036.25C4756.86 2018.23 4806.51 2008.98 4856.35 2008.99L4951.71 2009.01C5011.47 2009.02 5047.94 1943.31 5014.08 1896.63L4988.63 1861.55C4981.35 1851.52 4975.38 1840.69 4970.82 1829.31C4966.57 1817.81 4963.73 1805.78 4962.41 1793.45L4957.76 1750.37C4951.58 1693.03 4880.45 1668.75 4836.13 1708.83L4765.41 1772.8C4728.45 1806.22 4685.41 1832.66 4638.63 1850.67L4599.27 1865.82C4593.78 1867.94 4591.69 1874.62 4595.11 1879.42C4597.32 1882.51 4601.24 1883.9 4604.9 1882.88L4693.69 1858.33C4719.88 1851.09 4747.67 1857.55 4766.92 1875.34Z" fill="url(#paint90_radial_369_1730)"/>
<path d="M5026.01 2203.47C5026.01 2203.47 4907.01 2072.26 4833.78 1882.07C4760.56 1691.89 4760.84 1514.75 4760.84 1514.75L4442.31 1637.4L4707.48 2326.11L5026.01 2203.47Z" fill="url(#paint91_linear_369_1730)"/>
</g>
<g clip-path="url(#clip14_369_1730)">
<path d="M4308.8 270.085C4237.07 229.361 4146 252.418 4102.29 322.364C4057.78 393.59 4078.59 487.347 4149.06 533.05L4415.57 705.901C4458.82 733.956 4516.67 721.113 4544 677.391L4619.28 556.918C4647.08 512.419 4632.22 453.718 4586.59 427.81L4308.8 270.085Z" fill="url(#paint92_linear_369_1730)"/>
<path d="M3984.22 787.356C3916.7 741.099 3897.65 649.843 3941.02 580.438C3985.72 508.91 4079.94 487.159 4151.47 531.856L4420.94 700.244C4464.14 727.243 4477.28 784.155 4450.28 827.361L4379.06 941.339C4351.25 985.839 4291.97 998.213 4248.69 968.555L3984.22 787.356Z" fill="url(#paint93_linear_369_1730)"/>
<path fill-rule="evenodd" clip-rule="evenodd" d="M4043.86 878.633C4038.78 866.951 4044.14 853.366 4055.82 848.289C4096.08 830.79 4205.03 758.52 4294.14 615.924C4383.25 473.314 4397.23 348.872 4394 307.987C4393 295.289 4402.48 284.183 4415.18 283.18C4427.87 282.178 4438.98 291.658 4439.98 304.356C4444.08 356.2 4426.99 490.37 4333.25 640.367C4239.51 790.379 4123.55 869.147 4074.21 890.591C4062.52 895.668 4048.94 890.314 4043.86 878.633Z" fill="url(#paint94_linear_369_1730)"/>
<g opacity="0.4">
<path fill-rule="evenodd" clip-rule="evenodd" d="M4415.98 283.13C4403.26 283.688 4393.39 294.455 4393.95 307.18C4395.87 351.038 4378.67 480.643 4289.57 623.239C4200.45 765.849 4094.73 832.959 4056.57 847.98C4044.71 852.644 4038.89 866.034 4043.55 877.886C4048.22 889.738 4061.61 895.565 4073.46 890.9C4121.85 871.854 4234.95 797.679 4328.68 647.682C4422.42 497.67 4442.39 358.91 4440.03 305.162C4439.48 292.437 4428.71 282.573 4415.98 283.13Z" fill="url(#paint95_radial_369_1730)" fill-opacity="0.3"/>
<path fill-rule="evenodd" clip-rule="evenodd" d="M4415.98 283.13C4403.26 283.688 4393.39 294.455 4393.95 307.18C4395.87 351.038 4378.67 480.643 4289.57 623.239C4200.45 765.849 4094.73 832.959 4056.57 847.98C4044.71 852.644 4038.89 866.034 4043.55 877.886C4048.22 889.738 4061.61 895.565 4073.46 890.9C4121.85 871.854 4234.95 797.679 4328.68 647.682C4422.42 497.67 4442.39 358.91 4440.03 305.162C4439.48 292.437 4428.71 282.573 4415.98 283.13Z" fill="url(#paint96_radial_369_1730)" fill-opacity="0.3"/>
</g>
<g opacity="0.4">
<path fill-rule="evenodd" clip-rule="evenodd" d="M4043.86 878.632C4038.78 866.951 4044.14 853.365 4055.82 848.288C4096.08 830.79 4205.03 758.519 4294.14 615.923C4383.25 473.314 4397.23 348.872 4394 307.986C4393 295.288 4402.48 284.182 4415.18 283.18C4427.87 282.177 4438.98 291.658 4439.98 304.355C4444.08 356.199 4426.99 490.369 4333.26 640.366C4239.51 790.378 4123.55 869.146 4074.21 890.591C4062.52 895.668 4048.94 890.314 4043.86 878.632Z" fill="url(#paint97_radial_369_1730)" fill-opacity="0.3"/>
<path fill-rule="evenodd" clip-rule="evenodd" d="M4043.86 878.632C4038.78 866.951 4044.14 853.365 4055.82 848.288C4096.08 830.79 4205.03 758.519 4294.14 615.923C4383.25 473.314 4397.23 348.872 4394 307.986C4393 295.288 4402.48 284.182 4415.18 283.18C4427.87 282.177 4438.98 291.658 4439.98 304.355C4444.08 356.199 4426.99 490.369 4333.26 640.366C4239.51 790.378 4123.55 869.146 4074.21 890.591C4062.52 895.668 4048.94 890.314 4043.86 878.632Z" fill="url(#paint98_radial_369_1730)" fill-opacity="0.3"/>
</g>
<g filter="url(#filter17_d_369_1730)">
<path d="M4153.36 816.007C4123.11 797.108 4113.91 757.269 4132.81 727.025L4155.8 690.246C4174.7 660.001 4214.53 650.804 4244.78 669.704L4281.56 692.686C4311.8 711.586 4321 751.425 4302.1 781.669L4279.12 818.448C4260.22 848.692 4220.38 857.889 4190.13 838.99L4153.36 816.007Z" fill="url(#paint99_linear_369_1730)"/>
<path d="M4153.89 815.159C4124.11 796.553 4115.05 757.331 4133.66 727.555L4156.64 690.776C4175.25 661 4214.47 651.945 4244.25 670.552L4281.03 693.535C4310.8 712.141 4319.86 751.363 4301.25 781.139L4278.27 817.918C4259.66 847.694 4220.44 856.749 4190.66 838.142L4153.89 815.159Z" stroke="url(#paint100_radial_369_1730)" stroke-width="2"/>
</g>
<g filter="url(#filter18_d_369_1730)">
<path d="M4319.57 550.019C4289.32 531.12 4280.13 491.281 4299.03 461.037L4322.01 424.257C4340.91 394.013 4380.75 384.816 4410.99 403.715L4447.77 426.698C4478.02 445.598 4487.21 485.436 4468.31 515.681L4445.33 552.46C4426.43 582.704 4386.59 591.901 4356.35 573.002L4319.57 550.019Z" fill="url(#paint101_linear_369_1730)"/>
<path d="M4320.1 549.171C4290.32 530.564 4281.27 491.342 4299.87 461.566L4322.86 424.787C4341.46 395.011 4380.69 385.957 4410.46 404.563L4447.24 427.546C4477.02 446.153 4486.07 485.375 4467.46 515.151L4444.48 551.93C4425.88 581.706 4386.65 590.76 4356.88 572.154L4320.1 549.171Z" stroke="url(#paint102_radial_369_1730)" stroke-width="2"/>
</g>
</g>
<defs>
<filter id="filter0_f_369_1730" x="1551.08" y="1601.78" width="196.05" height="187.984" filterUnits="userSpaceOnUse" color-interpolation-filters="sRGB">
<feFlood flood-opacity="0" result="BackgroundImageFix"/>
<feBlend mode="normal" in="SourceGraphic" in2="BackgroundImageFix" result="shape"/>
<feGaussianBlur stdDeviation="2" result="effect1_foregroundBlur_369_1730"/>
</filter>
<filter id="filter1_f_369_1730" x="1770.46" y="2039.81" width="125.708" height="120.744" filterUnits="userSpaceOnUse" color-interpolation-filters="sRGB">
<feFlood flood-opacity="0" result="BackgroundImageFix"/>
<feBlend mode="normal" in="SourceGraphic" in2="BackgroundImageFix" result="shape"/>
<feGaussianBlur stdDeviation="2" result="effect1_foregroundBlur_369_1730"/>
</filter>
<filter id="filter2_f_369_1730" x="1096.34" y="156.278" width="404.616" height="354.321" filterUnits="userSpaceOnUse" color-interpolation-filters="sRGB">
<feFlood flood-opacity="0" result="BackgroundImageFix"/>
<feBlend mode="normal" in="SourceGraphic" in2="BackgroundImageFix" result="shape"/>
<feGaussianBlur stdDeviation="0.5" result="effect1_foregroundBlur_369_1730"/>
</filter>
<filter id="filter3_f_369_1730" x="1092.34" y="131.91" width="414.466" height="382.688" filterUnits="userSpaceOnUse" color-interpolation-filters="sRGB">
<feFlood flood-opacity="0" result="BackgroundImageFix"/>
<feBlend mode="normal" in="SourceGraphic" in2="BackgroundImageFix" result="shape"/>
<feGaussianBlur stdDeviation="2.5" result="effect1_foregroundBlur_369_1730"/>
</filter>
<filter id="filter4_f_369_1730" x="1092.34" y="152.851" width="439.365" height="361.749" filterUnits="userSpaceOnUse" color-interpolation-filters="sRGB">
<feFlood flood-opacity="0" result="BackgroundImageFix"/>
<feBlend mode="normal" in="SourceGraphic" in2="BackgroundImageFix" result="shape"/>
<feGaussianBlur stdDeviation="2.5" result="effect1_foregroundBlur_369_1730"/>
</filter>
<filter id="filter5_f_369_1730" x="1953.81" y="2886.84" width="178.245" height="170.844" filterUnits="userSpaceOnUse" color-interpolation-filters="sRGB">
<feFlood flood-opacity="0" result="BackgroundImageFix"/>
<feBlend mode="normal" in="SourceGraphic" in2="BackgroundImageFix" result="shape"/>
<feGaussianBlur stdDeviation="2" result="effect1_foregroundBlur_369_1730"/>
</filter>
<filter id="filter6_d_369_1730" x="2696.27" y="547.345" width="77.4048" height="79.6797" filterUnits="userSpaceOnUse" color-interpolation-filters="sRGB">
<feFlood flood-opacity="0" result="BackgroundImageFix"/>
<feColorMatrix in="SourceAlpha" type="matrix" values="0 0 0 0 0 0 0 0 0 0 0 0 0 0 0 0 0 0 127 0" result="hardAlpha"/>
<feOffset dx="1" dy="2"/>
<feGaussianBlur stdDeviation="2"/>
<feComposite in2="hardAlpha" operator="out"/>
<feColorMatrix type="matrix" values="0 0 0 0 0.0684722 0 0 0 0 0.0823278 0 0 0 0 0.414861 0 0 0 0.15 0"/>
<feBlend mode="normal" in2="BackgroundImageFix" result="effect1_dropShadow_369_1730"/>
<feBlend mode="normal" in="SourceGraphic" in2="effect1_dropShadow_369_1730" result="shape"/>
</filter>
<filter id="filter7_d_369_1730" x="796.213" y="4173.86" width="123.676" height="131.043" filterUnits="userSpaceOnUse" color-interpolation-filters="sRGB">
<feFlood flood-opacity="0" result="BackgroundImageFix"/>
<feColorMatrix in="SourceAlpha" type="matrix" values="0 0 0 0 0 0 0 0 0 0 0 0 0 0 0 0 0 0 127 0" result="hardAlpha"/>
<feOffset dy="4"/>
<feGaussianBlur stdDeviation="4"/>
<feComposite in2="hardAlpha" operator="out"/>
<feColorMatrix type="matrix" values="0 0 0 0 0.148194 0 0 0 0 0.235583 0 0 0 0 0.585139 0 0 0 0.13 0"/>
<feBlend mode="normal" in2="BackgroundImageFix" result="effect1_dropShadow_369_1730"/>
<feBlend mode="normal" in="SourceGraphic" in2="effect1_dropShadow_369_1730" result="shape"/>
</filter>
<filter id="filter8_d_369_1730" x="794.208" y="4143.16" width="86.4316" height="75.3809" filterUnits="userSpaceOnUse" color-interpolation-filters="sRGB">
<feFlood flood-opacity="0" result="BackgroundImageFix"/>
<feColorMatrix in="SourceAlpha" type="matrix" values="0 0 0 0 0 0 0 0 0 0 0 0 0 0 0 0 0 0 127 0" result="hardAlpha"/>
<feOffset dy="4"/>
<feGaussianBlur stdDeviation="4"/>
<feComposite in2="hardAlpha" operator="out"/>
<feColorMatrix type="matrix" values="0 0 0 0 0.148194 0 0 0 0 0.235583 0 0 0 0 0.585139 0 0 0 0.13 0"/>
<feBlend mode="normal" in2="BackgroundImageFix" result="effect1_dropShadow_369_1730"/>
<feBlend mode="normal" in="SourceGraphic" in2="effect1_dropShadow_369_1730" result="shape"/>
</filter>
<filter id="filter9_d_369_1730" x="875.203" y="4187.32" width="86.4316" height="75.3809" filterUnits="userSpaceOnUse" color-interpolation-filters="sRGB">
<feFlood flood-opacity="0" result="BackgroundImageFix"/>
<feColorMatrix in="SourceAlpha" type="matrix" values="0 0 0 0 0 0 0 0 0 0 0 0 0 0 0 0 0 0 127 0" result="hardAlpha"/>
<feOffset dy="4"/>
<feGaussianBlur stdDeviation="4"/>
<feComposite in2="hardAlpha" operator="out"/>
<feColorMatrix type="matrix" values="0 0 0 0 0.148194 0 0 0 0 0.235583 0 0 0 0 0.585139 0 0 0 0.13 0"/>
<feBlend mode="normal" in2="BackgroundImageFix" result="effect1_dropShadow_369_1730"/>
<feBlend mode="normal" in="SourceGraphic" in2="effect1_dropShadow_369_1730" result="shape"/>
</filter>
<filter id="filter10_d_369_1730" x="835.461" y="4260.21" width="86.4316" height="75.3809" filterUnits="userSpaceOnUse" color-interpolation-filters="sRGB">
<feFlood flood-opacity="0" result="BackgroundImageFix"/>
<feColorMatrix in="SourceAlpha" type="matrix" values="0 0 0 0 0 0 0 0 0 0 0 0 0 0 0 0 0 0 127 0" result="hardAlpha"/>
<feOffset dy="4"/>
<feGaussianBlur stdDeviation="4"/>
<feComposite in2="hardAlpha" operator="out"/>
<feColorMatrix type="matrix" values="0 0 0 0 0.148194 0 0 0 0 0.235583 0 0 0 0 0.585139 0 0 0 0.13 0"/>
<feBlend mode="normal" in2="BackgroundImageFix" result="effect1_dropShadow_369_1730"/>
<feBlend mode="normal" in="SourceGraphic" in2="effect1_dropShadow_369_1730" result="shape"/>
</filter>
<filter id="filter11_d_369_1730" x="754.466" y="4216.06" width="86.4316" height="75.3809" filterUnits="userSpaceOnUse" color-interpolation-filters="sRGB">
<feFlood flood-opacity="0" result="BackgroundImageFix"/>
<feColorMatrix in="SourceAlpha" type="matrix" values="0 0 0 0 0 0 0 0 0 0 0 0 0 0 0 0 0 0 127 0" result="hardAlpha"/>
<feOffset dy="4"/>
<feGaussianBlur stdDeviation="4"/>
<feComposite in2="hardAlpha" operator="out"/>
<feColorMatrix type="matrix" values="0 0 0 0 0.148194 0 0 0 0 0.235583 0 0 0 0 0.585139 0 0 0 0.13 0"/>
<feBlend mode="normal" in2="BackgroundImageFix" result="effect1_dropShadow_369_1730"/>
<feBlend mode="normal" in="SourceGraphic" in2="effect1_dropShadow_369_1730" result="shape"/>
</filter>
<filter id="filter12_d_369_1730" x="934.619" y="3886.75" width="147.132" height="154.5" filterUnits="userSpaceOnUse" color-interpolation-filters="sRGB">
<feFlood flood-opacity="0" result="BackgroundImageFix"/>
<feColorMatrix in="SourceAlpha" type="matrix" values="0 0 0 0 0 0 0 0 0 0 0 0 0 0 0 0 0 0 127 0" result="hardAlpha"/>
<feOffset dy="4"/>
<feGaussianBlur stdDeviation="4"/>
<feComposite in2="hardAlpha" operator="out"/>
<feColorMatrix type="matrix" values="0 0 0 0 0.148194 0 0 0 0 0.235583 0 0 0 0 0.585139 0 0 0 0.13 0"/>
<feBlend mode="normal" in2="BackgroundImageFix" result="effect1_dropShadow_369_1730"/>
<feBlend mode="normal" in="SourceGraphic" in2="effect1_dropShadow_369_1730" result="shape"/>
</filter>
<filter id="filter13_d_369_1730" x="944.343" y="3867.78" width="86.4316" height="75.3809" filterUnits="userSpaceOnUse" color-interpolation-filters="sRGB">
<feFlood flood-opacity="0" result="BackgroundImageFix"/>
<feColorMatrix in="SourceAlpha" type="matrix" values="0 0 0 0 0 0 0 0 0 0 0 0 0 0 0 0 0 0 127 0" result="hardAlpha"/>
<feOffset dy="4"/>
<feGaussianBlur stdDeviation="4"/>
<feComposite in2="hardAlpha" operator="out"/>
<feColorMatrix type="matrix" values="0 0 0 0 0.148194 0 0 0 0 0.235583 0 0 0 0 0.585139 0 0 0 0.13 0"/>
<feBlend mode="normal" in2="BackgroundImageFix" result="effect1_dropShadow_369_1730"/>
<feBlend mode="normal" in="SourceGraphic" in2="effect1_dropShadow_369_1730" result="shape"/>
</filter>
<filter id="filter14_d_369_1730" x="1025.34" y="3911.94" width="86.4316" height="75.3809" filterUnits="userSpaceOnUse" color-interpolation-filters="sRGB">
<feFlood flood-opacity="0" result="BackgroundImageFix"/>
<feColorMatrix in="SourceAlpha" type="matrix" values="0 0 0 0 0 0 0 0 0 0 0 0 0 0 0 0 0 0 127 0" result="hardAlpha"/>
<feOffset dy="4"/>
<feGaussianBlur stdDeviation="4"/>
<feComposite in2="hardAlpha" operator="out"/>
<feColorMatrix type="matrix" values="0 0 0 0 0.148194 0 0 0 0 0.235583 0 0 0 0 0.585139 0 0 0 0.13 0"/>
<feBlend mode="normal" in2="BackgroundImageFix" result="effect1_dropShadow_369_1730"/>
<feBlend mode="normal" in="SourceGraphic" in2="effect1_dropShadow_369_1730" result="shape"/>
</filter>
<filter id="filter15_d_369_1730" x="985.596" y="3984.83" width="86.4316" height="75.3809" filterUnits="userSpaceOnUse" color-interpolation-filters="sRGB">
<feFlood flood-opacity="0" result="BackgroundImageFix"/>
<feColorMatrix in="SourceAlpha" type="matrix" values="0 0 0 0 0 0 0 0 0 0 0 0 0 0 0 0 0 0 127 0" result="hardAlpha"/>
<feOffset dy="4"/>
<feGaussianBlur stdDeviation="4"/>
<feComposite in2="hardAlpha" operator="out"/>
<feColorMatrix type="matrix" values="0 0 0 0 0.148194 0 0 0 0 0.235583 0 0 0 0 0.585139 0 0 0 0.13 0"/>
<feBlend mode="normal" in2="BackgroundImageFix" result="effect1_dropShadow_369_1730"/>
<feBlend mode="normal" in="SourceGraphic" in2="effect1_dropShadow_369_1730" result="shape"/>
</filter>
<filter id="filter16_d_369_1730" x="904.602" y="3940.67" width="86.4316" height="75.3809" filterUnits="userSpaceOnUse" color-interpolation-filters="sRGB">
<feFlood flood-opacity="0" result="BackgroundImageFix"/>
<feColorMatrix in="SourceAlpha" type="matrix" values="0 0 0 0 0 0 0 0 0 0 0 0 0 0 0 0 0 0 127 0" result="hardAlpha"/>
<feOffset dy="4"/>
<feGaussianBlur stdDeviation="4"/>
<feComposite in2="hardAlpha" operator="out"/>
<feColorMatrix type="matrix" values="0 0 0 0 0.148194 0 0 0 0 0.235583 0 0 0 0 0.585139 0 0 0 0.13 0"/>
<feBlend mode="normal" in2="BackgroundImageFix" result="effect1_dropShadow_369_1730"/>
<feBlend mode="normal" in="SourceGraphic" in2="effect1_dropShadow_369_1730" result="shape"/>
</filter>
<filter id="filter17_d_369_1730" x="4114.99" y="655.883" width="204.929" height="204.929" filterUnits="userSpaceOnUse" color-interpolation-filters="sRGB">
<feFlood flood-opacity="0" result="BackgroundImageFix"/>
<feColorMatrix in="SourceAlpha" type="matrix" values="0 0 0 0 0 0 0 0 0 0 0 0 0 0 0 0 0 0 127 0" result="hardAlpha"/>
<feOffset dy="4"/>
<feGaussianBlur stdDeviation="4"/>
<feComposite in2="hardAlpha" operator="out"/>
<feColorMatrix type="matrix" values="0 0 0 0 0.148194 0 0 0 0 0.235583 0 0 0 0 0.585139 0 0 0 0.13 0"/>
<feBlend mode="normal" in2="BackgroundImageFix" result="effect1_dropShadow_369_1730"/>
<feBlend mode="normal" in="SourceGraphic" in2="effect1_dropShadow_369_1730" result="shape"/>
</filter>
<filter id="filter18_d_369_1730" x="4281.21" y="389.895" width="204.929" height="204.929" filterUnits="userSpaceOnUse" color-interpolation-filters="sRGB">
<feFlood flood-opacity="0" result="BackgroundImageFix"/>
<feColorMatrix in="SourceAlpha" type="matrix" values="0 0 0 0 0 0 0 0 0 0 0 0 0 0 0 0 0 0 127 0" result="hardAlpha"/>
<feOffset dy="4"/>
<feGaussianBlur stdDeviation="4"/>
<feComposite in2="hardAlpha" operator="out"/>
<feColorMatrix type="matrix" values="0 0 0 0 0.148194 0 0 0 0 0.235583 0 0 0 0 0.585139 0 0 0 0.13 0"/>
<feBlend mode="normal" in2="BackgroundImageFix" result="effect1_dropShadow_369_1730"/>
<feBlend mode="normal" in="SourceGraphic" in2="effect1_dropShadow_369_1730" result="shape"/>
</filter>
<linearGradient id="paint0_linear_369_1730" x1="3439.14" y1="3092.8" x2="3973.76" y2="2620.47" gradientUnits="userSpaceOnUse">
<stop stop-color="#F0F6F9"/>
<stop offset="1" stop-color="#CDDFF2"/>
</linearGradient>
<linearGradient id="paint1_linear_369_1730" x1="5066.29" y1="3374.1" x2="5229.43" y2="3694.76" gradientUnits="userSpaceOnUse">
<stop stop-color="#F7A6A5"/>
<stop offset="1" stop-color="#F7A6A5"/>
</linearGradient>
<linearGradient id="paint2_linear_369_1730" x1="5109.02" y1="3493.69" x2="5109.02" y2="3664.9" gradientUnits="userSpaceOnUse">
<stop stop-color="#E78180"/>
<stop offset="1" stop-color="#E78180" stop-opacity="0"/>
</linearGradient>
<linearGradient id="paint3_linear_369_1730" x1="4999.73" y1="3425.6" x2="4999.73" y2="3521.7" gradientUnits="userSpaceOnUse">
<stop stop-color="#E78180"/>
<stop offset="1" stop-color="#E78180" stop-opacity="0"/>
</linearGradient>
<linearGradient id="paint4_linear_369_1730" x1="146.89" y1="0" x2="146.89" y2="75.5858" gradientUnits="userSpaceOnUse">
<stop stop-color="#E78180"/>
<stop offset="1" stop-color="#E78180" stop-opacity="0"/>
</linearGradient>
<linearGradient id="paint5_linear_369_1730" x1="4791.98" y1="3223.85" x2="5276.96" y2="3545.18" gradientUnits="userSpaceOnUse">
<stop stop-color="#F0F6F9"/>
<stop offset="1" stop-color="#CDDFF2"/>
</linearGradient>
<linearGradient id="paint6_linear_369_1730" x1="1709.8" y1="1562.23" x2="1687.86" y2="2275.28" gradientUnits="userSpaceOnUse">
<stop stop-color="#F0F6F9"/>
<stop offset="1" stop-color="#CDDFF2"/>
</linearGradient>
<linearGradient id="paint7_linear_369_1730" x1="1701.04" y1="1610.93" x2="1597.4" y2="1780.58" gradientUnits="userSpaceOnUse">
<stop stop-color="white"/>
<stop offset="1" stop-color="white"/>
</linearGradient>
<linearGradient id="paint8_linear_369_1730" x1="1701.04" y1="1610.93" x2="1597.4" y2="1780.58" gradientUnits="userSpaceOnUse">
<stop stop-color="white"/>
<stop offset="1" stop-color="white"/>
</linearGradient>
<linearGradient id="paint9_linear_369_1730" x1="1866.01" y1="2046.84" x2="1800.85" y2="2153.5" gradientUnits="userSpaceOnUse">
<stop stop-color="white"/>
<stop offset="1" stop-color="white"/>
</linearGradient>
<linearGradient id="paint10_linear_369_1730" x1="1866.01" y1="2046.84" x2="1800.85" y2="2153.5" gradientUnits="userSpaceOnUse">
<stop stop-color="white"/>
<stop offset="1" stop-color="white"/>
</linearGradient>
<linearGradient id="paint11_linear_369_1730" x1="902.126" y1="157.017" x2="1392.31" y2="548.461" gradientUnits="userSpaceOnUse">
<stop stop-color="#F6F1E8"/>
<stop offset="1" stop-color="#D8B682"/>
</linearGradient>
<linearGradient id="paint12_linear_369_1730" x1="1038.39" y1="274.079" x2="1607.16" y2="709.445" gradientUnits="userSpaceOnUse">
<stop stop-color="#F1F7FA"/>
<stop offset="1" stop-color="#CFE0F3"/>
</linearGradient>
<linearGradient id="paint13_linear_369_1730" x1="1170.31" y1="498.224" x2="1386.12" y2="962.323" gradientUnits="userSpaceOnUse">
<stop stop-color="#F0F6FA"/>
<stop offset="1" stop-color="#CEE0F3"/>
</linearGradient>
<linearGradient id="paint14_linear_369_1730" x1="1369.42" y1="291.203" x2="1495.56" y2="471.3" gradientUnits="userSpaceOnUse">
<stop stop-color="#134980"/>
<stop offset="1" stop-color="#236BB4" stop-opacity="0"/>
</linearGradient>
<linearGradient id="paint15_linear_369_1730" x1="1369.42" y1="291.202" x2="1495.56" y2="471.299" gradientUnits="userSpaceOnUse">
<stop stop-color="#134980"/>
<stop offset="1" stop-color="#236BB4" stop-opacity="0"/>
</linearGradient>
<linearGradient id="paint16_linear_369_1730" x1="1369.42" y1="291.203" x2="1495.56" y2="471.3" gradientUnits="userSpaceOnUse">
<stop stop-color="#134980"/>
<stop offset="1" stop-color="#236BB4" stop-opacity="0"/>
</linearGradient>
<linearGradient id="paint17_linear_369_1730" x1="1389.99" y1="414.653" x2="1305.26" y2="324.434" gradientUnits="userSpaceOnUse">
<stop stop-color="#F4F8FB"/>
<stop offset="0.651561" stop-color="white"/>
<stop offset="1" stop-color="#F9F6F2"/>
</linearGradient>
<linearGradient id="paint18_linear_369_1730" x1="4269.92" y1="4829.56" x2="4337.72" y2="4955.46" gradientUnits="userSpaceOnUse">
<stop stop-color="#AAC8E3"/>
<stop offset="1" stop-color="#C8DBED"/>
</linearGradient>
<linearGradient id="paint19_linear_369_1730" x1="4147.27" y1="4961.74" x2="4191.94" y2="4937.68" gradientUnits="userSpaceOnUse">
<stop stop-color="#F1F7FA"/>
<stop offset="1" stop-color="#F0F7FA" stop-opacity="0"/>
</linearGradient>
<linearGradient id="paint20_linear_369_1730" x1="4269.92" y1="4829.56" x2="4289.6" y2="4866.11" gradientUnits="userSpaceOnUse">
<stop stop-color="#065099"/>
<stop offset="1" stop-color="#065099" stop-opacity="0"/>
</linearGradient>
<linearGradient id="paint21_linear_369_1730" x1="4250.24" y1="4793.02" x2="4298.35" y2="4882.36" gradientUnits="userSpaceOnUse">
<stop stop-color="#23578B"/>
<stop offset="1" stop-color="#23578B" stop-opacity="0"/>
</linearGradient>
<linearGradient id="paint22_linear_369_1730" x1="4113.1" y1="4898.3" x2="4460.19" y2="5182.87" gradientUnits="userSpaceOnUse">
<stop stop-color="#E8F2F8"/>
<stop offset="1" stop-color="#CDDFF2"/>
</linearGradient>
<radialGradient id="paint23_radial_369_1730" cx="0" cy="0" r="1" gradientUnits="userSpaceOnUse" gradientTransform="translate(4253.68 4906.42) rotate(42.7252) scale(156.077 194.919)">
<stop stop-color="white"/>
<stop offset="1" stop-color="#EDF5F8" stop-opacity="0"/>
</radialGradient>
<linearGradient id="paint24_linear_369_1730" x1="4022.81" y1="4779.28" x2="4523.9" y2="4834.23" gradientUnits="userSpaceOnUse">
<stop stop-color="#F0F6F9"/>
<stop offset="1" stop-color="#CDDFF2"/>
</linearGradient>
<linearGradient id="paint25_linear_369_1730" x1="2303.52" y1="2990.75" x2="2370.54" y2="3117.06" gradientUnits="userSpaceOnUse">
<stop stop-color="#AAC8E3"/>
<stop offset="1" stop-color="#C8DBED"/>
</linearGradient>
<linearGradient id="paint26_linear_369_1730" x1="2180.05" y1="3122.16" x2="2224.87" y2="3098.38" gradientUnits="userSpaceOnUse">
<stop stop-color="#F1F7FA"/>
<stop offset="1" stop-color="#F0F7FA" stop-opacity="0"/>
</linearGradient>
<linearGradient id="paint27_linear_369_1730" x1="2303.52" y1="2990.75" x2="2322.98" y2="3027.42" gradientUnits="userSpaceOnUse">
<stop stop-color="#065099"/>
<stop offset="1" stop-color="#065099" stop-opacity="0"/>
</linearGradient>
<linearGradient id="paint28_linear_369_1730" x1="2284.06" y1="2954.08" x2="2331.63" y2="3043.72" gradientUnits="userSpaceOnUse">
<stop stop-color="#23578B"/>
<stop offset="1" stop-color="#23578B" stop-opacity="0"/>
</linearGradient>
<linearGradient id="paint29_linear_369_1730" x1="2299.2" y1="2982.6" x2="2348.92" y2="3076.31" gradientUnits="userSpaceOnUse">
<stop stop-color="#E8C200"/>
<stop offset="1" stop-color="#FFE457" stop-opacity="0"/>
</linearGradient>
<linearGradient id="paint30_linear_369_1730" x1="2146.28" y1="3058.51" x2="2491.6" y2="3345.23" gradientUnits="userSpaceOnUse">
<stop stop-color="#E8F2F8"/>
<stop offset="1" stop-color="#CDDFF2"/>
</linearGradient>
<radialGradient id="paint31_radial_369_1730" cx="0" cy="0" r="1" gradientUnits="userSpaceOnUse" gradientTransform="translate(2286.81 3067.5) rotate(43.0801) scale(156.077 194.919)">
<stop stop-color="white"/>
<stop offset="1" stop-color="#EDF5F8" stop-opacity="0"/>
</radialGradient>
<linearGradient id="paint32_linear_369_1730" x1="2056.73" y1="2938.94" x2="2707.47" y2="2980.23" gradientUnits="userSpaceOnUse">
<stop stop-color="#F9EE93"/>
<stop offset="1" stop-color="#E4BB29"/>
</linearGradient>
<linearGradient id="paint33_linear_369_1730" x1="2002.01" y1="2894.86" x2="2084.16" y2="3049.7" gradientUnits="userSpaceOnUse">
<stop stop-color="white"/>
<stop offset="1" stop-color="white"/>
</linearGradient>
<linearGradient id="paint34_linear_369_1730" x1="2002.01" y1="2894.86" x2="2084.16" y2="3049.7" gradientUnits="userSpaceOnUse">
<stop stop-color="white"/>
<stop offset="1" stop-color="white"/>
</linearGradient>
<linearGradient id="paint35_linear_369_1730" x1="497.708" y1="1468.39" x2="601.353" y2="1378.39" gradientUnits="userSpaceOnUse">
<stop stop-color="#AAC8E3"/>
<stop offset="1" stop-color="#C8DBED"/>
</linearGradient>
<linearGradient id="paint36_linear_369_1730" x1="641.147" y1="1548.34" x2="611.049" y2="1513.68" gradientUnits="userSpaceOnUse">
<stop stop-color="#F1F7FA"/>
<stop offset="1" stop-color="#F0F7FA" stop-opacity="0"/>
</linearGradient>
<linearGradient id="paint37_linear_369_1730" x1="497.708" y1="1468.39" x2="527.798" y2="1442.26" gradientUnits="userSpaceOnUse">
<stop stop-color="#065099"/>
<stop offset="1" stop-color="#065099" stop-opacity="0"/>
</linearGradient>
<linearGradient id="paint38_linear_369_1730" x1="590.599" y1="1594.66" x2="775.407" y2="1223.33" gradientUnits="userSpaceOnUse">
<stop stop-color="#E8F2F8"/>
<stop offset="1" stop-color="#CDDFF2"/>
</linearGradient>
<radialGradient id="paint39_radial_369_1730" cx="0" cy="0" r="1" gradientUnits="userSpaceOnUse" gradientTransform="translate(570.191 1466.97) rotate(-59.7479) scale(144.295 178.649)">
<stop stop-color="white"/>
<stop offset="1" stop-color="#EDF5F8" stop-opacity="0"/>
</radialGradient>
<linearGradient id="paint40_linear_369_1730" x1="410.386" y1="1776.74" x2="353.126" y2="1319.5" gradientUnits="userSpaceOnUse">
<stop stop-color="#F0F6F9"/>
<stop offset="1" stop-color="#CDDFF2"/>
</linearGradient>
<linearGradient id="paint41_linear_369_1730" x1="2261.28" y1="3699.97" x2="2256.86" y2="4407.63" gradientUnits="userSpaceOnUse">
<stop stop-color="#F0F6F9"/>
<stop offset="1" stop-color="#CDDFF2"/>
</linearGradient>
<linearGradient id="paint42_linear_369_1730" x1="2280.47" y1="4097.64" x2="2294.09" y2="4073.55" gradientUnits="userSpaceOnUse">
<stop offset="0.241809" stop-color="#065099"/>
<stop offset="1" stop-color="#DFEBF6" stop-opacity="0.47"/>
</linearGradient>
<linearGradient id="paint43_linear_369_1730" x1="2291.29" y1="4087.86" x2="2309.46" y2="4055.74" gradientUnits="userSpaceOnUse">
<stop stop-color="#065099"/>
<stop offset="1" stop-color="#065099" stop-opacity="0"/>
</linearGradient>
<linearGradient id="paint44_linear_369_1730" x1="2321.08" y1="4372.54" x2="2053.73" y2="4077.76" gradientUnits="userSpaceOnUse">
<stop stop-color="#BCC1D6"/>
<stop offset="1" stop-color="#E9ECFA"/>
</linearGradient>
<linearGradient id="paint45_linear_369_1730" x1="2211.27" y1="4042.61" x2="2321.79" y2="4131.67" gradientUnits="userSpaceOnUse">
<stop stop-color="#F0F3FF"/>
<stop offset="1" stop-color="#E1E5F5"/>
</linearGradient>
<linearGradient id="paint46_linear_369_1730" x1="2149.7" y1="4251.55" x2="2186.02" y2="4286.85" gradientUnits="userSpaceOnUse">
<stop stop-color="#F1F4FF"/>
<stop offset="1" stop-color="#D5DAF0"/>
</linearGradient>
<linearGradient id="paint47_linear_369_1730" x1="2191.41" y1="4200.95" x2="2234.68" y2="4244.97" gradientUnits="userSpaceOnUse">
<stop stop-color="#F1F4FF"/>
<stop offset="1" stop-color="#D5DAF0"/>
</linearGradient>
<linearGradient id="paint48_linear_369_1730" x1="2222.32" y1="4144.24" x2="2271.73" y2="4197.63" gradientUnits="userSpaceOnUse">
<stop stop-color="#F1F4FF"/>
<stop offset="1" stop-color="#D5DAF0"/>
</linearGradient>
<linearGradient id="paint49_linear_369_1730" x1="3302.91" y1="3712.66" x2="3848.59" y2="4172.17" gradientUnits="userSpaceOnUse">
<stop stop-color="#F0F6F9"/>
<stop offset="1" stop-color="#CDDFF2"/>
</linearGradient>
<linearGradient id="paint50_linear_369_1730" x1="3302.91" y1="3712.66" x2="3848.59" y2="4172.17" gradientUnits="userSpaceOnUse">
<stop stop-color="#F0F6F9"/>
<stop offset="1" stop-color="#CDDFF2"/>
</linearGradient>
<linearGradient id="paint51_linear_369_1730" x1="3610.4" y1="3553.69" x2="3653.25" y2="3955.48" gradientUnits="userSpaceOnUse">
<stop stop-color="#E6F0F8"/>
<stop offset="1" stop-color="#6F93BA"/>
</linearGradient>
<linearGradient id="paint52_linear_369_1730" x1="2996.42" y1="595.187" x2="2327.39" y2="653.706" gradientUnits="userSpaceOnUse">
<stop stop-color="#DFE3F3"/>
<stop offset="1" stop-color="#CCD0E3"/>
</linearGradient>
<linearGradient id="paint53_linear_369_1730" x1="2996.42" y1="595.187" x2="2327.39" y2="653.706" gradientUnits="userSpaceOnUse">
<stop stop-color="#DFE3F3"/>
<stop offset="1" stop-color="#CCD0E3"/>
</linearGradient>
<linearGradient id="paint54_linear_369_1730" x1="2703.74" y1="756" x2="2812.46" y2="756" gradientUnits="userSpaceOnUse">
<stop stop-color="#9099C4"/>
<stop offset="1" stop-color="#9099C4" stop-opacity="0"/>
</linearGradient>
<linearGradient id="paint55_linear_369_1730" x1="2704.25" y1="765.894" x2="2740.49" y2="765.894" gradientUnits="userSpaceOnUse">
<stop stop-color="#9099C4"/>
<stop offset="1" stop-color="#9099C4" stop-opacity="0"/>
</linearGradient>
<linearGradient id="paint56_linear_369_1730" x1="2755.09" y1="545.856" x2="2791.33" y2="545.856" gradientUnits="userSpaceOnUse">
<stop stop-color="#9099C4"/>
<stop offset="1" stop-color="#9099C4" stop-opacity="0"/>
</linearGradient>
<linearGradient id="paint57_linear_369_1730" x1="2898.04" y1="815.578" x2="2514.79" y2="265.894" gradientUnits="userSpaceOnUse">
<stop stop-color="#E9ECF7"/>
<stop offset="1" stop-color="#CCD0E3"/>
</linearGradient>
<linearGradient id="paint58_linear_369_1730" x1="2898.04" y1="815.578" x2="2514.79" y2="265.894" gradientUnits="userSpaceOnUse">
<stop stop-color="#E9ECF7"/>
<stop offset="1" stop-color="#CCD0E3"/>
</linearGradient>
<linearGradient id="paint59_linear_369_1730" x1="2873.99" y1="533.392" x2="2754.39" y2="569.294" gradientUnits="userSpaceOnUse">
<stop stop-color="white"/>
<stop offset="1" stop-color="white" stop-opacity="0"/>
</linearGradient>
<linearGradient id="paint60_linear_369_1730" x1="2760.74" y1="601.541" x2="2705.21" y2="567.937" gradientUnits="userSpaceOnUse">
<stop stop-color="#F7F7FB"/>
<stop offset="1" stop-color="#DEE1F0"/>
</linearGradient>
<linearGradient id="paint61_linear_369_1730" x1="2900.91" y1="681.132" x2="2719.54" y2="576.529" gradientUnits="userSpaceOnUse">
<stop stop-color="#C5CAE2"/>
<stop offset="1" stop-color="#D1D5E7"/>
</linearGradient>
<linearGradient id="paint62_linear_369_1730" x1="3282.77" y1="1311.97" x2="3213.41" y2="2021.97" gradientUnits="userSpaceOnUse">
<stop stop-color="#F0F6F9"/>
<stop offset="1" stop-color="#CDDFF2"/>
</linearGradient>
<linearGradient id="paint63_linear_369_1730" x1="3629.45" y1="1534.29" x2="3221.51" y2="1760.01" gradientUnits="userSpaceOnUse">
<stop stop-color="#E0EDF6"/>
<stop offset="1" stop-color="#A5CAE8"/>
</linearGradient>
<linearGradient id="paint64_linear_369_1730" x1="3036.91" y1="1629.61" x2="3131.13" y2="1600.16" gradientUnits="userSpaceOnUse">
<stop stop-color="#043A70"/>
<stop offset="1" stop-color="#065099" stop-opacity="0"/>
</linearGradient>
<linearGradient id="paint65_linear_369_1730" x1="3284.38" y1="1990.78" x2="3332.94" y2="1946.03" gradientUnits="userSpaceOnUse">
<stop stop-color="#002C57"/>
<stop offset="1" stop-color="#065099" stop-opacity="0"/>
</linearGradient>
<radialGradient id="paint66_radial_369_1730" cx="0" cy="0" r="1" gradientUnits="userSpaceOnUse" gradientTransform="translate(3250.27 1723.42) rotate(-35.528) scale(268.9 238.023)">
<stop stop-color="#F8BAB9"/>
<stop offset="1" stop-color="#C9706F"/>
</radialGradient>
<linearGradient id="paint67_linear_369_1730" x1="824.401" y1="4043.24" x2="844.45" y2="4044.58" gradientUnits="userSpaceOnUse">
<stop stop-color="#E2E6F3"/>
<stop offset="1" stop-color="#D5DAF0"/>
</linearGradient>
<linearGradient id="paint68_linear_369_1730" x1="881.805" y1="3937.94" x2="901.855" y2="3939.29" gradientUnits="userSpaceOnUse">
<stop stop-color="#E2E6F3"/>
<stop offset="1" stop-color="#D5DAF0"/>
</linearGradient>
<linearGradient id="paint69_linear_369_1730" x1="795.06" y1="4032.93" x2="1056.44" y2="3941.98" gradientUnits="userSpaceOnUse">
<stop stop-color="#F0F6F9"/>
<stop offset="1" stop-color="#CDDFF2"/>
</linearGradient>
<linearGradient id="paint70_linear_369_1730" x1="611.795" y1="4311.26" x2="1004.89" y2="4222.22" gradientUnits="userSpaceOnUse">
<stop stop-color="#F0F6F9"/>
<stop offset="1" stop-color="#CDDFF2"/>
</linearGradient>
<linearGradient id="paint71_linear_369_1730" x1="868.321" y1="4062.36" x2="971.406" y2="4123.82" gradientUnits="userSpaceOnUse">
<stop stop-color="#E3E7F6"/>
<stop offset="1" stop-color="#C7CCDF"/>
</linearGradient>
<radialGradient id="paint72_radial_369_1730" cx="0" cy="0" r="1" gradientUnits="userSpaceOnUse" gradientTransform="translate(1003.77 3968.1) rotate(116.477) scale(124.623 685.418)">
<stop stop-color="#ADB6DA"/>
<stop offset="1" stop-color="#626D97" stop-opacity="0"/>
</radialGradient>
<radialGradient id="paint73_radial_369_1730" cx="0" cy="0" r="1" gradientUnits="userSpaceOnUse" gradientTransform="translate(1003.77 3968.1) rotate(116.477) scale(124.623 685.418)">
<stop stop-color="#ADB6DA"/>
<stop offset="1" stop-color="#626D97" stop-opacity="0"/>
</radialGradient>
<linearGradient id="paint74_linear_369_1730" x1="812.122" y1="4222.73" x2="911.825" y2="4243.07" gradientUnits="userSpaceOnUse">
<stop stop-color="#F2F5FF"/>
<stop offset="1" stop-color="#D6DBF1"/>
</linearGradient>
<radialGradient id="paint75_radial_369_1730" cx="0" cy="0" r="1" gradientUnits="userSpaceOnUse" gradientTransform="translate(778.487 4150.45) rotate(70.1303) scale(138.379 143.749)">
<stop stop-color="white"/>
<stop offset="1" stop-color="white" stop-opacity="0"/>
</radialGradient>
<linearGradient id="paint76_linear_369_1730" x1="802.676" y1="4163.07" x2="875.994" y2="4160.61" gradientUnits="userSpaceOnUse">
<stop stop-color="#F2F5FF"/>
<stop offset="0.151042" stop-color="#F8F9FE"/>
<stop offset="1" stop-color="#D6DBF1"/>
</linearGradient>
<linearGradient id="paint77_linear_369_1730" x1="883.671" y1="4207.23" x2="956.989" y2="4204.77" gradientUnits="userSpaceOnUse">
<stop stop-color="#F2F5FF"/>
<stop offset="0.151042" stop-color="#F8F9FE"/>
<stop offset="1" stop-color="#D6DBF1"/>
</linearGradient>
<linearGradient id="paint78_linear_369_1730" x1="843.929" y1="4280.12" x2="917.247" y2="4277.67" gradientUnits="userSpaceOnUse">
<stop stop-color="#F2F5FF"/>
<stop offset="0.151042" stop-color="#F8F9FE"/>
<stop offset="1" stop-color="#D6DBF1"/>
</linearGradient>
<linearGradient id="paint79_linear_369_1730" x1="762.934" y1="4235.97" x2="836.252" y2="4233.51" gradientUnits="userSpaceOnUse">
<stop stop-color="#F2F5FF"/>
<stop offset="0.151042" stop-color="#F8F9FE"/>
<stop offset="1" stop-color="#D6DBF1"/>
</linearGradient>
<linearGradient id="paint80_linear_369_1730" x1="985.666" y1="3986.26" x2="1015.53" y2="4083.53" gradientUnits="userSpaceOnUse">
<stop stop-color="#F2F5FF"/>
<stop offset="1" stop-color="#D6DBF1"/>
</linearGradient>
<radialGradient id="paint81_radial_369_1730" cx="0" cy="0" r="1" gradientUnits="userSpaceOnUse" gradientTransform="translate(1033.02 3922.13) rotate(131.532) scale(138.379 143.749)">
<stop stop-color="white"/>
<stop offset="1" stop-color="white" stop-opacity="0"/>
</radialGradient>
<linearGradient id="paint82_linear_369_1730" x1="952.811" y1="3887.69" x2="1026.13" y2="3885.23" gradientUnits="userSpaceOnUse">
<stop stop-color="#F2F5FF"/>
<stop offset="0.151042" stop-color="#F8F9FE"/>
<stop offset="1" stop-color="#D6DBF1"/>
</linearGradient>
<linearGradient id="paint83_linear_369_1730" x1="1033.81" y1="3931.84" x2="1107.12" y2="3929.39" gradientUnits="userSpaceOnUse">
<stop stop-color="#F2F5FF"/>
<stop offset="0.151042" stop-color="#F8F9FE"/>
<stop offset="1" stop-color="#D6DBF1"/>
</linearGradient>
<linearGradient id="paint84_linear_369_1730" x1="994.064" y1="4004.74" x2="1067.38" y2="4002.28" gradientUnits="userSpaceOnUse">
<stop stop-color="#F2F5FF"/>
<stop offset="0.151042" stop-color="#F8F9FE"/>
<stop offset="1" stop-color="#D6DBF1"/>
</linearGradient>
<linearGradient id="paint85_linear_369_1730" x1="913.07" y1="3960.58" x2="986.388" y2="3958.13" gradientUnits="userSpaceOnUse">
<stop stop-color="#F2F5FF"/>
<stop offset="0.151042" stop-color="#F8F9FE"/>
<stop offset="1" stop-color="#D6DBF1"/>
</linearGradient>
<linearGradient id="paint86_linear_369_1730" x1="230.321" y1="2601.4" x2="796.905" y2="3034.87" gradientUnits="userSpaceOnUse">
<stop stop-color="#F0F6F9"/>
<stop offset="1" stop-color="#CDDFF2"/>
</linearGradient>
<linearGradient id="paint87_linear_369_1730" x1="430.837" y1="2516.61" x2="682.348" y2="3111.36" gradientUnits="userSpaceOnUse">
<stop stop-color="#486982"/>
<stop offset="1" stop-color="#3A556A"/>
</linearGradient>
<radialGradient id="paint88_radial_369_1730" cx="0" cy="0" r="1" gradientUnits="userSpaceOnUse" gradientTransform="translate(572.928 2852.61) rotate(-130.834) scale(297.753 247.98)">
<stop stop-color="#375168"/>
<stop offset="1" stop-color="#2C4255"/>
</radialGradient>
<linearGradient id="paint89_linear_369_1730" x1="5056.99" y1="1796.13" x2="4566.28" y2="1985.07" gradientUnits="userSpaceOnUse">
<stop stop-color="#486982"/>
<stop offset="1" stop-color="#3A556A"/>
</linearGradient>
<radialGradient id="paint90_radial_369_1730" cx="0" cy="0" r="1" gradientUnits="userSpaceOnUse" gradientTransform="translate(4779.73 1902.89) rotate(-39.5121) scale(236.69 202.263)">
<stop stop-color="#375168"/>
<stop offset="1" stop-color="#2C4255"/>
</radialGradient>
<linearGradient id="paint91_linear_369_1730" x1="4893.42" y1="1859.11" x2="4625.67" y2="1962.2" gradientUnits="userSpaceOnUse">
<stop stop-color="#466780"/>
<stop offset="1" stop-color="#486881" stop-opacity="0"/>
</linearGradient>
<linearGradient id="paint92_linear_369_1730" x1="4169.62" y1="554.076" x2="4435.93" y2="478.805" gradientUnits="userSpaceOnUse">
<stop stop-color="#F0F6F9"/>
<stop offset="1" stop-color="#CDDFF2"/>
</linearGradient>
<linearGradient id="paint93_linear_369_1730" x1="3970.16" y1="821.044" x2="4367.84" y2="755.483" gradientUnits="userSpaceOnUse">
<stop stop-color="#F0F6F9"/>
<stop offset="1" stop-color="#CDDFF2"/>
</linearGradient>
<linearGradient id="paint94_linear_369_1730" x1="4241" y1="587.806" x2="4340.26" y2="655.269" gradientUnits="userSpaceOnUse">
<stop stop-color="#E3E7F6"/>
<stop offset="1" stop-color="#C7CCDF"/>
</linearGradient>
<radialGradient id="paint95_radial_369_1730" cx="0" cy="0" r="1" gradientUnits="userSpaceOnUse" gradientTransform="translate(4381.81 501.744) rotate(119.88) scale(124.623 685.418)">
<stop stop-color="#ADB6DA"/>
<stop offset="1" stop-color="#626D97" stop-opacity="0"/>
</radialGradient>
<radialGradient id="paint96_radial_369_1730" cx="0" cy="0" r="1" gradientUnits="userSpaceOnUse" gradientTransform="translate(4381.81 501.744) rotate(119.88) scale(124.623 685.418)">
<stop stop-color="#ADB6DA"/>
<stop offset="1" stop-color="#626D97" stop-opacity="0"/>
</radialGradient>
<radialGradient id="paint97_radial_369_1730" cx="0" cy="0" r="1" gradientUnits="userSpaceOnUse" gradientTransform="translate(4225.37 752.085) rotate(-55.8782) scale(124.623 685.418)">
<stop stop-color="#ADB6DA"/>
<stop offset="1" stop-color="#626D97" stop-opacity="0"/>
</radialGradient>
<radialGradient id="paint98_radial_369_1730" cx="0" cy="0" r="1" gradientUnits="userSpaceOnUse" gradientTransform="translate(4225.37 752.085) rotate(-55.8782) scale(124.623 685.418)">
<stop stop-color="#ADB6DA"/>
<stop offset="1" stop-color="#626D97" stop-opacity="0"/>
</radialGradient>
<linearGradient id="paint99_linear_369_1730" x1="4134.92" y1="722.758" x2="4317.78" y2="760.879" gradientUnits="userSpaceOnUse">
<stop stop-color="#F2F5FF"/>
<stop offset="1" stop-color="#D6DBF1"/>
</linearGradient>
<radialGradient id="paint100_radial_369_1730" cx="0" cy="0" r="1" gradientUnits="userSpaceOnUse" gradientTransform="translate(4072.32 596.621) rotate(68.4316) scale(240.78 240.78)">
<stop stop-color="white"/>
<stop offset="1" stop-color="white" stop-opacity="0"/>
</radialGradient>
<linearGradient id="paint101_linear_369_1730" x1="4301.13" y1="456.769" x2="4483.99" y2="494.891" gradientUnits="userSpaceOnUse">
<stop stop-color="#F2F5FF"/>
<stop offset="1" stop-color="#D6DBF1"/>
</linearGradient>
<radialGradient id="paint102_radial_369_1730" cx="0" cy="0" r="1" gradientUnits="userSpaceOnUse" gradientTransform="translate(4238.54 330.632) rotate(68.4316) scale(240.78 240.78)">
<stop stop-color="white"/>
<stop offset="1" stop-color="white" stop-opacity="0"/>
</radialGradient>
<clipPath id="clip0_369_1730">
<rect width="738" height="738" fill="white" transform="translate(3424.93 3250.33) rotate(-101.801)"/>
</clipPath>
<clipPath id="clip1_369_1730">
<rect width="738" height="738" fill="white" transform="translate(4591 3253.65) rotate(-26.9654)"/>
</clipPath>
<clipPath id="clip2_369_1730">
<rect width="738" height="738" fill="white" transform="translate(1604.74 1444) rotate(31.4211)"/>
</clipPath>
<clipPath id="clip3_369_1730">
<rect width="738" height="738" fill="white" transform="translate(880 292.123) rotate(-23.3177)"/>
</clipPath>
<clipPath id="clip4_369_1730">
<rect width="738" height="738" fill="white" transform="translate(3816 4764.93) rotate(-28.3044)"/>
</clipPath>
<clipPath id="clip5_369_1730">
<rect width="738" height="738" fill="white" transform="translate(1850.01 2923.3) rotate(-27.9495)"/>
</clipPath>
<clipPath id="clip6_369_1730">
<rect width="738" height="738" fill="white" transform="translate(483.879 1969.11) rotate(-130.97)"/>
</clipPath>
<clipPath id="clip7_369_1730">
<rect width="738" height="738" fill="white" transform="translate(2156.27 3577) rotate(29.4872)"/>
</clipPath>
<clipPath id="clip8_369_1730">
<rect width="738" height="738" fill="white" transform="translate(3145 3721.72) rotate(-20.2402)"/>
</clipPath>
<clipPath id="clip9_369_1730">
<rect width="738" height="738" fill="white" transform="translate(3112.04 768.239) rotate(159.056)"/>
</clipPath>
<clipPath id="clip10_369_1730">
<rect width="738" height="738" fill="white" transform="translate(3185.81 1187) rotate(35.2385)"/>
</clipPath>
<clipPath id="clip11_369_1730">
<rect width="738" height="738" fill="white" transform="translate(392.01 4222.96) rotate(-61.4015)"/>
</clipPath>
<clipPath id="clip12_369_1730">
<rect width="738" height="738" fill="white" transform="translate(73.0107 2617.84) rotate(-22.9225)"/>
</clipPath>
<clipPath id="clip13_369_1730">
<rect width="738" height="738" fill="white" transform="translate(5027.72 1412) rotate(68.9422)"/>
</clipPath>
<clipPath id="clip14_369_1730">
<rect width="738" height="738" fill="white" transform="translate(3756 719.854) rotate(-57.9993)"/>
</clipPath>
</defs>
</svg>
