<svg width="118" height="31" viewBox="0 0 118 31" fill="none" xmlns="http://www.w3.org/2000/svg">
<g filter="url(#filter0_d_45_1136)">
<line x1="6" y1="5" x2="6" y2="21" stroke="url(#paint0_linear_45_1136)" stroke-width="4" stroke-linecap="round"/>
<line x1="16" y1="7" x2="16" y2="19" stroke="url(#paint1_linear_45_1136)" stroke-width="4" stroke-linecap="round"/>
<line x1="26" y1="9" x2="26" y2="17" stroke="url(#paint2_linear_45_1136)" stroke-width="4" stroke-linecap="round"/>
<path d="M44.8389 17.1543C44.8389 16.7246 44.7673 16.3415 44.624 16.0049C44.4808 15.6683 44.2445 15.3675 43.915 15.1025C43.5928 14.8304 43.1559 14.5798 42.6045 14.3506C42.0602 14.1143 41.3799 13.8815 40.5635 13.6523C39.7829 13.4303 39.0775 13.1868 38.4473 12.9219C37.8171 12.6569 37.2764 12.3525 36.8252 12.0088C36.3812 11.665 36.041 11.264 35.8047 10.8057C35.5684 10.3402 35.4502 9.79948 35.4502 9.18359C35.4502 8.58203 35.5791 8.03418 35.8369 7.54004C36.0947 7.0459 36.4564 6.61979 36.9219 6.26172C37.3945 5.90365 37.9495 5.62793 38.5869 5.43457C39.2314 5.24121 39.9368 5.14453 40.7031 5.14453C41.7988 5.14453 42.7441 5.35221 43.5391 5.76758C44.3411 6.18294 44.9606 6.74512 45.3975 7.4541C45.8415 8.15592 46.0635 8.94368 46.0635 9.81738H44.7422C44.7422 9.13704 44.5811 8.5319 44.2588 8.00195C43.9437 7.46484 43.4854 7.0459 42.8838 6.74512C42.2894 6.43717 41.5625 6.2832 40.7031 6.2832C39.8438 6.2832 39.1204 6.41569 38.5332 6.68066C37.9531 6.93848 37.5127 7.28581 37.2119 7.72266C36.9183 8.15234 36.7715 8.63216 36.7715 9.16211C36.7715 9.53451 36.8431 9.87826 36.9863 10.1934C37.1296 10.5013 37.3623 10.7913 37.6846 11.0635C38.014 11.3285 38.4473 11.5791 38.9844 11.8154C39.5215 12.0446 40.1839 12.263 40.9717 12.4707C41.8024 12.6999 42.54 12.9541 43.1846 13.2334C43.8291 13.5127 44.3734 13.835 44.8174 14.2002C45.2614 14.5583 45.598 14.9772 45.8271 15.457C46.0563 15.9368 46.1709 16.4954 46.1709 17.1328C46.1709 17.7702 46.0348 18.3431 45.7627 18.8516C45.4977 19.3529 45.1217 19.779 44.6348 20.1299C44.1549 20.4808 43.5856 20.7493 42.9268 20.9355C42.2751 21.1217 41.5625 21.2148 40.7891 21.2148C40.0944 21.2148 39.4033 21.1253 38.7158 20.9463C38.0283 20.7673 37.3981 20.4915 36.8252 20.1191C36.2594 19.7396 35.8047 19.2526 35.4609 18.6582C35.1243 18.0638 34.9561 17.3548 34.9561 16.5312H36.2666C36.2666 17.1901 36.3991 17.7451 36.6641 18.1963C36.929 18.6475 37.2799 19.0127 37.7168 19.292C38.1608 19.5713 38.6478 19.7754 39.1777 19.9043C39.7148 20.026 40.252 20.0869 40.7891 20.0869C41.6126 20.0869 42.3252 19.9652 42.9268 19.7217C43.5355 19.4782 44.0046 19.138 44.334 18.7012C44.6706 18.2572 44.8389 17.7415 44.8389 17.1543ZM48.0186 15.3711V15.0166C48.0186 14.1715 48.1403 13.391 48.3838 12.6748C48.6273 11.9587 48.9746 11.3392 49.4258 10.8164C49.8841 10.2936 50.432 9.889 51.0693 9.60254C51.7067 9.30892 52.4157 9.16211 53.1963 9.16211C53.984 9.16211 54.6966 9.30892 55.334 9.60254C55.9714 9.889 56.5192 10.2936 56.9775 10.8164C57.4359 11.3392 57.7868 11.9587 58.0303 12.6748C58.2738 13.391 58.3955 14.1715 58.3955 15.0166V15.3711C58.3955 16.2161 58.2738 16.9967 58.0303 17.7129C57.7868 18.4219 57.4359 19.0378 56.9775 19.5605C56.5264 20.0833 55.9821 20.4915 55.3447 20.7852C54.7074 21.0716 53.9984 21.2148 53.2178 21.2148C52.43 21.2148 51.7174 21.0716 51.0801 20.7852C50.4427 20.4915 49.8949 20.0833 49.4365 19.5605C48.9782 19.0378 48.6273 18.4219 48.3838 17.7129C48.1403 16.9967 48.0186 16.2161 48.0186 15.3711ZM49.2969 15.0166V15.3711C49.2969 16.0085 49.3828 16.6136 49.5547 17.1865C49.7266 17.7523 49.9772 18.2572 50.3066 18.7012C50.6361 19.138 51.0443 19.4818 51.5312 19.7324C52.0182 19.9831 52.5804 20.1084 53.2178 20.1084C53.848 20.1084 54.403 19.9831 54.8828 19.7324C55.3698 19.4818 55.778 19.138 56.1074 18.7012C56.4368 18.2572 56.6839 17.7523 56.8486 17.1865C57.0205 16.6136 57.1064 16.0085 57.1064 15.3711V15.0166C57.1064 14.3864 57.0205 13.7884 56.8486 13.2227C56.6839 12.6569 56.4333 12.152 56.0967 11.708C55.7673 11.264 55.359 10.9131 54.8721 10.6553C54.3851 10.3975 53.8265 10.2686 53.1963 10.2686C52.5661 10.2686 52.0075 10.3975 51.5205 10.6553C51.0407 10.9131 50.6325 11.264 50.2959 11.708C49.9665 12.152 49.7158 12.6569 49.5439 13.2227C49.3792 13.7884 49.2969 14.3864 49.2969 15.0166ZM68.6113 18.7441V4.5H69.9004V21H68.6973L68.6113 18.7441ZM60.5439 15.3066V15.0811C60.5439 14.1787 60.6478 13.3659 60.8555 12.6426C61.0632 11.9121 61.3604 11.2891 61.7471 10.7734C62.141 10.2507 62.6136 9.85319 63.165 9.58105C63.7165 9.30176 64.3395 9.16211 65.0342 9.16211C65.7145 9.16211 66.3161 9.27311 66.8389 9.49512C67.3617 9.71712 67.8092 10.0358 68.1816 10.4512C68.5612 10.8665 68.8656 11.3607 69.0947 11.9336C69.3311 12.5065 69.5029 13.1439 69.6104 13.8457V16.7139C69.5244 17.3727 69.3669 17.9779 69.1377 18.5293C68.9085 19.0736 68.6042 19.5498 68.2246 19.958C67.8451 20.359 67.3867 20.6706 66.8496 20.8926C66.3197 21.1074 65.7074 21.2148 65.0127 21.2148C64.3252 21.2148 63.7057 21.0716 63.1543 20.7852C62.6029 20.4987 62.1338 20.0941 61.7471 19.5713C61.3604 19.0413 61.0632 18.4147 60.8555 17.6914C60.6478 16.9681 60.5439 16.1732 60.5439 15.3066ZM61.833 15.0811V15.3066C61.833 15.987 61.901 16.6172 62.0371 17.1973C62.1732 17.7773 62.3809 18.2822 62.6602 18.7119C62.9395 19.1416 63.2939 19.4782 63.7236 19.7217C64.1533 19.9652 64.6618 20.0869 65.249 20.0869C65.9867 20.0869 66.6061 19.9473 67.1074 19.668C67.6087 19.3815 68.0098 19.0055 68.3105 18.54C68.6113 18.0674 68.8298 17.5518 68.9658 16.9932V13.6523C68.8799 13.2728 68.7546 12.8861 68.5898 12.4922C68.4251 12.0983 68.1995 11.7367 67.9131 11.4072C67.6338 11.0706 67.2757 10.8021 66.8389 10.6016C66.4092 10.3939 65.8864 10.29 65.2705 10.29C64.6761 10.29 64.1641 10.4118 63.7344 10.6553C63.3047 10.8988 62.9466 11.2389 62.6602 11.6758C62.3809 12.1055 62.1732 12.6104 62.0371 13.1904C61.901 13.7705 61.833 14.4007 61.833 15.0811ZM80.8359 18.7441V4.5H82.125V21H80.9219L80.8359 18.7441ZM72.7686 15.3066V15.0811C72.7686 14.1787 72.8724 13.3659 73.0801 12.6426C73.2878 11.9121 73.585 11.2891 73.9717 10.7734C74.3656 10.2507 74.8382 9.85319 75.3896 9.58105C75.9411 9.30176 76.5641 9.16211 77.2588 9.16211C77.9391 9.16211 78.5407 9.27311 79.0635 9.49512C79.5863 9.71712 80.0339 10.0358 80.4062 10.4512C80.7858 10.8665 81.0902 11.3607 81.3193 11.9336C81.5557 12.5065 81.7275 13.1439 81.835 13.8457V16.7139C81.749 17.3727 81.5915 17.9779 81.3623 18.5293C81.1331 19.0736 80.8288 19.5498 80.4492 19.958C80.0697 20.359 79.6113 20.6706 79.0742 20.8926C78.5443 21.1074 77.932 21.2148 77.2373 21.2148C76.5498 21.2148 75.9303 21.0716 75.3789 20.7852C74.8275 20.4987 74.3584 20.0941 73.9717 19.5713C73.585 19.0413 73.2878 18.4147 73.0801 17.6914C72.8724 16.9681 72.7686 16.1732 72.7686 15.3066ZM74.0576 15.0811V15.3066C74.0576 15.987 74.1257 16.6172 74.2617 17.1973C74.3978 17.7773 74.6055 18.2822 74.8848 18.7119C75.1641 19.1416 75.5186 19.4782 75.9482 19.7217C76.3779 19.9652 76.8864 20.0869 77.4736 20.0869C78.2113 20.0869 78.8307 19.9473 79.332 19.668C79.8333 19.3815 80.2344 19.0055 80.5352 18.54C80.8359 18.0674 81.0544 17.5518 81.1904 16.9932V13.6523C81.1045 13.2728 80.9792 12.8861 80.8145 12.4922C80.6497 12.0983 80.4242 11.7367 80.1377 11.4072C79.8584 11.0706 79.5003 10.8021 79.0635 10.6016C78.6338 10.3939 78.111 10.29 77.4951 10.29C76.9007 10.29 76.3887 10.4118 75.959 10.6553C75.5293 10.8988 75.1712 11.2389 74.8848 11.6758C74.6055 12.1055 74.3978 12.6104 74.2617 13.1904C74.1257 13.7705 74.0576 14.4007 74.0576 15.0811ZM89.999 21.2148C89.2399 21.2148 88.5417 21.0752 87.9043 20.7959C87.2741 20.5166 86.7227 20.1227 86.25 19.6143C85.7845 19.1058 85.4229 18.5042 85.165 17.8096C84.9144 17.1077 84.7891 16.3415 84.7891 15.5107V15.0488C84.7891 14.1536 84.9215 13.3444 85.1865 12.6211C85.4515 11.8978 85.8167 11.2783 86.2822 10.7627C86.7477 10.2471 87.2777 9.85319 87.8721 9.58105C88.4736 9.30176 89.1038 9.16211 89.7627 9.16211C90.5003 9.16211 91.1556 9.2946 91.7285 9.55957C92.3014 9.81738 92.7812 10.1862 93.168 10.666C93.5618 11.1387 93.859 11.7008 94.0596 12.3525C94.2601 12.9971 94.3604 13.7096 94.3604 14.4902V15.2744H85.5625V14.1787H93.082V14.0283C93.0677 13.3766 92.9352 12.7679 92.6846 12.2021C92.4411 11.6292 92.0758 11.1637 91.5889 10.8057C91.1019 10.4476 90.4932 10.2686 89.7627 10.2686C89.2184 10.2686 88.7171 10.3831 88.2588 10.6123C87.8076 10.8415 87.4173 11.1709 87.0879 11.6006C86.7656 12.0231 86.515 12.528 86.3359 13.1152C86.1641 13.6953 86.0781 14.3398 86.0781 15.0488V15.5107C86.0781 16.1553 86.1712 16.7568 86.3574 17.3154C86.5508 17.8669 86.8229 18.3538 87.1738 18.7764C87.5319 19.1989 87.9544 19.5283 88.4414 19.7646C88.9284 20.001 89.4655 20.1191 90.0527 20.1191C90.7402 20.1191 91.349 19.9938 91.8789 19.7432C92.4089 19.4854 92.8851 19.0807 93.3076 18.5293L94.1133 19.1523C93.8626 19.5247 93.5475 19.8685 93.168 20.1836C92.7956 20.4987 92.348 20.7493 91.8252 20.9355C91.3024 21.1217 90.6937 21.2148 89.999 21.2148ZM98.1738 11.8584V21H96.8955V9.37695H98.1201L98.1738 11.8584ZM97.8838 14.4688L97.3145 14.1465C97.3574 13.459 97.4971 12.8145 97.7334 12.2129C97.9697 11.6113 98.2884 11.0814 98.6895 10.623C99.0977 10.1647 99.5739 9.80664 100.118 9.54883C100.67 9.29102 101.278 9.16211 101.944 9.16211C102.524 9.16211 103.044 9.24089 103.502 9.39844C103.96 9.55599 104.351 9.80664 104.673 10.1504C104.995 10.4941 105.239 10.9346 105.403 11.4717C105.575 12.0088 105.661 12.6641 105.661 13.4375V21H104.372V13.4268C104.372 12.6247 104.261 11.998 104.039 11.5469C103.817 11.0885 103.502 10.7627 103.094 10.5693C102.686 10.376 102.202 10.2793 101.644 10.2793C101.028 10.2793 100.487 10.4154 100.021 10.6875C99.5632 10.9525 99.1764 11.2998 98.8613 11.7295C98.5534 12.152 98.3171 12.6068 98.1523 13.0938C97.9876 13.5736 97.8981 14.0319 97.8838 14.4688ZM113.385 9.37695V10.4297H107.562V9.37695H113.385ZM109.7 6.39062H110.979V18.1748C110.979 18.7119 111.05 19.1165 111.193 19.3887C111.337 19.6608 111.523 19.8434 111.752 19.9365C111.981 20.0296 112.228 20.0762 112.493 20.0762C112.687 20.0762 112.873 20.0654 113.052 20.0439C113.231 20.0153 113.392 19.9867 113.535 19.958L113.589 21.043C113.431 21.0931 113.227 21.1325 112.977 21.1611C112.726 21.1969 112.475 21.2148 112.225 21.2148C111.73 21.2148 111.294 21.1253 110.914 20.9463C110.535 20.7601 110.237 20.445 110.022 20.001C109.808 19.5498 109.7 18.9375 109.7 18.1641V6.39062Z" fill="black"/>
</g>
<defs>
<filter id="filter0_d_45_1136" x="0" y="0" width="119" height="34" filterUnits="userSpaceOnUse" color-interpolation-filters="sRGB">
<feFlood flood-opacity="0" result="BackgroundImageFix"/>
<feColorMatrix in="SourceAlpha" type="matrix" values="0 0 0 0 0 0 0 0 0 0 0 0 0 0 0 0 0 0 127 0" result="hardAlpha"/>
<feOffset dy="4"/>
<feGaussianBlur stdDeviation="2"/>
<feComposite in2="hardAlpha" operator="out"/>
<feColorMatrix type="matrix" values="0 0 0 0 0 0 0 0 0 0 0 0 0 0 0 0 0 0 0.25 0"/>
<feBlend mode="normal" in2="BackgroundImageFix" result="effect1_dropShadow_45_1136"/>
<feBlend mode="normal" in="SourceGraphic" in2="effect1_dropShadow_45_1136" result="shape"/>
</filter>
<linearGradient id="paint0_linear_45_1136" x1="3.5" y1="3" x2="3.5" y2="23" gradientUnits="userSpaceOnUse">
<stop stop-color="#EC008C"/>
<stop offset="1" stop-color="#FC6767"/>
</linearGradient>
<linearGradient id="paint1_linear_45_1136" x1="13.5" y1="5" x2="13.5" y2="21" gradientUnits="userSpaceOnUse">
<stop stop-color="#E65C00"/>
<stop offset="1" stop-color="#F9D423"/>
</linearGradient>
<linearGradient id="paint2_linear_45_1136" x1="23.5" y1="7" x2="23.5" y2="19" gradientUnits="userSpaceOnUse">
<stop stop-color="#00D2FF"/>
<stop offset="1" stop-color="#3A7BD5"/>
</linearGradient>
</defs>
</svg>
