<svg width="540" height="540" viewBox="0 0 540 540" fill="none" xmlns="http://www.w3.org/2000/svg">
<circle cx="270" cy="270" r="270" fill="white"/>
<path d="M222.174 434.566C151.595 344.595 79.1881 141.702 266.262 187.842C222.383 139.718 40.9986 147.953 144.358 346.681C164.978 372.493 190.678 401.666 222.174 434.566Z" fill="#00B7CD"/>
<path fill-rule="evenodd" clip-rule="evenodd" d="M259.292 184.072C216.447 174.666 187.507 178.877 169.443 192.549C150.24 207.083 143.902 231.834 145.695 260.301C147.488 288.774 157.419 321.402 171.266 352.482C180.646 373.537 191.855 393.95 203.627 411.964C181.081 387.634 161.96 365.522 145.924 345.458C120.256 296.051 112.447 258.804 115.527 231.507C118.595 204.315 132.5 186.721 150.955 176.554C169.49 166.344 192.646 163.628 213.938 166.482C231.899 168.89 248.268 175.223 259.292 184.072ZM111.737 230.995C108.51 259.597 116.765 297.844 142.701 347.711L142.796 347.894L142.923 348.053C163.589 373.923 189.331 403.142 220.857 436.074L223.623 433.198C206.092 410.85 188.421 381.451 174.697 350.648C160.964 319.823 151.251 287.742 149.504 260.013C147.758 232.277 153.983 209.334 171.613 195.99C189.361 182.557 217.75 176.343 264.354 187.838L270.08 189.933L267.614 186.359C256.228 173.87 236.188 165.251 214.402 162.331C192.573 159.404 168.615 162.145 149.24 172.818C129.784 183.536 114.98 202.255 111.737 230.995Z" fill="#00B7CD"/>
<path d="M317.5 432.542C387.974 343.849 460.43 143.716 273.904 188.988C317.707 141.556 498.486 149.939 395.184 345.918C374.596 371.363 348.938 400.118 317.5 432.542Z" fill="#00B7CD"/>
<path fill-rule="evenodd" clip-rule="evenodd" d="M280.943 185.236C323.61 176.039 352.419 180.239 370.392 193.748C389.517 208.122 395.804 232.573 393.976 260.677C392.148 288.782 382.202 320.975 368.355 351.63C359.004 372.334 347.842 392.406 336.121 410.129C358.581 386.194 377.635 364.438 393.622 344.69C419.273 295.971 427.104 259.233 424.074 232.305C421.056 205.483 407.232 188.105 388.849 178.045C370.388 167.941 347.309 165.228 326.082 168.015C308.224 170.359 291.941 176.559 280.943 185.236ZM427.864 231.793C431.042 260.041 422.755 297.785 396.832 346.964L396.736 347.147L396.608 347.305C375.972 372.808 350.273 401.608 318.803 434.065L316.054 431.169C333.558 409.14 351.212 380.154 364.933 349.776C378.664 319.376 388.388 287.735 390.167 260.38C391.947 233.023 385.779 210.385 368.231 197.196C350.56 183.914 324.187 176.572 277.718 187.851L270.079 189.936L275.812 183.667C287.274 173.219 303.912 166.713 325.628 163.862C347.388 161.005 371.26 163.743 390.556 174.303C409.932 184.907 424.67 203.406 427.864 231.793Z" fill="#00B7CD"/>
<path d="M266.256 198.296C63.9107 147.968 134.424 329.944 180.17 436.627C10.4369 168.84 105.943 108.266 266.256 198.296Z" fill="#34485F"/>
<path fill-rule="evenodd" clip-rule="evenodd" d="M251.993 192.911C209.29 184.109 179.718 186.648 160.15 197.437C138.205 209.536 129.263 231.748 128.271 258.502C127.283 285.167 134.158 316.641 144.063 347.991C151.24 370.706 160.043 393.459 168.695 414.411C134 357.192 112.296 310.309 101.287 273.113C88.9314 231.366 90.1821 202.307 101.036 184.442C111.818 166.693 132.59 159.214 161.136 161.983C186.418 164.435 217.423 174.915 251.993 192.911ZM97.655 274.403C110.146 316.607 136.117 370.795 178.602 437.824L181.899 435.742C170.466 409.08 157.518 377.788 147.672 346.623C137.813 315.421 131.128 284.543 132.087 258.671C133.042 232.886 141.552 212.373 161.866 201.172C182.388 189.857 215.372 187.788 265.833 200.339L267.127 196.439C226.934 173.867 190.658 160.647 161.473 157.817C132.327 154.99 109.773 162.511 97.8565 182.125C86.011 201.623 85.1907 232.291 97.655 274.403Z" fill="#34485F"/>
<path d="M273.893 199.37C476.258 149.555 405.505 330.613 359.619 436.751C529.689 170.409 434.294 109.972 273.893 199.37Z" fill="#34485F"/>
<path fill-rule="evenodd" clip-rule="evenodd" d="M288.213 194.006C330.887 185.317 360.429 187.889 379.967 198.652C401.889 210.728 410.8 232.855 411.754 259.497C412.704 286.047 405.786 317.372 395.838 348.568C388.635 371.158 379.808 393.784 371.132 414.62C405.893 357.717 427.653 311.083 438.71 274.076C451.121 232.536 449.911 203.613 439.089 185.818C428.335 168.136 407.579 160.66 379.033 163.376C353.767 165.779 322.776 176.158 288.213 194.006ZM442.339 275.376C429.79 317.375 403.749 371.283 361.179 437.95L357.889 435.857C369.356 409.332 382.345 378.199 392.233 347.189C402.133 316.142 408.859 285.415 407.938 259.661C407.02 233.998 398.544 213.567 378.251 202.388C357.748 191.094 324.774 188.988 274.307 201.411L273.023 197.507C313.238 175.093 349.523 161.985 378.703 159.209C407.843 156.437 430.38 163.954 442.267 183.499C454.085 202.932 454.86 233.469 442.339 275.376Z" fill="#34485F"/>
<path d="M98.2881 127.085C98.2782 140.944 108.528 152.186 121.181 152.195C133.835 152.204 144.1 140.977 144.11 127.118C144.12 113.259 133.87 102.017 121.217 102.008C108.564 101.999 98.2979 113.226 98.2881 127.085Z" fill="#34485F"/>
<path d="M441.976 127.327C441.966 141.186 431.701 152.414 419.047 152.405C406.394 152.396 396.144 141.154 396.154 127.295C396.164 113.436 406.429 102.208 419.083 102.217C431.736 102.226 441.986 113.469 441.976 127.327Z" fill="#34485F"/>
</svg>