<svg width="36" height="36" viewBox="0 0 36 36" fill="none" xmlns="http://www.w3.org/2000/svg">
<g clip-path="url(#clip0_358_1678)">
<path d="M30.6845 14.9755C30.6568 16.644 29.9506 18.9909 28.4691 21.0886C25.3883 25.4293 22.2937 29.7632 19.206 34.104C18.5068 35.087 17.946 35.0939 17.2606 34.1385C14.1452 29.7839 11.0368 25.4223 7.9214 21.0746C2.55602 13.5839 7.59602 2.51387 16.7829 1.59309C24.2737 0.845394 30.6775 6.59856 30.6845 14.9755ZM23.6437 14.034C23.6505 10.9532 21.2899 8.57856 18.216 8.58549C15.1837 8.59334 12.7952 10.9393 12.7676 13.9509C12.7399 16.9763 15.1629 19.4547 18.1745 19.4755C21.2137 19.4964 23.6368 17.087 23.6437 14.034Z" stroke="#3B82F6" stroke-width="2.5" stroke-miterlimit="10"/>
</g>
<defs>
<clipPath id="clip0_358_1678">
<rect width="36" height="36" fill="white"/>
</clipPath>
</defs>
</svg>
