<svg width="36" height="36" viewBox="0 0 36 36" fill="none" xmlns="http://www.w3.org/2000/svg">
<path d="M10.4338 2.50342V6.7542" stroke="#3B82F6" stroke-width="2.2214" stroke-miterlimit="10" stroke-linecap="round"/>
<path d="M15.5085 2.50342V6.7542" stroke="#3B82F6" stroke-width="2.2214" stroke-miterlimit="10" stroke-linecap="round"/>
<path d="M20.583 2.50342V6.7542" stroke="#3B82F6" stroke-width="2.2214" stroke-miterlimit="10" stroke-linecap="round"/>
<path d="M25.6646 2.50342V6.7542" stroke="#3B82F6" stroke-width="2.2214" stroke-miterlimit="10" stroke-linecap="round"/>
<path d="M11.4309 15.7197L9.2085 17.942" stroke="#3B82F6" stroke-width="2.2214" stroke-miterlimit="10" stroke-linecap="round"/>
<path d="M11.4309 17.942L9.2085 15.7197" stroke="#3B82F6" stroke-width="2.2214" stroke-miterlimit="10" stroke-linecap="round"/>
<path d="M16.7893 15.7197L14.5669 17.942" stroke="#3B82F6" stroke-width="2.2214" stroke-miterlimit="10" stroke-linecap="round"/>
<path d="M16.7893 17.942L14.5669 15.7197" stroke="#3B82F6" stroke-width="2.2214" stroke-miterlimit="10" stroke-linecap="round"/>
<path d="M22.1477 15.7197L19.9253 17.942" stroke="#3B82F6" stroke-width="2.2214" stroke-miterlimit="10" stroke-linecap="round"/>
<path d="M22.1477 17.942L19.9253 15.7197" stroke="#3B82F6" stroke-width="2.2214" stroke-miterlimit="10" stroke-linecap="round"/>
<path d="M27.0078 16.8345H25.187" stroke="#3B82F6" stroke-width="2.2214" stroke-miterlimit="10" stroke-linecap="round"/>
<path d="M27.437 11.8979H9.24316" stroke="#3B82F6" stroke-width="2.2214" stroke-miterlimit="10" stroke-linecap="round"/>
<path d="M25.187 22.1929H27.0078" stroke="#3B82F6" stroke-width="2.2214" stroke-miterlimit="10" stroke-linecap="round"/>
<path d="M20.1262 22.1929H21.947" stroke="#3B82F6" stroke-width="2.2214" stroke-miterlimit="10" stroke-linecap="round"/>
<path d="M14.7678 22.1929H16.5886" stroke="#3B82F6" stroke-width="2.2214" stroke-miterlimit="10" stroke-linecap="round"/>
<path d="M9.40918 22.1929H11.2299" stroke="#3B82F6" stroke-width="2.2214" stroke-miterlimit="10" stroke-linecap="round"/>
<path d="M25.187 26.9556H27.0078" stroke="#3B82F6" stroke-width="2.2214" stroke-miterlimit="10" stroke-linecap="round"/>
<path d="M20.1262 26.9556H21.947" stroke="#3B82F6" stroke-width="2.2214" stroke-miterlimit="10" stroke-linecap="round"/>
<path d="M14.7678 26.9556H16.5886" stroke="#3B82F6" stroke-width="2.2214" stroke-miterlimit="10" stroke-linecap="round"/>
<path d="M9.40918 26.9556H11.2299" stroke="#3B82F6" stroke-width="2.2214" stroke-miterlimit="10" stroke-linecap="round"/>
<path d="M27.6447 32.2729H8.45389C6.10697 32.2729 4.20312 30.369 4.20312 28.0221V8.83134C4.20312 6.48441 6.10697 4.58057 8.45389 4.58057H27.6447C29.9916 4.58057 31.8954 6.48441 31.8954 8.83134V28.0221C31.8954 30.369 29.9916 32.2729 27.6447 32.2729Z" stroke="#3B82F6" stroke-width="2.2214" stroke-miterlimit="10" stroke-linecap="round"/>
</svg>
