<svg width="36" height="36" viewBox="0 0 36 36" fill="none" xmlns="http://www.w3.org/2000/svg">
<path d="M7.19165 13.6429C7.19165 7.75826 11.9686 2.91211 17.9224 2.91211C23.8763 2.91211 28.6532 7.68903 28.6532 13.6429" stroke="#3B82F6" stroke-width="2.5" stroke-miterlimit="10"/>
<path d="M28.3761 23.5427C31.353 23.5427 33.7069 20.9812 33.3607 17.8658C33.0838 15.3043 30.7299 13.4351 28.1684 13.4351H27.753C26.9915 13.4351 26.3684 14.0581 26.3684 14.8197V22.1581C26.3684 22.9197 26.9915 23.5427 27.753 23.5427H28.3761Z" stroke="#3B82F6" stroke-width="2.5" stroke-miterlimit="10"/>
<path d="M7.81461 23.5427C4.83769 23.5427 2.48384 20.9812 2.83 17.8658C3.10692 15.3043 5.46077 13.4351 8.0223 13.4351H8.43769C9.19923 13.4351 9.8223 14.0581 9.8223 14.8197V22.1581C9.8223 22.9197 9.19923 23.5427 8.43769 23.5427H7.81461Z" stroke="#3B82F6" stroke-width="2.5" stroke-miterlimit="10"/>
<path d="M29.0684 23.8198V25.7583C29.0684 28.4583 26.9222 30.6044 24.2222 30.6044H20.0684" stroke="#3B82F6" stroke-width="2.5" stroke-miterlimit="10"/>
<path d="M18.5455 32.4045C19.5778 32.4045 20.4147 31.5676 20.4147 30.5352C20.4147 29.5029 19.5778 28.666 18.5455 28.666C17.5132 28.666 16.6763 29.5029 16.6763 30.5352C16.6763 31.5676 17.5132 32.4045 18.5455 32.4045Z" stroke="#3B82F6" stroke-width="2.5" stroke-miterlimit="10"/>
</svg>
