<svg width="184" height="185" viewBox="0 0 184 185" fill="none" xmlns="http://www.w3.org/2000/svg">
<rect x="16" y="14" width="162" height="162" rx="37.3171" fill="url(#paint0_linear_7_5)"/>
<g filter="url(#filter0_iii_7_5)">
<rect x="16" y="14" width="162" height="162" rx="37.3171" fill="url(#paint1_linear_7_5)"/>
</g>
<g style="mix-blend-mode:overlay" opacity="0.8" filter="url(#filter1_if_7_5)">
<rect x="16" y="16.5244" width="151.683" height="151.683" rx="37.3171" fill="url(#paint2_linear_7_5)"/>
</g>
<g filter="url(#filter2_d_7_5)">
<path d="M64.1091 124.441C68.8356 132.295 76.2009 138.213 84.889 141.137L86.1753 137.315C78.394 134.696 71.7975 129.396 67.5644 122.361C63.3312 115.327 61.7374 107.016 63.0675 98.9145C64.3977 90.8129 68.5653 83.4483 74.8256 78.1366C81.0858 72.8249 82.6909 70.9833 90.901 70.9901L94.4681 65.8316C85.3012 65.8239 79.2064 69.1309 72.2166 75.0617C65.2267 80.9924 60.5735 89.2154 59.0882 98.2611C57.603 107.307 59.3827 116.586 64.1091 124.441Z" fill="#C4C4C4"/>
<path d="M135.346 98.3249C133.876 89.2767 129.236 81.046 122.257 75.1035L119.642 78.1741C125.894 83.4962 130.049 90.8678 131.366 98.9716C132.682 107.075 131.075 115.383 126.83 122.411C122.585 129.438 115.979 134.728 108.194 137.333L109.474 141.157C118.167 138.248 125.542 132.342 130.281 124.496C135.021 116.649 136.816 107.373 135.346 98.3249Z" fill="#C4C4C4"/>
</g>
<g style="mix-blend-mode:multiply" opacity="0.5" filter="url(#filter3_f_7_5)">
<path d="M44.0455 107.777L48.1951 115.174C56.2373 129.51 70.6706 139.116 87 141L78.1198 128.724C72.8144 121.391 69.6858 112.709 69.0935 103.676C68.3853 92.8753 71.3403 82.1512 77.4808 73.2375L99 42L80 44L74.8161 44.7874C54.8329 47.8228 39.73 64.4769 38.6563 84.6608C38.2276 92.721 40.0965 100.737 44.0455 107.777Z" fill="#140FF0"/>
</g>
<g style="mix-blend-mode:multiply" opacity="0.5" filter="url(#filter4_f_7_5)">
<path d="M151.954 107.777L147.805 115.174C139.763 129.51 125.329 139.116 109 141L117.88 128.724C123.186 121.391 126.314 112.709 126.906 103.676C127.615 92.8753 124.66 82.1512 118.519 73.2375L97 42L116 44L121.184 44.7874C141.167 47.8228 156.27 64.4769 157.344 84.6608C157.772 92.721 155.904 100.737 151.954 107.777Z" fill="#140FF0"/>
</g>
<g style="mix-blend-mode:soft-light" filter="url(#filter5_if_7_5)">
<path d="M88.197 138.364C87.6724 138.502 87.1025 138.513 86.5212 138.364H88.197C89.6784 137.975 90.7991 136.572 90.7991 134.879V106.862H85.7268C82.025 106.862 79.0241 103.864 79.0241 100.165C79.0241 96.4661 82.025 93.4675 85.7268 93.4675H90.7991V83.2584C90.7991 71.6446 97.7227 65.2295 108.316 65.2295C110.101 65.2295 111.915 65.3415 113.516 65.4867C116.521 65.7591 118.697 68.339 118.697 71.3534V71.6951C118.697 74.9222 116.079 77.5384 112.849 77.5384C107.088 77.5384 105.291 81.1104 105.291 84.775V93.4675H110.344C114.451 93.4675 117.592 97.1242 116.97 101.18C116.468 104.449 113.654 106.862 110.344 106.862H105.291V134.879C105.291 136.572 106.412 137.975 107.894 138.364H109.569C108.988 138.513 108.418 138.502 107.894 138.364H88.197Z" fill="#1072F1"/>
</g>
<g style="mix-blend-mode:soft-light" opacity="0.7" filter="url(#filter6_if_7_5)">
<path d="M90.368 137.073C89.8434 137.211 89.2736 137.222 88.6922 137.073H90.368C91.8495 136.684 92.9702 135.281 92.9702 133.588V105.572H87.8978C84.196 105.572 81.1951 102.573 81.1951 98.8743C81.1951 95.1754 84.196 92.1768 87.8978 92.1768H92.9702V81.9677C92.9702 70.3539 99.8937 63.9388 110.487 63.9388C112.272 63.9388 114.086 64.0508 115.687 64.196C118.692 64.4685 120.868 67.0483 120.868 70.0627V70.4044C120.868 73.6315 118.25 76.2477 115.02 76.2477C109.259 76.2477 107.463 79.8197 107.463 83.4843V92.1768H112.515C116.622 92.1768 119.763 95.8335 119.141 99.8897C118.639 103.158 115.825 105.572 112.515 105.572H107.463V133.588C107.463 135.281 108.583 136.684 110.065 137.073H111.74C111.159 137.222 110.589 137.211 110.065 137.073H90.368Z" fill="#1072F1"/>
</g>
<g style="mix-blend-mode:soft-light" filter="url(#filter7_if_7_5)">
<path d="M92.1241 134.439C91.5995 134.577 91.0296 134.588 90.4483 134.439H92.1241C93.6055 134.05 94.7262 132.647 94.7262 130.954V102.938H89.6539C85.9521 102.938 82.9512 99.9391 82.9512 96.2402C82.9512 92.5413 85.9521 89.5427 89.6539 89.5427H94.7262V79.3336C94.7262 67.7198 101.65 61.3047 112.243 61.3047C114.028 61.3047 115.842 61.4167 117.444 61.562C120.448 61.8344 122.624 64.4142 122.624 67.4286V67.7703C122.624 70.9975 120.006 73.6136 116.776 73.6136C111.015 73.6136 109.219 77.1856 109.219 80.8502V89.5427H114.271C118.378 89.5427 121.519 93.1995 120.897 97.2556C120.395 100.524 117.581 102.938 114.271 102.938H109.219V130.954C109.219 132.647 110.339 134.05 111.821 134.439H113.497C112.915 134.588 112.345 134.577 111.821 134.439H92.1241Z" fill="#1072F1"/>
</g>
<g filter="url(#filter8_f_7_5)">
<path d="M148.146 94.5864C148.146 66.9452 125.739 44.5376 98.0975 44.5376C70.4563 44.5376 48.0488 66.9452 48.0488 94.5864C48.0488 117.934 64.0362 137.547 85.6606 143.077C88.0596 143.69 90.2774 141.789 90.2774 139.313V109.054H84.8033C80.8083 109.054 77.5697 105.815 77.5697 101.82C77.5697 97.825 80.8083 94.5864 84.8033 94.5864H90.2774V83.56C90.2774 71.0165 97.7493 64.0879 109.182 64.0879C111.108 64.0879 113.066 64.2089 114.794 64.3657C118.036 64.66 120.385 67.4463 120.385 70.702V71.0711C120.385 74.5566 117.559 77.3821 114.074 77.3821C107.857 77.3821 105.918 81.2401 105.918 85.198V94.5864H111.371C115.803 94.5864 119.193 98.5358 118.521 102.917C117.979 106.447 114.942 109.054 111.371 109.054H105.918V139.313C105.918 141.789 108.135 143.69 110.534 143.077C132.159 137.547 148.146 117.934 148.146 94.5864Z" fill="#004EB1"/>
</g>
<g filter="url(#filter9_ddiiii_7_5)">
<path d="M148.146 92.695C148.146 65.0538 125.739 42.6462 98.0975 42.6462C70.4563 42.6462 48.0488 65.0538 48.0488 92.695C48.0488 116.043 64.0362 135.656 85.6606 141.186C88.0596 141.799 90.2774 139.898 90.2774 137.421V107.162H84.8033C80.8083 107.162 77.5697 103.924 77.5697 99.9286C77.5697 95.9336 80.8083 92.695 84.8033 92.695H90.2774V81.6686C90.2774 69.1251 97.7493 62.1965 109.182 62.1965C111.108 62.1965 113.066 62.3175 114.794 62.4743C118.036 62.7686 120.385 65.5549 120.385 68.8106V69.1797C120.385 72.6652 117.559 75.4907 114.074 75.4907C107.857 75.4907 105.918 79.3487 105.918 83.3066V92.695H111.371C115.803 92.695 119.193 96.6444 118.521 101.025C117.979 104.556 114.942 107.162 111.371 107.162H105.918V137.421C105.918 139.898 108.135 141.799 110.534 141.186C132.159 135.656 148.146 116.043 148.146 92.695Z" fill="white"/>
</g>
<defs>
<filter id="filter0_iii_7_5" x="16" y="12.2439" width="166.39" height="169.683" filterUnits="userSpaceOnUse" color-interpolation-filters="sRGB">
<feFlood flood-opacity="0" result="BackgroundImageFix"/>
<feBlend mode="normal" in="SourceGraphic" in2="BackgroundImageFix" result="shape"/>
<feColorMatrix in="SourceAlpha" type="matrix" values="0 0 0 0 0 0 0 0 0 0 0 0 0 0 0 0 0 0 127 0" result="hardAlpha"/>
<feOffset dy="-1.7561"/>
<feGaussianBlur stdDeviation="5.15854"/>
<feComposite in2="hardAlpha" operator="arithmetic" k2="-1" k3="1"/>
<feColorMatrix type="matrix" values="0 0 0 0 0.0765104 0 0 0 0 0.0588542 0 0 0 0 0.941667 0 0 0 1 0"/>
<feBlend mode="normal" in2="shape" result="effect1_innerShadow_7_5"/>
<feColorMatrix in="SourceAlpha" type="matrix" values="0 0 0 0 0 0 0 0 0 0 0 0 0 0 0 0 0 0 127 0" result="hardAlpha"/>
<feOffset dy="0.439024"/>
<feGaussianBlur stdDeviation="0.219512"/>
<feComposite in2="hardAlpha" operator="arithmetic" k2="-1" k3="1"/>
<feColorMatrix type="matrix" values="0 0 0 0 0 0 0 0 0 0 0 0 0 0 0 0 0 0 0.25 0"/>
<feBlend mode="normal" in2="effect1_innerShadow_7_5" result="effect2_innerShadow_7_5"/>
<feColorMatrix in="SourceAlpha" type="matrix" values="0 0 0 0 0 0 0 0 0 0 0 0 0 0 0 0 0 0 127 0" result="hardAlpha"/>
<feOffset dx="4.39024" dy="6.91463"/>
<feGaussianBlur stdDeviation="2.96341"/>
<feComposite in2="hardAlpha" operator="arithmetic" k2="-1" k3="1"/>
<feColorMatrix type="matrix" values="0 0 0 0 0.170833 0 0 0 0 0.533594 0 0 0 0 1 0 0 0 1 0"/>
<feBlend mode="normal" in2="effect2_innerShadow_7_5" result="effect3_innerShadow_7_5"/>
</filter>
<filter id="filter1_if_7_5" x="0.195122" y="0.719559" width="183.293" height="183.293" filterUnits="userSpaceOnUse" color-interpolation-filters="sRGB">
<feFlood flood-opacity="0" result="BackgroundImageFix"/>
<feBlend mode="normal" in="SourceGraphic" in2="BackgroundImageFix" result="shape"/>
<feColorMatrix in="SourceAlpha" type="matrix" values="0 0 0 0 0 0 0 0 0 0 0 0 0 0 0 0 0 0 127 0" result="hardAlpha"/>
<feOffset dx="7.68293" dy="9.21951"/>
<feGaussianBlur stdDeviation="9"/>
<feComposite in2="hardAlpha" operator="arithmetic" k2="-1" k3="1"/>
<feColorMatrix type="matrix" values="0 0 0 0 1 0 0 0 0 1 0 0 0 0 1 0 0 0 1 0"/>
<feBlend mode="normal" in2="shape" result="effect1_innerShadow_7_5"/>
<feGaussianBlur stdDeviation="7.90244" result="effect2_foregroundBlur_7_5"/>
</filter>
<filter id="filter2_d_7_5" x="47.1631" y="54.856" width="100.098" height="98.155" filterUnits="userSpaceOnUse" color-interpolation-filters="sRGB">
<feFlood flood-opacity="0" result="BackgroundImageFix"/>
<feColorMatrix in="SourceAlpha" type="matrix" values="0 0 0 0 0 0 0 0 0 0 0 0 0 0 0 0 0 0 127 0" result="hardAlpha"/>
<feOffset dy="0.439024"/>
<feGaussianBlur stdDeviation="5.70732"/>
<feColorMatrix type="matrix" values="0 0 0 0 0 0 0 0 0 0 0 0 0 0 0 0 0 0 1 0"/>
<feBlend mode="normal" in2="BackgroundImageFix" result="effect1_dropShadow_7_5"/>
<feBlend mode="normal" in="SourceGraphic" in2="effect1_dropShadow_7_5" result="shape"/>
</filter>
<filter id="filter3_f_7_5" x="24.5962" y="28" width="88.4038" height="127" filterUnits="userSpaceOnUse" color-interpolation-filters="sRGB">
<feFlood flood-opacity="0" result="BackgroundImageFix"/>
<feBlend mode="normal" in="SourceGraphic" in2="BackgroundImageFix" result="shape"/>
<feGaussianBlur stdDeviation="7" result="effect1_foregroundBlur_7_5"/>
</filter>
<filter id="filter4_f_7_5" x="83" y="28" width="88.4038" height="127" filterUnits="userSpaceOnUse" color-interpolation-filters="sRGB">
<feFlood flood-opacity="0" result="BackgroundImageFix"/>
<feBlend mode="normal" in="SourceGraphic" in2="BackgroundImageFix" result="shape"/>
<feGaussianBlur stdDeviation="7" result="effect1_foregroundBlur_7_5"/>
</filter>
<filter id="filter5_if_7_5" x="72.3102" y="58.5156" width="53.1005" height="86.6698" filterUnits="userSpaceOnUse" color-interpolation-filters="sRGB">
<feFlood flood-opacity="0" result="BackgroundImageFix"/>
<feBlend mode="normal" in="SourceGraphic" in2="BackgroundImageFix" result="shape"/>
<feColorMatrix in="SourceAlpha" type="matrix" values="0 0 0 0 0 0 0 0 0 0 0 0 0 0 0 0 0 0 127 0" result="hardAlpha"/>
<feOffset dx="3.05175"/>
<feComposite in2="hardAlpha" operator="arithmetic" k2="-1" k3="1"/>
<feColorMatrix type="matrix" values="0 0 0 0 1 0 0 0 0 1 0 0 0 0 1 0 0 0 0.75 0"/>
<feBlend mode="normal" in2="shape" result="effect1_innerShadow_7_5"/>
<feGaussianBlur stdDeviation="3.35693" result="effect2_foregroundBlur_7_5"/>
</filter>
<filter id="filter6_if_7_5" x="77.1951" y="59.9388" width="47.6728" height="81.2421" filterUnits="userSpaceOnUse" color-interpolation-filters="sRGB">
<feFlood flood-opacity="0" result="BackgroundImageFix"/>
<feBlend mode="normal" in="SourceGraphic" in2="BackgroundImageFix" result="shape"/>
<feColorMatrix in="SourceAlpha" type="matrix" values="0 0 0 0 0 0 0 0 0 0 0 0 0 0 0 0 0 0 127 0" result="hardAlpha"/>
<feOffset dx="3.05175"/>
<feComposite in2="hardAlpha" operator="arithmetic" k2="-1" k3="1"/>
<feColorMatrix type="matrix" values="0 0 0 0 1 0 0 0 0 1 0 0 0 0 1 0 0 0 0.75 0"/>
<feBlend mode="normal" in2="shape" result="effect1_innerShadow_7_5"/>
<feGaussianBlur stdDeviation="2" result="effect2_foregroundBlur_7_5"/>
</filter>
<filter id="filter7_if_7_5" x="76.2373" y="54.5908" width="53.1005" height="86.6698" filterUnits="userSpaceOnUse" color-interpolation-filters="sRGB">
<feFlood flood-opacity="0" result="BackgroundImageFix"/>
<feBlend mode="normal" in="SourceGraphic" in2="BackgroundImageFix" result="shape"/>
<feColorMatrix in="SourceAlpha" type="matrix" values="0 0 0 0 0 0 0 0 0 0 0 0 0 0 0 0 0 0 127 0" result="hardAlpha"/>
<feOffset dx="3.05175"/>
<feComposite in2="hardAlpha" operator="arithmetic" k2="-1" k3="1"/>
<feColorMatrix type="matrix" values="0 0 0 0 1 0 0 0 0 1 0 0 0 0 1 0 0 0 0.75 0"/>
<feBlend mode="normal" in2="shape" result="effect1_innerShadow_7_5"/>
<feGaussianBlur stdDeviation="3.35693" result="effect2_foregroundBlur_7_5"/>
</filter>
<filter id="filter8_f_7_5" x="44.2341" y="40.7229" width="107.727" height="106.285" filterUnits="userSpaceOnUse" color-interpolation-filters="sRGB">
<feFlood flood-opacity="0" result="BackgroundImageFix"/>
<feBlend mode="normal" in="SourceGraphic" in2="BackgroundImageFix" result="shape"/>
<feGaussianBlur stdDeviation="1.90735" result="effect1_foregroundBlur_7_5"/>
</filter>
<filter id="filter9_ddiiii_7_5" x="38.2831" y="28.9133" width="119.629" height="118.187" filterUnits="userSpaceOnUse" color-interpolation-filters="sRGB">
<feFlood flood-opacity="0" result="BackgroundImageFix"/>
<feColorMatrix in="SourceAlpha" type="matrix" values="0 0 0 0 0 0 0 0 0 0 0 0 0 0 0 0 0 0 127 0" result="hardAlpha"/>
<feOffset dy="0.610351"/>
<feGaussianBlur stdDeviation="0.305175"/>
<feColorMatrix type="matrix" values="0 0 0 0 0 0 0 0 0 0 0 0 0 0 0 0 0 0 0.25 0"/>
<feBlend mode="normal" in2="BackgroundImageFix" result="effect1_dropShadow_7_5"/>
<feColorMatrix in="SourceAlpha" type="matrix" values="0 0 0 0 0 0 0 0 0 0 0 0 0 0 0 0 0 0 127 0" result="hardAlpha"/>
<feOffset dy="-3.96728"/>
<feGaussianBlur stdDeviation="4.88281"/>
<feColorMatrix type="matrix" values="0 0 0 0 0.0627451 0 0 0 0 0.256 0 0 0 0 0.941176 0 0 0 1 0"/>
<feBlend mode="normal" in2="effect1_dropShadow_7_5" result="effect2_dropShadow_7_5"/>
<feBlend mode="normal" in="SourceGraphic" in2="effect2_dropShadow_7_5" result="shape"/>
<feColorMatrix in="SourceAlpha" type="matrix" values="0 0 0 0 0 0 0 0 0 0 0 0 0 0 0 0 0 0 127 0" result="hardAlpha"/>
<feOffset dy="0.610351"/>
<feGaussianBlur stdDeviation="0.305175"/>
<feComposite in2="hardAlpha" operator="arithmetic" k2="-1" k3="1"/>
<feColorMatrix type="matrix" values="0 0 0 0 0 0 0 0 0 0 0 0 0 0 0 0 0 0 0.25 0"/>
<feBlend mode="normal" in2="shape" result="effect3_innerShadow_7_5"/>
<feColorMatrix in="SourceAlpha" type="matrix" values="0 0 0 0 0 0 0 0 0 0 0 0 0 0 0 0 0 0 127 0" result="hardAlpha"/>
<feOffset dy="-1.83105"/>
<feGaussianBlur stdDeviation="1.52588"/>
<feComposite in2="hardAlpha" operator="arithmetic" k2="-1" k3="1"/>
<feColorMatrix type="matrix" values="0 0 0 0 0 0 0 0 0 0 0 0 0 0 0 0 0 0 0.25 0"/>
<feBlend mode="normal" in2="effect3_innerShadow_7_5" result="effect4_innerShadow_7_5"/>
<feColorMatrix in="SourceAlpha" type="matrix" values="0 0 0 0 0 0 0 0 0 0 0 0 0 0 0 0 0 0 127 0" result="hardAlpha"/>
<feOffset dy="-0.457763"/>
<feGaussianBlur stdDeviation="0.305175"/>
<feComposite in2="hardAlpha" operator="arithmetic" k2="-1" k3="1"/>
<feColorMatrix type="matrix" values="0 0 0 0 0 0 0 0 0 0 0 0 0 0 0 0 0 0 0.25 0"/>
<feBlend mode="normal" in2="effect4_innerShadow_7_5" result="effect5_innerShadow_7_5"/>
<feColorMatrix in="SourceAlpha" type="matrix" values="0 0 0 0 0 0 0 0 0 0 0 0 0 0 0 0 0 0 127 0" result="hardAlpha"/>
<feOffset dx="-1.37329" dy="-1.67847"/>
<feGaussianBlur stdDeviation="4.88281"/>
<feComposite in2="hardAlpha" operator="arithmetic" k2="-1" k3="1"/>
<feColorMatrix type="matrix" values="0 0 0 0 0.0941176 0 0 0 0 0.466667 0 0 0 0 0.94902 0 0 0 0.62 0"/>
<feBlend mode="normal" in2="effect5_innerShadow_7_5" result="effect6_innerShadow_7_5"/>
</filter>
<linearGradient id="paint0_linear_7_5" x1="97" y1="14" x2="97" y2="171.559" gradientUnits="userSpaceOnUse">
<stop stop-color="#0E74F7"/>
<stop offset="0.885788" stop-color="#0F5CF0"/>
<stop offset="1" stop-color="#053DEC"/>
</linearGradient>
<linearGradient id="paint1_linear_7_5" x1="97" y1="14" x2="97" y2="171.559" gradientUnits="userSpaceOnUse">
<stop stop-color="#1877F2"/>
<stop offset="0.885788" stop-color="#0F71F0"/>
<stop offset="1" stop-color="#0066EA"/>
</linearGradient>
<linearGradient id="paint2_linear_7_5" x1="91.8415" y1="16.5244" x2="91.8415" y2="164.049" gradientUnits="userSpaceOnUse">
<stop stop-color="#1877F2"/>
<stop offset="0.885788" stop-color="#0F71F0"/>
<stop offset="1" stop-color="#0066EA"/>
</linearGradient>
</defs>
</svg>
