<svg width="125" height="30" viewBox="0 0 125 30" fill="none" xmlns="http://www.w3.org/2000/svg">
<path d="M9.39339 22.7617C4.43439 16.6041 -0.653269 2.71839 12.4908 5.87637C9.40775 2.58278 -3.33649 3.14613 3.92592 16.7469C5.3747 18.5134 7.18046 20.51 9.39339 22.7617Z" fill="#00B7CD"/>
<path fill-rule="evenodd" clip-rule="evenodd" d="M12.0011 5.61834C8.99078 4.97456 6.95746 5.26268 5.68822 6.19839C4.33907 7.193 3.89377 8.88697 4.01979 10.8352C4.14582 12.7838 4.84357 15.0168 5.81651 17.1439C6.47561 18.5849 7.26318 19.9819 8.09032 21.2148C6.50621 19.5496 5.16273 18.0364 4.03597 16.6631C2.23245 13.2818 1.68375 10.7326 1.90011 8.86454C2.11564 7.00354 3.09257 5.79947 4.38925 5.1037C5.69155 4.40492 7.31851 4.21909 8.81444 4.41445C10.0764 4.57927 11.2265 5.01274 12.0011 5.61834ZM1.63384 8.82946C1.40713 10.787 1.98718 13.4045 3.80953 16.8174L3.81623 16.8299L3.82513 16.8408C5.27718 18.6113 7.08588 20.611 9.30098 22.8649L9.49532 22.668C8.26354 21.1385 7.02192 19.1265 6.05763 17.0184C5.09267 14.9088 4.41019 12.7132 4.28744 10.8154C4.16466 8.91725 4.60202 7.34705 5.84073 6.43386C7.08767 5.51458 9.08233 5.08934 12.3568 5.87606L12.7591 6.01946L12.5859 5.77484C11.7858 4.92013 10.3778 4.33025 8.84707 4.13035C7.31331 3.93004 5.63005 4.11755 4.26872 4.848C2.90176 5.58147 1.86164 6.86253 1.63384 8.82946Z" fill="#00B7CD"/>
<path d="M16.091 22.6233C21.0425 16.5534 26.1331 2.85671 13.0276 5.95479C16.1052 2.70868 28.8069 3.28264 21.5491 16.695C20.1026 18.4364 18.2999 20.4042 16.091 22.6233Z" fill="#00B7CD"/>
<path fill-rule="evenodd" clip-rule="evenodd" d="M13.5222 5.698C16.52 5.06863 18.5442 5.35608 19.807 6.28064C21.1508 7.26445 21.5925 8.9378 21.4641 10.8612C21.3357 12.7847 20.6369 14.9879 19.6641 17.0858C19.0071 18.5028 18.2228 19.8764 17.3994 21.0894C18.9774 19.4513 20.3161 17.9624 21.4393 16.6109C23.2416 13.2767 23.7917 10.7624 23.5788 8.91952C23.3667 7.08387 22.3954 5.89451 21.1038 5.20597C19.8067 4.51447 18.1851 4.32875 16.6937 4.51946C15.439 4.6799 14.295 5.10416 13.5222 5.698ZM23.8451 8.88448C24.0684 10.8177 23.4862 13.4008 21.6649 16.7665L21.6581 16.7791L21.6491 16.7899C20.1993 18.5352 18.3937 20.5062 16.1826 22.7274L15.9895 22.5293C17.2193 21.0217 18.4596 19.0379 19.4236 16.9589C20.3883 14.8785 21.0715 12.713 21.1965 10.8409C21.3215 8.9686 20.8881 7.4193 19.6552 6.51664C18.4135 5.60761 16.5606 5.10511 13.2956 5.87693L12.7589 6.01966L13.1617 5.59061C13.9671 4.87561 15.136 4.43037 16.6618 4.23527C18.1906 4.03977 19.868 4.22716 21.2237 4.94993C22.5851 5.67566 23.6206 6.94173 23.8451 8.88448Z" fill="#00B7CD"/>
<path d="M12.4903 6.59188C-1.72669 3.14726 3.22784 15.6015 6.44214 22.9027C-5.48378 4.5756 1.22645 0.43018 12.4903 6.59188Z" fill="#34485F"/>
<path fill-rule="evenodd" clip-rule="evenodd" d="M11.4882 6.22327C8.48785 5.62078 6.41007 5.79449 5.03522 6.53285C3.4934 7.36087 2.86512 8.88099 2.79551 10.712C2.72612 12.5369 3.20915 14.691 3.90515 16.8365C4.40944 18.3911 5.02795 19.9483 5.63593 21.3822C3.1981 17.4662 1.67315 14.2576 0.8996 11.7119C0.0314026 8.85484 0.119243 6.86607 0.881789 5.64343C1.63938 4.42874 3.09883 3.91695 5.10446 4.10645C6.88084 4.27429 9.05924 4.99156 11.4882 6.22327ZM0.644385 11.8002C1.5221 14.6886 3.34687 18.3971 6.332 22.9845L6.56362 22.8421C5.76033 21.0174 4.85058 18.8758 4.15869 16.7429C3.46598 14.6075 2.99626 12.4942 3.06358 10.7236C3.13067 8.95892 3.72854 7.55502 5.15583 6.78851C6.59771 6.01416 8.91516 5.87258 12.4606 6.73161L12.5516 6.4647C9.72753 4.91986 7.17873 4.01509 5.12815 3.82134C3.08035 3.62785 1.49563 4.14255 0.658429 5.48489C-0.173823 6.81929 -0.231419 8.9181 0.644385 11.8002Z" fill="#34485F"/>
<path d="M13.0269 6.66536C27.2452 3.25641 22.2742 15.6476 19.0504 22.9115C30.9993 4.68366 24.2967 0.547359 13.0269 6.66536Z" fill="#34485F"/>
<path fill-rule="evenodd" clip-rule="evenodd" d="M14.0331 6.29825C17.0314 5.70366 19.1071 5.87973 20.4798 6.61634C22.0201 7.44282 22.6463 8.9572 22.7133 10.7805C22.7801 12.5976 22.294 14.7414 21.5952 16.8764C21.0891 18.4224 20.4689 19.9708 19.8594 21.3968C22.3016 17.5025 23.8304 14.311 24.6073 11.7783C25.4793 8.93542 25.3942 6.95593 24.6338 5.73809C23.8782 4.52794 22.4198 4.01626 20.4142 4.20208C18.639 4.36656 16.4616 5.07681 14.0331 6.29825ZM24.8623 11.8673C23.9806 14.7416 22.151 18.4309 19.1601 22.9935L18.9289 22.8502C19.7346 21.0349 20.6471 18.9043 21.3419 16.782C22.0374 14.6572 22.51 12.5543 22.4452 10.7917C22.3806 9.03536 21.7851 7.63713 20.3593 6.87205C18.9187 6.09907 16.6019 5.95486 13.0561 6.805L12.9659 6.53782C15.7914 5.00394 18.3408 4.10689 20.391 3.91693C22.4384 3.72724 24.0219 4.24175 24.8571 5.5794C25.6875 6.90936 25.742 8.99928 24.8623 11.8673Z" fill="#34485F"/>
<path d="M0.68871 1.71801C0.688035 2.66648 1.4082 3.43589 2.29723 3.43652C3.18627 3.43715 3.90753 2.66877 3.9082 1.7203C3.90888 0.771822 3.18872 0.00241707 2.29968 0.00178473C1.41064 0.00115239 0.689385 0.769532 0.68871 1.71801Z" fill="#34485F"/>
<path d="M24.8364 1.73504C24.8358 2.68352 24.1145 3.4519 23.2255 3.45126C22.3364 3.45063 21.6163 2.68123 21.6169 1.73275C21.6176 0.784273 22.3389 0.0158935 23.2279 0.0165258C24.1169 0.0171582 24.8371 0.786563 24.8364 1.73504Z" fill="#34485F"/>
<path d="M38.151 23.33C36.567 23.33 35.2177 22.9853 34.103 22.296C32.9883 21.5993 32.134 20.6313 31.54 19.392C30.9533 18.1527 30.66 16.7153 30.66 15.08C30.66 13.4447 30.9533 12.0073 31.54 10.768C32.134 9.52867 32.9883 8.56433 34.103 7.875C35.2177 7.17833 36.567 6.83 38.151 6.83C39.977 6.83 41.4877 7.292 42.683 8.216C43.8857 9.14 44.7217 10.383 45.191 11.945L42.859 12.572C42.551 11.4647 42.001 10.5957 41.209 9.965C40.4243 9.33433 39.405 9.019 38.151 9.019C37.029 9.019 36.094 9.272 35.346 9.778C34.598 10.284 34.0333 10.9917 33.652 11.901C33.278 12.8103 33.091 13.87 33.091 15.08C33.0837 16.29 33.267 17.3497 33.641 18.259C34.0223 19.1683 34.587 19.876 35.335 20.382C36.0903 20.888 37.029 21.141 38.151 21.141C39.405 21.141 40.4243 20.8257 41.209 20.195C42.001 19.557 42.551 18.688 42.859 17.588L45.191 18.215C44.7217 19.777 43.8857 21.02 42.683 21.944C41.4877 22.868 39.977 23.33 38.151 23.33ZM52.7693 23.33C51.5813 23.33 50.551 23.0623 49.6783 22.527C48.8056 21.9917 48.131 21.2547 47.6543 20.316C47.185 19.37 46.9503 18.281 46.9503 17.049C46.9503 15.8097 47.1923 14.7207 47.6763 13.782C48.1603 12.836 48.8386 12.1027 49.7113 11.582C50.584 11.054 51.6033 10.79 52.7693 10.79C53.9573 10.79 54.9876 11.0577 55.8603 11.593C56.733 12.1283 57.4076 12.8653 57.8843 13.804C58.361 14.7427 58.5993 15.8243 58.5993 17.049C58.5993 18.2883 58.3573 19.381 57.8733 20.327C57.3966 21.2657 56.722 22.0027 55.8493 22.538C54.9766 23.066 53.95 23.33 52.7693 23.33ZM52.7693 21.163C53.906 21.163 54.753 20.7817 55.3103 20.019C55.875 19.249 56.1573 18.259 56.1573 17.049C56.1573 15.8097 55.8713 14.8197 55.2993 14.079C54.7346 13.331 53.8913 12.957 52.7693 12.957C51.9993 12.957 51.365 13.133 50.8663 13.485C50.3676 13.8297 49.9973 14.31 49.7553 14.926C49.5133 15.5347 49.3923 16.2423 49.3923 17.049C49.3923 18.2957 49.6783 19.293 50.2503 20.041C50.8223 20.789 51.662 21.163 52.7693 21.163ZM60.1366 25.64V21.152C60.7892 21.152 61.2549 20.9357 61.5336 20.503C61.8196 20.063 62.0469 19.3187 62.2156 18.27C62.3182 17.632 62.4026 16.9537 62.4686 16.235C62.5419 15.5163 62.6042 14.739 62.6556 13.903C62.7069 13.0597 62.7582 12.132 62.8096 11.12H71.3236V21.152H72.4896V25.64H70.3116V23H62.3256V25.64H60.1366ZM63.4256 21.152H69.0136V12.968H64.8556C64.8262 13.452 64.7932 13.9507 64.7566 14.464C64.7272 14.9773 64.6906 15.487 64.6466 15.993C64.6099 16.499 64.5659 16.983 64.5146 17.445C64.4632 17.907 64.4046 18.325 64.3386 18.699C64.2506 19.2783 64.1442 19.7623 64.0196 20.151C63.9022 20.5397 63.7042 20.8733 63.4256 21.152ZM73.8006 25.64V21.152C74.4533 21.152 74.919 20.9357 75.1976 20.503C75.4836 20.063 75.711 19.3187 75.8796 18.27C75.9823 17.632 76.0666 16.9537 76.1326 16.235C76.206 15.5163 76.2683 14.739 76.3196 13.903C76.371 13.0597 76.4223 12.132 76.4736 11.12H84.9876V21.152H86.1536V25.64H83.9756V23H75.9896V25.64H73.8006ZM77.0896 21.152H82.6776V12.968H78.5196C78.4903 13.452 78.4573 13.9507 78.4206 14.464C78.3913 14.9773 78.3546 15.487 78.3106 15.993C78.274 16.499 78.23 16.983 78.1786 17.445C78.1273 17.907 78.0686 18.325 78.0026 18.699C77.9146 19.2783 77.8083 19.7623 77.6836 20.151C77.5663 20.5397 77.3683 20.8733 77.0896 21.152ZM93.6137 23.33C92.433 23.33 91.3954 23.0733 90.5007 22.56C89.6134 22.0393 88.9204 21.317 88.4217 20.393C87.9304 19.4617 87.6847 18.3837 87.6847 17.159C87.6847 15.861 87.9267 14.7353 88.4107 13.782C88.902 12.8287 89.584 12.0917 90.4567 11.571C91.3294 11.0503 92.345 10.79 93.5037 10.79C94.7137 10.79 95.744 11.0723 96.5947 11.637C97.4454 12.1943 98.0797 12.99 98.4977 14.024C98.923 15.058 99.0917 16.2863 99.0037 17.709H96.7047V16.873C96.69 15.4943 96.426 14.475 95.9127 13.815C95.4067 13.155 94.633 12.825 93.5917 12.825C92.4404 12.825 91.575 13.188 90.9957 13.914C90.4164 14.64 90.1267 15.6887 90.1267 17.06C90.1267 18.3653 90.4164 19.3773 90.9957 20.096C91.575 20.8073 92.411 21.163 93.5037 21.163C94.2224 21.163 94.842 21.0017 95.3627 20.679C95.8907 20.349 96.3014 19.8797 96.5947 19.271L98.8497 19.986C98.3877 21.0493 97.6874 21.8743 96.7487 22.461C95.81 23.0403 94.765 23.33 93.6137 23.33ZM89.3787 17.709V15.916H97.8597V17.709H89.3787ZM101.461 23V11.12H103.76V15.971H109.557V11.12H111.856V23H109.557V18.138H103.76V23H101.461ZM118.011 23V13.188H113.952V11.12H124.369V13.188H120.31V23H118.011Z" fill="black"/>
</svg>
