<svg width="1061" height="596" viewBox="0 0 1061 596" fill="none" xmlns="http://www.w3.org/2000/svg">
<path d="M47.8248 14.6652C55.393 18.4999 66.3373 18.5427 73.9353 14.7673C80.1086 11.6997 87.0015 11.44 93.3477 14.7044C106.743 21.5947 112.683 41.603 106.767 59.6051L106.77 59.6069L102.812 71.141C101.878 73.8636 99.6582 75.6387 97.2001 75.6291L24.085 75.3432C21.6269 75.3336 19.4213 73.5412 18.5083 70.8114L14.6406 59.2467L14.6442 59.245C8.86824 41.1972 14.9649 21.2359 28.4136 14.4506C34.7852 11.2359 41.6757 11.5495 47.8248 14.6652Z" fill="url(#paint0_linear_111_2251)"/>
<path d="M47.8248 14.6652C55.393 18.4999 66.3373 18.5427 73.9353 14.7673C80.1086 11.6997 87.0015 11.44 93.3477 14.7044C106.743 21.5947 112.683 41.603 106.767 59.6051L106.77 59.6069L102.812 71.141C101.878 73.8636 99.6582 75.6387 97.2001 75.6291L24.085 75.3432C21.6269 75.3336 19.4213 73.5412 18.5083 70.8114L14.6406 59.2467L14.6442 59.245C8.86824 41.1972 14.9649 21.2359 28.4136 14.4506C34.7852 11.2359 41.6757 11.5495 47.8248 14.6652Z" fill="url(#paint1_linear_111_2251)" fill-opacity="0.1"/>
<path d="M47.8248 14.6652C55.393 18.4999 66.3373 18.5427 73.9353 14.7673C80.1086 11.6997 87.0015 11.44 93.3477 14.7044C106.743 21.5947 112.683 41.603 106.767 59.6051L106.77 59.6069L102.812 71.141C101.878 73.8636 99.6582 75.6387 97.2001 75.6291L24.085 75.3432C21.6269 75.3336 19.4213 73.5412 18.5083 70.8114L14.6406 59.2467L14.6442 59.245C8.86824 41.1972 14.9649 21.2359 28.4136 14.4506C34.7852 11.2359 41.6757 11.5495 47.8248 14.6652Z" fill="url(#paint2_linear_111_2251)" fill-opacity="0.05"/>
<path d="M33.4562 80.7985L87.7865 81.0109L76.2776 121.53C73.9689 129.658 67.5797 135.118 60.4096 135.09C53.2394 135.062 46.8931 129.552 44.648 121.406L33.4562 80.7985Z" fill="url(#paint3_linear_111_2251)"/>
<path d="M18.368 79.8364C18.3777 77.3426 20.0749 75.3276 22.1586 75.3357L99.1265 75.6366C101.21 75.6448 102.892 77.673 102.882 80.1668C102.872 82.6606 101.175 84.6757 99.0912 84.6675L22.1233 84.3666C20.0395 84.3585 18.3582 82.3302 18.368 79.8364Z" fill="url(#paint4_linear_111_2251)"/>
<path d="M40.8467 120.564C40.8545 118.569 42.2122 116.957 43.8792 116.963L77.0811 117.093C78.7481 117.1 80.0931 118.722 80.0853 120.717C80.0775 122.712 78.7198 124.324 77.0528 124.318L43.851 124.188C42.184 124.182 40.8389 122.559 40.8467 120.564Z" fill="url(#paint5_linear_111_2251)"/>
<path d="M37.1232 107.906C37.131 105.911 38.4887 104.299 40.1557 104.305L80.9034 104.465C82.5704 104.471 83.9155 106.094 83.9077 108.089C83.8999 110.084 82.5422 111.696 80.8752 111.689L40.1275 111.53C38.4605 111.524 37.1154 109.901 37.1232 107.906Z" fill="url(#paint6_linear_111_2251)"/>
<path d="M33.3997 95.2479C33.4075 93.2529 34.7652 91.6408 36.4322 91.6474L84.7258 91.8362C86.3928 91.8427 87.7378 93.4653 87.73 95.4603C87.7222 97.4554 86.3645 99.0674 84.6976 99.0609L36.404 98.8721C34.737 98.8655 33.3919 97.243 33.3997 95.2479Z" fill="url(#paint7_linear_111_2251)"/>
<path d="M221.4 46.4808L275.73 46.6932L273.598 68.7291C272.981 75.1049 275.525 81.321 280.11 84.6406L216.724 84.3928C221.335 81.1091 223.928 74.9131 223.361 68.5327L221.4 46.4808Z" fill="url(#paint8_linear_111_2251)"/>
<path d="M221.4 46.4808L275.73 46.6932L273.598 68.7291C272.981 75.1049 275.525 81.321 280.11 84.6406L216.724 84.3928C221.335 81.1091 223.928 74.9131 223.361 68.5327L221.4 46.4808Z" fill="url(#paint9_linear_111_2251)" fill-opacity="0.4"/>
<path d="M221.4 46.4808L275.73 46.6932L273.598 68.7291C272.981 75.1049 275.525 81.321 280.11 84.6406L216.724 84.3928C221.335 81.1091 223.928 74.9131 223.361 68.5327L221.4 46.4808Z" fill="url(#paint10_linear_111_2251)" fill-opacity="0.05"/>
<path d="M221.4 46.4808L275.73 46.6932L273.598 68.7291C272.981 75.1049 275.525 81.321 280.11 84.6406L216.724 84.3928C221.335 81.1091 223.928 74.9131 223.361 68.5327L221.4 46.4808Z" fill="url(#paint11_linear_111_2251)" fill-opacity="0.2"/>
<path d="M282.784 91.1492C283.518 88.4724 282.475 85.5482 280.328 84.3992L259.464 73.2337C252.472 69.4919 244.481 69.4607 237.46 73.1475L216.509 84.1494C214.353 85.2815 213.287 88.1976 214 90.88C216.142 98.9374 217.149 104.478 218.806 114.009L220.754 125.216C221.736 129.899 225.255 133.188 229.303 133.21C229.307 133.21 229.31 133.21 229.314 133.21C229.317 133.21 229.32 133.21 229.324 133.21C233.672 133.221 237.391 129.469 238.102 124.351L242.296 94.4269C242.79 90.8678 245.378 88.1173 248.403 88.1291C251.428 88.141 253.995 90.9116 254.461 94.4745L258.422 124.431C259.092 129.554 262.781 133.335 267.13 133.357C267.133 133.357 267.137 133.357 267.14 133.357C267.143 133.358 267.147 133.358 267.15 133.358C271.199 133.368 274.744 130.106 275.762 125.431L277.797 114.24C279.529 104.722 280.579 99.1895 282.784 91.1492Z" fill="url(#paint12_linear_111_2251)"/>
<path d="M282.784 91.1492C283.518 88.4724 282.475 85.5482 280.328 84.3992L259.464 73.2337C252.472 69.4919 244.481 69.4607 237.46 73.1475L216.509 84.1494C214.353 85.2815 213.287 88.1976 214 90.88C216.142 98.9374 217.149 104.478 218.806 114.009L220.754 125.216C221.736 129.899 225.255 133.188 229.303 133.21C229.307 133.21 229.31 133.21 229.314 133.21C229.317 133.21 229.32 133.21 229.324 133.21C233.672 133.221 237.391 129.469 238.102 124.351L242.296 94.4269C242.79 90.8678 245.378 88.1173 248.403 88.1291C251.428 88.141 253.995 90.9116 254.461 94.4745L258.422 124.431C259.092 129.554 262.781 133.335 267.13 133.357C267.133 133.357 267.137 133.357 267.14 133.357C267.143 133.358 267.147 133.358 267.15 133.358C271.199 133.368 274.744 130.106 275.762 125.431L277.797 114.24C279.529 104.722 280.579 99.1895 282.784 91.1492Z" fill="url(#paint13_radial_111_2251)" fill-opacity="0.2"/>
<path d="M235.628 16.5036C243.196 20.3891 254.14 20.4319 261.738 16.6057C264.928 14.9994 268.31 14.1528 271.709 14.1658L271.712 14.1658C274.891 14.1785 278.085 14.9429 281.151 16.541C294.546 23.5225 300.485 43.7973 294.567 62.0397L294.571 62.0415C293.901 63.751 293.212 65.4678 292.539 67.192C291.494 69.8653 288.892 71.1688 286.602 70.0814L259.561 57.2378C252.48 53.8747 244.594 53.8439 237.487 57.1515L210.346 69.7832C208.048 70.8527 205.456 69.5289 204.433 66.8474C203.773 65.118 203.097 63.3959 202.441 61.6814L202.445 61.6795C196.67 43.3914 202.768 23.1637 216.217 16.2872C222.588 13.0293 229.479 13.3467 235.628 16.5036Z" fill="url(#paint14_linear_111_2251)"/>
<path fill-rule="evenodd" clip-rule="evenodd" d="M449.051 12.9916C441.516 16.818 430.663 16.7755 423.158 12.8903C417.06 9.73361 410.227 9.41638 403.909 12.6745C390.574 19.5501 384.526 39.7715 390.247 58.0566C390.248 58.0607 390.248 58.0651 390.247 58.0691V58.0691L392.036 62.7798C398.083 78.7037 402.624 95.3894 405.572 112.526L408.376 128.827C409.35 133.514 412.845 136.805 416.864 136.821C421.181 136.838 424.874 133.084 425.579 127.962L429.741 97.7423C430.231 94.1831 432.797 91.5746 435.797 91.5863C438.797 91.5981 441.343 94.2266 441.805 97.7895L445.73 128.041C446.395 133.168 450.059 136.951 454.376 136.968C458.395 136.983 461.915 133.72 462.926 129.041L465.858 112.762C468.94 95.6486 473.611 78.999 479.783 63.1229L481.608 58.4263V58.4263C481.607 58.4222 481.607 58.4178 481.608 58.4138C487.472 40.1739 481.582 19.9059 468.302 12.9262C462.009 9.61878 455.173 9.8826 449.051 12.9916Z" fill="url(#paint15_linear_111_2251)"/>
<path fill-rule="evenodd" clip-rule="evenodd" d="M261.241 237.762C253.706 241.588 242.853 241.546 235.348 237.661C229.251 234.504 222.418 234.187 216.099 237.445C202.764 244.32 196.716 264.542 202.437 282.827C202.438 282.831 202.438 282.835 202.437 282.839V282.839L204.226 287.55C210.274 303.474 214.814 320.16 217.762 337.296L220.566 353.598C221.541 358.285 225.035 361.576 229.055 361.592C233.371 361.608 237.064 357.855 237.77 352.733L241.931 322.513C242.421 318.954 244.988 316.345 247.987 316.357C250.987 316.368 253.533 318.997 253.995 322.56L257.92 352.811C258.586 357.939 262.249 361.721 266.566 361.738C270.585 361.754 274.105 358.49 275.116 353.811L278.048 337.532C281.13 320.419 285.801 303.769 291.973 287.893L293.799 283.197V283.197C293.797 283.193 293.797 283.188 293.798 283.184C299.662 264.944 293.772 244.676 280.492 237.697C274.199 234.389 267.363 234.653 261.241 237.762Z" fill="url(#paint16_linear_111_2251)"/>
<path d="M201.02 277.025C205.739 290.805 213.458 305.443 225.659 318.095C230.387 322.998 235.508 327.085 240.835 330.475L241.931 322.513C242.421 318.954 244.988 316.345 247.987 316.357C250.987 316.368 253.533 318.997 253.995 322.56L256.024 338.199C263.052 340.987 270.132 342.835 276.886 343.987L278.048 337.532C281.13 320.419 285.801 303.769 291.973 287.893L293.799 283.197C293.797 283.193 293.797 283.188 293.798 283.184C299.662 264.944 293.772 244.676 280.492 237.697C274.199 234.389 267.363 234.653 261.241 237.762C253.706 241.588 242.853 241.546 235.348 237.661C229.251 234.504 222.418 234.187 216.099 237.445C204.163 243.599 198.066 260.446 201.02 277.025Z" fill="url(#paint17_linear_111_2251)"/>
<path d="M201.02 277.025C205.739 290.805 213.458 305.443 225.659 318.095C230.387 322.998 235.508 327.085 240.835 330.475L241.931 322.513C242.421 318.954 244.988 316.345 247.987 316.357C250.987 316.368 253.533 318.997 253.995 322.56L256.024 338.199C263.052 340.987 270.132 342.835 276.886 343.987L278.048 337.532C281.13 320.419 285.801 303.769 291.973 287.893L293.799 283.197C293.797 283.193 293.797 283.188 293.798 283.184C299.662 264.944 293.772 244.676 280.492 237.697C274.199 234.389 267.363 234.653 261.241 237.762C253.706 241.588 242.853 241.546 235.348 237.661C229.251 234.504 222.418 234.187 216.099 237.445C204.163 243.599 198.066 260.446 201.02 277.025Z" fill="url(#paint18_linear_111_2251)" fill-opacity="0.1"/>
<path d="M201.02 277.025C205.739 290.805 213.458 305.443 225.659 318.095C230.387 322.998 235.508 327.085 240.835 330.475L241.931 322.513C242.421 318.954 244.988 316.345 247.987 316.357C250.987 316.368 253.533 318.997 253.995 322.56L256.024 338.199C263.052 340.987 270.132 342.835 276.886 343.987L278.048 337.532C281.13 320.419 285.801 303.769 291.973 287.893L293.799 283.197C293.797 283.193 293.797 283.188 293.798 283.184C299.662 264.944 293.772 244.676 280.492 237.697C274.199 234.389 267.363 234.653 261.241 237.762C253.706 241.588 242.853 241.546 235.348 237.661C229.251 234.504 222.418 234.187 216.099 237.445C204.163 243.599 198.066 260.446 201.02 277.025Z" fill="url(#paint19_linear_111_2251)" fill-opacity="0.1"/>
<path d="M233.407 325.162C231.657 323.76 229.941 322.268 228.269 320.682C227.491 312.333 225.701 304.147 222.943 296.386L216.437 278.078C212.029 265.673 221.441 252.589 232.35 255.959L239.662 258.217C244.542 259.725 249.661 259.745 254.553 258.275L262.663 255.839C273.454 252.598 282.731 265.398 278.527 277.728L271.82 297.404C268.315 307.686 266.491 318.675 266.447 329.774L266.401 341.664C265.288 341.358 264.172 341.031 263.054 340.682L261.28 318.986C260.79 312.997 257.714 307.757 253.174 305.176C249.701 303.202 245.671 303.187 242.183 305.133C237.623 307.678 234.506 312.894 233.97 318.879L233.407 325.162Z" fill="url(#paint20_radial_111_2251)"/>
<path fill-rule="evenodd" clip-rule="evenodd" d="M73.4313 237.761C65.8963 241.588 55.0432 241.545 47.5384 237.66C41.4408 234.504 34.6077 234.186 28.289 237.444C14.9544 244.32 8.90655 264.541 14.6271 282.826C14.6284 282.831 14.6283 282.835 14.6269 282.839V282.839L16.416 287.55C22.4637 303.474 27.0039 320.159 29.952 337.296L32.7565 353.597C33.7308 358.284 37.2255 361.575 41.2448 361.591C45.5615 361.608 49.2544 357.854 49.9598 352.732L54.1215 322.512C54.6116 318.953 57.1778 316.344 60.1775 316.356C63.1772 316.368 65.723 318.996 66.1853 322.559L70.1104 352.811C70.7757 357.938 74.4391 361.721 78.7559 361.738C82.7752 361.753 86.2955 358.49 87.3064 353.811L90.2382 337.532C93.3203 320.419 97.9908 303.769 104.163 287.893L105.989 283.196V283.196C105.987 283.192 105.987 283.188 105.989 283.184C111.852 264.944 105.962 244.676 92.682 237.696C86.3889 234.389 79.5535 234.652 73.4313 237.761Z" fill="url(#paint21_linear_111_2251)"/>
<mask id="mask0_111_2251" style="mask-type:alpha" maskUnits="userSpaceOnUse" x="12" y="235" width="97" height="127">
<path fill-rule="evenodd" clip-rule="evenodd" d="M73.4313 237.761C65.8963 241.588 55.0432 241.545 47.5384 237.66C41.4408 234.504 34.6077 234.186 28.289 237.444C14.9544 244.32 8.90655 264.541 14.6271 282.826C14.6284 282.831 14.6283 282.835 14.6269 282.839V282.839L16.416 287.55C22.4637 303.474 27.0039 320.159 29.952 337.296L32.7565 353.597C33.7308 358.284 37.2255 361.575 41.2448 361.591C45.5615 361.608 49.2544 357.854 49.9598 352.732L54.1215 322.512C54.6116 318.953 57.1778 316.344 60.1775 316.356C63.1772 316.368 65.723 318.996 66.1853 322.559L70.1104 352.811C70.7757 357.938 74.4391 361.721 78.7559 361.738C82.7752 361.753 86.2955 358.49 87.3064 353.811L90.2382 337.532C93.3203 320.419 97.9908 303.769 104.163 287.893L105.989 283.196V283.196C105.987 283.192 105.987 283.188 105.989 283.184C111.852 264.944 105.962 244.676 92.682 237.696C86.3889 234.389 79.5535 234.652 73.4313 237.761Z" fill="url(#paint22_linear_111_2251)"/>
</mask>
<g mask="url(#mask0_111_2251)">
<path d="M45.7511 248.945C45.7532 248.406 45.325 247.968 44.7916 247.886C39.9232 247.138 36.1737 242.15 36.1972 236.122L36.2049 234.152C36.2262 228.711 39.9078 229.733 44.4541 229.751C46.8488 229.76 48.9999 230.992 50.4965 232.952C53.2165 229.874 56.8894 227.993 60.9249 228.009C64.9605 228.025 68.6115 231.741 71.3073 234.839C72.8192 232.892 74.9798 231.676 77.3745 231.686C81.9209 231.703 85.5892 236.129 85.5679 241.57L85.5602 243.54C85.5366 249.567 81.7482 254.527 76.8741 255.237C76.3401 255.314 75.9085 255.749 75.9064 256.288L75.9037 256.967C75.8647 266.942 69.0763 275.002 60.7414 274.969C52.4064 274.937 45.6812 266.824 45.7202 256.849L45.7511 248.945Z" fill="url(#paint23_linear_111_2251)"/>
</g>
<path fill-rule="evenodd" clip-rule="evenodd" d="M261.241 462.532C253.706 466.359 242.853 466.316 235.348 462.431C229.251 459.274 222.417 458.957 216.099 462.215C202.764 469.091 196.716 489.312 202.437 507.597C202.438 507.601 202.438 507.606 202.437 507.61V507.61L204.226 512.321C210.273 528.244 214.814 544.93 217.762 562.067L220.566 578.368C221.541 583.055 225.035 586.346 229.055 586.362C233.371 586.379 237.064 582.625 237.77 577.503L241.931 547.283C242.421 543.724 244.988 541.115 247.987 541.127C250.987 541.139 253.533 543.767 253.995 547.33L257.92 577.582C258.585 582.709 262.249 586.492 266.566 586.508C270.585 586.524 274.105 583.261 275.116 578.581L278.048 562.302C281.13 545.189 285.801 528.54 291.973 512.664L293.798 507.967V507.967C293.797 507.963 293.797 507.959 293.798 507.954C299.662 489.715 293.772 469.447 280.492 462.467C274.199 459.159 267.363 459.423 261.241 462.532Z" fill="url(#paint24_linear_111_2251)"/>
<g filter="url(#filter0_f_111_2251)">
<path d="M219.46 478.69L218.071 470.571C217.907 469.613 217.079 468.912 216.107 468.908L215.915 468.907C214.921 468.903 214.075 469.63 213.929 470.613L212.764 478.455C212.342 481.297 210.226 483.592 207.428 484.244L200.34 485.895C199.438 486.105 198.798 486.908 198.794 487.835L198.791 488.692C198.787 489.654 199.469 490.482 200.413 490.664L207.08 491.945C210.035 492.512 212.297 494.905 212.697 497.887L213.8 506.097C213.933 507.086 214.775 507.826 215.774 507.83L215.942 507.831C216.919 507.835 217.756 507.132 217.921 506.169L219.372 497.712C219.866 494.834 222.094 492.565 224.962 492.019L230.957 490.877C232.154 490.649 233.022 489.604 233.027 488.385C233.032 487.212 232.234 486.188 231.096 485.904L224.667 484.302C221.971 483.63 219.928 481.428 219.46 478.69Z" fill="url(#paint25_linear_111_2251)"/>
</g>
<path d="M217.805 478.329L216.927 469.751C216.879 469.273 216.477 468.909 215.997 468.908C215.507 468.906 215.098 469.28 215.058 469.768L214.371 477.993C214.019 482.216 210.783 485.63 206.584 486.207L199.789 487.141C199.22 487.22 198.795 487.705 198.792 488.28C198.79 488.874 199.239 489.372 199.829 489.433L206.555 490.119C210.714 490.544 213.967 493.893 214.269 498.063L214.915 506.963C214.95 507.451 215.355 507.829 215.844 507.831C216.324 507.833 216.728 507.471 216.778 506.994L217.758 497.758C218.184 493.749 221.369 490.592 225.382 490.202L231.981 489.561C232.572 489.504 233.025 489.008 233.027 488.413C233.029 487.838 232.609 487.349 232.04 487.263L225.379 486.266C221.338 485.661 218.22 482.394 217.805 478.329Z" fill="url(#paint26_linear_111_2251)"/>
<g filter="url(#filter1_f_111_2251)">
<path d="M277.873 529.612L277.296 526.239C277.187 525.603 276.637 525.137 275.992 525.134C275.332 525.132 274.77 525.614 274.673 526.267L274.209 529.39C273.787 532.231 271.671 534.527 268.873 535.178L266.394 535.756C265.676 535.923 265.167 536.561 265.164 537.298C265.161 538.063 265.703 538.722 266.454 538.866L268.539 539.267C271.494 539.834 273.756 542.227 274.156 545.209L274.593 548.465C274.681 549.117 275.237 549.605 275.896 549.608C276.54 549.611 277.092 549.147 277.201 548.512L277.8 545.022C278.293 542.144 280.521 539.875 283.389 539.329L285.388 538.948C286.141 538.805 286.687 538.148 286.69 537.381C286.693 536.644 286.192 536 285.476 535.821L283.08 535.224C280.385 534.552 278.342 532.35 277.873 529.612Z" fill="url(#paint27_linear_111_2251)"/>
</g>
<path d="M277.119 531.058L276.567 525.665C276.536 525.364 276.284 525.136 275.982 525.134C275.674 525.133 275.417 525.369 275.391 525.676L274.96 530.847C274.738 533.503 272.704 535.649 270.064 536.012L265.791 536.599C265.433 536.648 265.166 536.954 265.164 537.315C265.163 537.689 265.445 538.002 265.816 538.04L270.045 538.472C272.66 538.738 274.706 540.845 274.896 543.466L275.302 549.062C275.324 549.369 275.579 549.607 275.886 549.608C276.188 549.609 276.442 549.382 276.473 549.082L277.09 543.275C277.357 540.754 279.36 538.769 281.883 538.524L286.032 538.121C286.404 538.085 286.688 537.773 286.69 537.399C286.691 537.037 286.427 536.729 286.07 536.676L281.881 536.049C279.34 535.669 277.38 533.615 277.119 531.058Z" fill="url(#paint28_linear_111_2251)"/>
<path fill-rule="evenodd" clip-rule="evenodd" d="M73.4312 462.532C65.8962 466.359 55.0431 466.316 47.5383 462.431C41.4407 459.274 34.6076 458.957 28.2889 462.215C14.9517 469.092 8.9041 489.32 14.6304 507.608L14.6268 507.61L24.0067 536.275L32.7564 578.368C33.7307 583.055 37.2254 586.346 41.2447 586.362C45.5615 586.379 49.2543 582.625 49.9597 577.503L54.1214 547.283C54.6115 543.724 57.1777 541.115 60.1774 541.127C63.1771 541.139 65.7229 543.767 66.1852 547.33L70.1104 577.582C70.7756 582.709 74.439 586.492 78.7558 586.509C82.7751 586.524 86.2954 583.261 87.3063 578.581L96.3849 536.558L105.989 507.967L105.985 507.965C111.854 489.723 105.965 469.448 92.6819 462.467C86.3888 459.16 79.5534 459.423 73.4312 462.532Z" fill="url(#paint29_linear_111_2251)"/>
<mask id="mask1_111_2251" style="mask-type:alpha" maskUnits="userSpaceOnUse" x="14" y="473" width="95" height="114">
<path fill-rule="evenodd" clip-rule="evenodd" d="M14.8075 508.166L24.0054 536.275L32.7551 578.368C33.7294 583.055 37.2241 586.346 41.2434 586.362C45.5601 586.379 49.253 582.625 49.9584 577.503L54.1201 547.283C54.6102 543.724 57.1764 541.115 60.1761 541.127C63.1758 541.139 65.7216 543.767 66.1839 547.33L70.109 577.582C70.7743 582.709 74.4377 586.492 78.7545 586.509C82.7738 586.524 86.2941 583.261 87.305 578.581L96.3836 536.558L105.987 507.967L105.984 507.965C109.844 495.968 108.618 483.092 103.548 473.696L14.8075 508.166Z" fill="url(#paint30_linear_111_2251)"/>
</mask>
<g mask="url(#mask1_111_2251)">
<rect x="0.476746" y="473.293" width="117" height="121.939" transform="rotate(0.223996 0.476746 473.293)" fill="url(#paint31_linear_111_2251)"/>
<g filter="url(#filter2_f_111_2251)">
<path d="M74.298 522.53C79.7071 524.809 85.6535 521.503 87.693 515.082L94.5211 493.585L101.721 474.614L18.915 506.756C27.1063 505.244 35.4802 506.175 43.293 509.466L74.298 522.53Z" fill="url(#paint32_linear_111_2251)" fill-opacity="0.17"/>
</g>
<g filter="url(#filter3_f_111_2251)">
<path d="M56.1328 515.573C74.8797 524 95.2542 508.969 97.4042 485.126C97.5415 483.604 97.9716 482.14 98.6609 480.848L103.748 471.318L101.721 474.614L18.9151 506.756L19.66 506.619C27.3519 505.198 35.217 506.171 42.498 509.444L56.1328 515.573Z" fill="url(#paint33_linear_111_2251)" fill-opacity="0.17"/>
</g>
<g filter="url(#filter4_f_111_2251)">
<path d="M72.2618 522.823C82.7221 527.525 94.0443 518.909 94.9327 505.571C95.3276 499.641 96.4562 493.814 98.2817 488.279L101.663 478.028C102.567 475.286 100.115 472.696 97.953 474.109L18.9151 506.756L25.3351 505.571C29.3063 504.837 33.367 505.34 37.1261 507.029L72.2618 522.823Z" fill="url(#paint34_linear_111_2251)" fill-opacity="0.17"/>
</g>
<path d="M90.2225 499.643C86.6558 509.176 77.9218 514.32 69.4432 511.884L52.0409 506.882C39.8951 504.045 27.3743 504.419 15.3544 507.978L103.625 473.662C100.883 474.728 98.6448 477.134 97.4663 480.284L90.2225 499.643Z" fill="url(#paint35_linear_111_2251)"/>
</g>
<path fill-rule="evenodd" clip-rule="evenodd" d="M449.051 462.532C441.516 466.359 430.663 466.316 423.158 462.431C417.06 459.274 410.227 458.957 403.909 462.215C390.574 469.091 384.526 489.312 390.247 507.597C390.248 507.601 390.248 507.606 390.247 507.61V507.61L392.036 512.32C398.083 528.244 402.624 544.93 405.572 562.067L408.376 578.368C409.35 583.055 412.845 586.346 416.864 586.362C421.181 586.379 424.874 582.625 425.579 577.503L429.741 547.283C430.231 543.724 432.797 541.115 435.797 541.127C438.797 541.139 441.343 543.767 441.805 547.33L445.73 577.582C446.395 582.709 450.059 586.492 454.376 586.508C458.395 586.524 461.915 583.26 462.926 578.581L465.858 562.302C468.94 545.189 473.61 528.54 479.783 512.664L481.608 507.967V507.967C481.607 507.963 481.607 507.958 481.608 507.954C487.472 489.715 481.582 469.447 468.302 462.467C462.009 459.159 455.173 459.423 449.051 462.532Z" fill="url(#paint36_linear_111_2251)"/>
<path fill-rule="evenodd" clip-rule="evenodd" d="M449.051 462.532C441.516 466.359 430.663 466.316 423.158 462.431C417.06 459.274 410.227 458.957 403.909 462.215C390.574 469.091 384.526 489.312 390.247 507.597C390.248 507.601 390.248 507.606 390.247 507.61V507.61L392.036 512.32C398.083 528.244 402.624 544.93 405.572 562.067L408.376 578.368C409.35 583.055 412.845 586.346 416.864 586.362C421.181 586.379 424.874 582.625 425.579 577.503L429.741 547.283C430.231 543.724 432.797 541.115 435.797 541.127C438.797 541.139 441.343 543.767 441.805 547.33L445.73 577.582C446.395 582.709 450.059 586.492 454.376 586.508C458.395 586.524 461.915 583.26 462.926 578.581L465.858 562.302C468.94 545.189 473.61 528.54 479.783 512.664L481.608 507.967V507.967C481.607 507.963 481.607 507.958 481.608 507.954C487.472 489.715 481.582 469.447 468.302 462.467C462.009 459.159 455.173 459.423 449.051 462.532Z" fill="url(#paint37_linear_111_2251)"/>
<path fill-rule="evenodd" clip-rule="evenodd" d="M421.55 461.672C422.318 474.3 427.076 494.725 442.299 510.511C451.807 520.371 463.694 525.277 474.548 527.422C476.151 522.436 477.897 517.514 479.782 512.663L481.608 507.967C481.607 507.963 481.607 507.958 481.608 507.954C487.472 489.715 481.582 469.447 468.302 462.467C462.009 459.159 455.173 459.423 449.051 462.532C441.516 466.359 430.663 466.316 423.158 462.431C422.627 462.156 422.091 461.903 421.55 461.672Z" fill="url(#paint38_linear_111_2251)"/>
<path fill-rule="evenodd" clip-rule="evenodd" d="M421.55 461.672C422.318 474.3 427.076 494.725 442.299 510.511C451.807 520.371 463.694 525.277 474.548 527.422C476.151 522.436 477.897 517.514 479.782 512.663L481.608 507.967C481.607 507.963 481.607 507.958 481.608 507.954C487.472 489.715 481.582 469.447 468.302 462.467C462.009 459.159 455.173 459.423 449.051 462.532C441.516 466.359 430.663 466.316 423.158 462.431C422.627 462.156 422.091 461.903 421.55 461.672Z" fill="url(#paint39_linear_111_2251)" fill-opacity="0.1"/>
<path fill-rule="evenodd" clip-rule="evenodd" d="M421.55 461.672C422.318 474.3 427.076 494.725 442.299 510.511C451.807 520.371 463.694 525.277 474.548 527.422C476.151 522.436 477.897 517.514 479.782 512.663L481.608 507.967C481.607 507.963 481.607 507.958 481.608 507.954C487.472 489.715 481.582 469.447 468.302 462.467C462.009 459.159 455.173 459.423 449.051 462.532C441.516 466.359 430.663 466.316 423.158 462.431C422.627 462.156 422.091 461.903 421.55 461.672Z" fill="url(#paint40_linear_111_2251)" fill-opacity="0.1"/>
<path fill-rule="evenodd" clip-rule="evenodd" d="M421.55 461.672C422.318 474.3 427.076 494.725 442.299 510.511C451.807 520.371 463.694 525.277 474.548 527.422C476.151 522.436 477.897 517.514 479.782 512.663L481.608 507.967C481.607 507.963 481.607 507.958 481.608 507.954C487.472 489.715 481.582 469.447 468.302 462.467C462.009 459.159 455.173 459.423 449.051 462.532C441.516 466.359 430.663 466.316 423.158 462.431C422.627 462.156 422.091 461.903 421.55 461.672Z" fill="url(#paint41_linear_111_2251)"/>
<path fill-rule="evenodd" clip-rule="evenodd" d="M421.55 461.672C422.318 474.3 427.076 494.725 442.299 510.511C451.807 520.371 463.694 525.277 474.548 527.422C476.151 522.436 477.897 517.514 479.782 512.663L481.608 507.967C481.607 507.963 481.607 507.958 481.608 507.954C487.472 489.715 481.582 469.447 468.302 462.467C462.009 459.159 455.173 459.423 449.051 462.532C441.516 466.359 430.663 466.316 423.158 462.431C422.627 462.156 422.091 461.903 421.55 461.672Z" fill="url(#paint42_linear_111_2251)" fill-opacity="0.1"/>
<path fill-rule="evenodd" clip-rule="evenodd" d="M421.55 461.672C422.318 474.3 427.076 494.725 442.299 510.511C451.807 520.371 463.694 525.277 474.548 527.422C476.151 522.436 477.897 517.514 479.782 512.663L481.608 507.967C481.607 507.963 481.607 507.958 481.608 507.954C487.472 489.715 481.582 469.447 468.302 462.467C462.009 459.159 455.173 459.423 449.051 462.532C441.516 466.359 430.663 466.316 423.158 462.431C422.627 462.156 422.091 461.903 421.55 461.672Z" fill="url(#paint43_linear_111_2251)" fill-opacity="0.1"/>
<path d="M425.567 482.223C428.682 491.672 433.896 501.798 442.299 510.511C447.277 515.674 452.908 519.478 458.701 522.24L465.626 502.963C470.067 490.6 460.764 477.519 449.86 480.794L442.593 482.977C437.555 484.49 432.278 484.423 427.272 482.782L425.567 482.223Z" fill="url(#paint44_radial_111_2251)"/>
<path d="M486.332 271.519C485.827 255.382 474.782 242.608 461.289 242.556C447.549 242.502 436.294 255.642 435.998 272.083L434.879 334.264C434.697 344.357 441.462 352.657 449.897 352.69L473.137 352.781C481.722 352.814 488.611 344.283 488.289 334.017L486.332 271.519Z" fill="url(#paint45_linear_111_2251)"/>
<path d="M386.429 270.904C387.056 254.897 398.115 242.309 411.504 242.361C425.302 242.415 436.436 255.846 436.371 272.36L436.128 334.574C436.089 344.549 429.301 352.609 420.966 352.577L398.978 352.491C390.394 352.457 383.571 343.872 383.973 333.609L386.429 270.904Z" fill="url(#paint46_linear_111_2251)"/>
<path fill-rule="evenodd" clip-rule="evenodd" d="M378.861 290.249C380.05 288.199 382.401 287.687 384.112 289.107C390.011 293.999 409.442 304.667 436.95 304.775C464.461 304.882 482.979 294.363 488.39 289.606C490.07 288.129 492.431 288.56 493.664 290.569C494.896 292.578 494.532 295.404 492.852 296.882C485.99 302.914 465.851 313.919 436.915 313.805C407.976 313.692 387.038 302.528 379.808 296.532C378.097 295.112 377.673 292.299 378.861 290.249Z" fill="url(#paint47_linear_111_2251)"/>
<g opacity="0.4">
<path fill-rule="evenodd" clip-rule="evenodd" d="M493.74 290.698C492.567 288.639 490.22 288.109 488.498 289.515C482.561 294.361 463.047 304.877 435.539 304.769C408.028 304.662 389.593 293.998 384.219 289.199C382.551 287.709 380.186 288.121 378.938 290.121C377.691 292.12 378.032 294.949 379.701 296.44C386.515 302.525 406.568 313.687 435.504 313.8C464.443 313.913 485.468 302.913 492.744 296.973C494.466 295.567 494.912 292.758 493.74 290.698Z" fill="url(#paint48_radial_111_2251)" fill-opacity="0.3"/>
<path fill-rule="evenodd" clip-rule="evenodd" d="M493.74 290.698C492.567 288.639 490.22 288.109 488.498 289.515C482.561 294.361 463.047 304.877 435.539 304.769C408.028 304.662 389.593 293.998 384.219 289.199C382.551 287.709 380.186 288.121 378.938 290.121C377.691 292.12 378.032 294.949 379.701 296.44C386.515 302.525 406.568 313.687 435.504 313.8C464.443 313.913 485.468 302.913 492.744 296.973C494.466 295.567 494.912 292.758 493.74 290.698Z" fill="url(#paint49_radial_111_2251)" fill-opacity="0.3"/>
</g>
<g opacity="0.4">
<path fill-rule="evenodd" clip-rule="evenodd" d="M378.861 290.249C380.05 288.199 382.401 287.687 384.112 289.107C390.011 293.999 409.442 304.667 436.95 304.775C464.461 304.882 482.979 294.363 488.39 289.606C490.071 288.129 492.432 288.56 493.664 290.569C494.896 292.578 494.532 295.405 492.852 296.882C485.99 302.914 465.851 313.919 436.915 313.806C407.976 313.692 387.038 302.528 379.808 296.532C378.097 295.112 377.673 292.299 378.861 290.249Z" fill="url(#paint50_radial_111_2251)" fill-opacity="0.3"/>
<path fill-rule="evenodd" clip-rule="evenodd" d="M378.861 290.249C380.05 288.199 382.401 287.687 384.112 289.107C390.011 293.999 409.442 304.667 436.95 304.775C464.461 304.882 482.979 294.363 488.39 289.606C490.071 288.129 492.432 288.56 493.664 290.569C494.896 292.578 494.532 295.405 492.852 296.882C485.99 302.914 465.851 313.919 436.915 313.806C407.976 313.692 387.038 302.528 379.808 296.532C378.097 295.112 377.673 292.299 378.861 290.249Z" fill="url(#paint51_radial_111_2251)" fill-opacity="0.3"/>
</g>
<g filter="url(#filter5_d_111_2251)">
<path d="M396.997 302.003C397.024 295.02 401.776 289.378 407.61 289.401L414.705 289.428C420.54 289.451 425.247 295.13 425.22 302.113L425.187 310.604C425.16 317.587 420.408 323.229 414.573 323.206L407.478 323.179C401.644 323.156 396.936 317.477 396.963 310.494L396.997 302.003Z" fill="url(#paint52_linear_111_2251)"/>
<path d="M397.997 302.007C398.022 295.4 402.485 290.381 407.606 290.401L414.701 290.428C419.823 290.448 424.246 295.503 424.22 302.109L424.187 310.6C424.161 317.207 419.699 322.226 414.577 322.206L407.482 322.179C402.361 322.159 397.937 317.104 397.963 310.498L397.997 302.007Z" stroke="url(#paint53_radial_111_2251)" stroke-width="2"/>
</g>
<g filter="url(#filter6_d_111_2251)">
<path d="M448.309 302.203C448.336 295.221 453.088 289.579 458.922 289.601L466.017 289.629C471.852 289.652 476.559 295.331 476.532 302.314L476.499 310.805C476.472 317.788 471.72 323.43 465.885 323.407L458.79 323.379C452.956 323.356 448.248 317.677 448.275 310.695L448.309 302.203Z" fill="url(#paint54_linear_111_2251)"/>
<path d="M449.309 302.207C449.334 295.601 453.797 290.581 458.918 290.601L466.013 290.629C471.135 290.649 475.558 295.704 475.532 302.31L475.499 310.801C475.473 317.407 471.011 322.427 465.889 322.407L458.794 322.379C453.673 322.359 449.249 317.305 449.275 310.699L449.309 302.207Z" stroke="url(#paint55_radial_111_2251)" stroke-width="2"/>
</g>
<path d="M602.268 49.2751L656.599 49.4876L654.466 71.5234C653.849 77.8992 656.393 84.1153 660.978 87.435L597.593 87.1872C602.204 83.9034 604.796 77.7074 604.229 71.327L602.268 49.2751Z" fill="url(#paint56_linear_111_2251)"/>
<path d="M602.268 49.2751L656.599 49.4876L654.466 71.5234C653.849 77.8992 656.393 84.1153 660.978 87.435L597.593 87.1872C602.204 83.9034 604.796 77.7074 604.229 71.327L602.268 49.2751Z" fill="url(#paint57_linear_111_2251)" fill-opacity="0.4"/>
<path d="M602.268 49.2751L656.599 49.4876L654.466 71.5234C653.849 77.8992 656.393 84.1153 660.978 87.435L597.593 87.1872C602.204 83.9034 604.796 77.7074 604.229 71.327L602.268 49.2751Z" fill="url(#paint58_linear_111_2251)" fill-opacity="0.05"/>
<path d="M602.268 49.2751L656.599 49.4876L654.466 71.5234C653.849 77.8992 656.393 84.1153 660.978 87.435L597.593 87.1872C602.204 83.9034 604.796 77.7074 604.229 71.327L602.268 49.2751Z" fill="url(#paint59_linear_111_2251)" fill-opacity="0.2"/>
<path d="M602.268 49.2751L656.599 49.4876L654.466 71.5234C653.849 77.8992 656.393 84.1153 660.978 87.435L597.593 87.1872C602.204 83.9034 604.796 77.7074 604.229 71.327L602.268 49.2751Z" fill="url(#paint60_linear_111_2251)" fill-opacity="0.3"/>
<path d="M663.652 93.9435C664.386 91.2667 663.343 88.3425 661.196 87.1935L640.332 76.028C633.34 72.2863 625.349 72.255 618.328 75.9418L597.377 86.9437C595.221 88.0759 594.155 90.9919 594.868 93.6743C597.011 101.732 598.017 107.272 599.674 116.804L601.622 128.01C602.604 132.693 606.123 135.983 610.172 136.004C610.175 136.004 610.179 136.004 610.182 136.004C610.185 136.004 610.189 136.004 610.192 136.004C614.541 136.015 618.259 132.263 618.97 127.145L623.164 97.2213C623.659 93.6621 626.247 90.9116 629.272 90.9234C632.297 90.9353 634.863 93.7059 635.33 97.2688L639.29 127.225C639.96 132.348 643.649 136.129 647.998 136.152C648.001 136.152 648.005 136.152 648.008 136.152C648.012 136.152 648.015 136.152 648.018 136.152C652.067 136.162 655.612 132.9 656.63 128.225L658.666 117.034C660.397 107.516 661.447 101.984 663.652 93.9435Z" fill="url(#paint61_linear_111_2251)"/>
<path d="M663.652 93.9435C664.386 91.2667 663.343 88.3425 661.196 87.1935L640.332 76.028C633.34 72.2863 625.349 72.255 618.328 75.9418L597.377 86.9437C595.221 88.0759 594.155 90.9919 594.868 93.6743C597.011 101.732 598.017 107.272 599.674 116.804L601.622 128.01C602.604 132.693 606.123 135.983 610.172 136.004C610.175 136.004 610.179 136.004 610.182 136.004C610.185 136.004 610.189 136.004 610.192 136.004C614.541 136.015 618.259 132.263 618.97 127.145L623.164 97.2213C623.659 93.6621 626.247 90.9116 629.272 90.9234C632.297 90.9353 634.863 93.7059 635.33 97.2688L639.29 127.225C639.96 132.348 643.649 136.129 647.998 136.152C648.001 136.152 648.005 136.152 648.008 136.152C648.012 136.152 648.015 136.152 648.018 136.152C652.067 136.162 655.612 132.9 656.63 128.225L658.666 117.034C660.397 107.516 661.447 101.984 663.652 93.9435Z" fill="url(#paint62_radial_111_2251)" fill-opacity="0.2"/>
<path d="M616.496 19.2979C624.064 23.1834 635.008 23.2262 642.607 19.4001C645.796 17.7938 649.178 16.9471 652.578 16.9601L652.58 16.9601C655.759 16.9728 658.953 17.7372 662.019 19.3353C675.414 26.3168 681.353 46.5916 675.435 64.834L675.439 64.8358C674.77 66.5453 674.08 68.2621 673.407 69.9863C672.363 72.6596 669.76 73.9631 667.471 72.8757L640.429 60.0321C633.348 56.6691 625.462 56.6382 618.356 59.9458L591.214 72.5776C588.916 73.647 586.324 72.3232 585.301 69.6417C584.641 67.9124 583.965 66.1902 583.31 64.4757L583.313 64.4738C577.538 46.1857 583.636 25.958 597.085 19.0815C603.457 15.8236 610.347 16.1411 616.496 19.2979Z" fill="url(#paint63_linear_111_2251)"/>
<g filter="url(#filter7_f_111_2251)">
<path d="M596.327 21.2079L595.207 14.6646C595.055 13.7729 594.283 13.1198 593.379 13.1163C592.453 13.1126 591.665 13.7894 591.529 14.705L590.597 20.9769C590.175 23.8188 588.059 26.1141 585.261 26.7658L579.743 28.051C578.84 28.2612 578.2 29.0641 578.197 29.991L578.195 30.3631C578.191 31.3251 578.873 32.1535 579.818 32.335L584.918 33.3148C587.873 33.8826 590.134 36.2752 590.535 39.2573L591.417 45.8301C591.54 46.7456 592.32 47.43 593.243 47.4336C594.147 47.4372 594.921 46.7872 595.074 45.8966L596.243 39.0782C596.737 36.2005 598.965 33.9314 601.833 33.3852L606.554 32.4862C607.61 32.2852 608.375 31.3641 608.38 30.2892C608.384 29.255 607.681 28.3518 606.677 28.1016L601.533 26.8196C598.838 26.1478 596.795 23.9459 596.327 21.2079Z" fill="url(#paint64_linear_111_2251)"/>
</g>
<path d="M594.958 21.4231L594.185 13.8598C594.142 13.4387 593.788 13.1179 593.365 13.1162C592.933 13.1145 592.572 13.4449 592.536 13.8752L591.931 21.1264C591.621 24.8502 588.768 27.8598 585.066 28.3688L579.075 29.1924C578.573 29.2614 578.198 29.6895 578.196 30.1964C578.194 30.7199 578.589 31.1595 579.11 31.2126L585.04 31.8179C588.707 32.1921 591.575 35.1455 591.841 38.8213L592.411 46.6683C592.442 47.0984 592.799 47.4319 593.23 47.4336C593.653 47.4352 594.009 47.1165 594.054 46.6957L594.918 38.5529C595.293 35.0184 598.101 32.2347 601.639 31.8911L607.457 31.3262C607.979 31.2755 608.377 30.838 608.379 30.3138C608.381 29.8068 608.011 29.3751 607.51 29.3L601.637 28.4208C598.074 27.8874 595.325 25.0072 594.958 21.4231Z" fill="url(#paint65_linear_111_2251)"/>
<path d="M772.679 515.842C782.542 522.228 793.575 525.593 804.796 525.637L818.054 525.689C829.455 525.734 840.673 522.22 850.601 515.495L842.121 575.718L777.38 575.465L772.679 515.842Z" fill="url(#paint66_linear_111_2251)"/>
<path d="M762.615 523.042C762.348 518.151 765.602 514.008 769.698 514.024C772.893 514.037 775.68 516.614 776.496 520.31L785.913 562.98C787.098 568.35 790.925 572.287 795.54 572.883C799.699 573.42 803.765 571.142 806.088 566.973L806.172 566.823C806.933 565.459 807.401 563.892 807.536 562.261L808.796 547.007C808.96 545.027 811.286 544.768 811.748 546.678L815.74 563.195C815.994 564.246 816.377 565.244 816.877 566.159L817.347 567.017C819.638 571.204 823.686 573.514 827.849 573.009C832.469 572.45 836.327 568.543 837.554 563.182L847.304 520.586C848.148 516.897 850.956 514.342 854.151 514.354C858.247 514.371 861.468 518.539 861.163 523.428L858.365 568.264C857.656 579.617 849.731 588.392 840.22 588.354L783.05 588.131C773.538 588.094 765.682 579.257 765.063 567.899L762.615 523.042Z" fill="#F7A6A5"/>
<path fill-rule="evenodd" clip-rule="evenodd" d="M811.566 463.387C806.063 467.52 797.549 469.14 791.253 467.251C786.138 465.717 780.747 466.51 776.137 470.015C766.41 477.41 763.809 494.109 770.231 507.504C770.232 507.507 770.232 507.511 770.232 507.514V507.514L772.133 510.917C778.561 522.42 783.888 534.747 788.014 547.669L791.939 559.961C793.199 563.469 796.288 565.505 799.441 564.905C802.828 564.261 805.326 560.769 805.336 556.666L805.399 532.453C805.407 529.601 807.143 527.175 809.496 526.728C811.849 526.28 814.124 527.943 814.863 530.652L821.144 553.658C822.209 557.557 825.482 559.95 828.868 559.306C832.021 558.706 834.436 555.624 834.733 551.819L835.308 538.671C835.913 524.849 837.812 511.147 840.97 497.82L841.904 493.878V493.878C841.903 493.875 841.902 493.871 841.903 493.868C844.569 478.744 837.805 463.827 826.653 460.404C821.368 458.782 816.037 460.029 811.566 463.387Z" fill="url(#paint67_linear_111_2251)"/>
<path d="M861.952 271.519C861.447 255.382 850.402 242.609 836.909 242.556C823.169 242.502 811.914 255.642 811.618 272.083L810.499 334.264C810.317 344.357 817.082 352.657 825.517 352.69L848.757 352.781C857.341 352.814 864.23 344.283 863.909 334.017L861.952 271.519Z" fill="url(#paint68_linear_111_2251)"/>
<path d="M762.049 270.905C762.676 254.897 773.735 242.309 787.123 242.361C800.922 242.415 812.056 255.846 811.991 272.36L811.748 334.574C811.709 344.549 804.921 352.609 796.586 352.577L774.598 352.491C766.014 352.457 759.191 343.872 759.593 333.609L762.049 270.905Z" fill="url(#paint69_linear_111_2251)"/>
<path fill-rule="evenodd" clip-rule="evenodd" d="M754.481 290.249C755.67 288.199 758.02 287.687 759.732 289.107C765.631 293.999 785.062 304.667 812.57 304.775C840.081 304.882 858.599 294.363 864.01 289.606C865.69 288.129 868.051 288.56 869.283 290.569C870.516 292.578 870.152 295.405 868.472 296.882C861.61 302.914 841.471 313.919 812.535 313.806C783.596 313.692 762.657 302.528 755.428 296.532C753.716 295.112 753.292 292.299 754.481 290.249Z" fill="url(#paint70_linear_111_2251)"/>
<g opacity="0.4">
<path fill-rule="evenodd" clip-rule="evenodd" d="M869.36 290.698C868.187 288.639 865.84 288.109 864.118 289.515C858.181 294.361 838.667 304.877 811.159 304.769C783.648 304.662 765.213 293.998 759.839 289.199C758.17 287.709 755.806 288.121 754.558 290.121C753.311 292.12 753.652 294.949 755.321 296.44C762.135 302.525 782.187 313.687 811.124 313.8C840.062 313.913 861.087 302.913 868.364 296.974C870.086 295.567 870.532 292.758 869.36 290.698Z" fill="url(#paint71_radial_111_2251)" fill-opacity="0.3"/>
<path fill-rule="evenodd" clip-rule="evenodd" d="M869.36 290.698C868.187 288.639 865.84 288.109 864.118 289.515C858.181 294.361 838.667 304.877 811.159 304.769C783.648 304.662 765.213 293.998 759.839 289.199C758.17 287.709 755.806 288.121 754.558 290.121C753.311 292.12 753.652 294.949 755.321 296.44C762.135 302.525 782.187 313.687 811.124 313.8C840.062 313.913 861.087 302.913 868.364 296.974C870.086 295.567 870.532 292.758 869.36 290.698Z" fill="url(#paint72_radial_111_2251)" fill-opacity="0.3"/>
</g>
<g opacity="0.4">
<path fill-rule="evenodd" clip-rule="evenodd" d="M754.481 290.249C755.67 288.199 758.021 287.687 759.732 289.107C765.631 294 785.062 304.667 812.57 304.775C840.081 304.882 858.599 294.364 864.01 289.606C865.69 288.129 868.052 288.56 869.284 290.569C870.516 292.578 870.152 295.405 868.472 296.882C861.61 302.914 841.471 313.919 812.535 313.806C783.596 313.693 762.658 302.528 755.428 296.532C753.717 295.112 753.293 292.3 754.481 290.249Z" fill="url(#paint73_radial_111_2251)" fill-opacity="0.3"/>
<path fill-rule="evenodd" clip-rule="evenodd" d="M754.481 290.249C755.67 288.199 758.021 287.687 759.732 289.107C765.631 294 785.062 304.667 812.57 304.775C840.081 304.882 858.599 294.364 864.01 289.606C865.69 288.129 868.052 288.56 869.284 290.569C870.516 292.578 870.152 295.405 868.472 296.882C861.61 302.914 841.471 313.919 812.535 313.806C783.596 313.693 762.658 302.528 755.428 296.532C753.717 295.112 753.293 292.3 754.481 290.249Z" fill="url(#paint74_radial_111_2251)" fill-opacity="0.3"/>
</g>
<g filter="url(#filter8_d_111_2251)">
<path d="M772.616 302.003C772.644 295.02 777.396 289.378 783.23 289.401L790.325 289.429C796.16 289.451 800.867 295.13 800.84 302.113L800.807 310.605C800.779 317.587 796.028 323.229 790.193 323.206L783.098 323.179C777.264 323.156 772.556 317.477 772.583 310.494L772.616 302.003Z" fill="url(#paint75_linear_111_2251)"/>
<path d="M773.616 302.007C773.642 295.401 778.105 290.381 783.226 290.401L790.321 290.429C795.443 290.449 799.866 295.503 799.84 302.109L799.807 310.601C799.781 317.207 795.318 322.226 790.197 322.206L783.102 322.179C777.98 322.159 773.557 317.104 773.583 310.498L773.616 302.007Z" stroke="url(#paint76_radial_111_2251)" stroke-width="2"/>
</g>
<g filter="url(#filter9_d_111_2251)">
<path d="M823.928 302.203C823.956 295.221 828.708 289.579 834.542 289.601L841.637 289.629C847.472 289.652 852.179 295.331 852.152 302.314L852.119 310.805C852.091 317.788 847.34 323.43 841.505 323.407L834.41 323.379C828.576 323.357 823.868 317.677 823.895 310.695L823.928 302.203Z" fill="url(#paint77_linear_111_2251)"/>
<path d="M824.928 302.207C824.954 295.601 829.417 290.581 834.538 290.601L841.633 290.629C846.755 290.649 851.178 295.704 851.152 302.31L851.119 310.801C851.093 317.407 846.63 322.427 841.509 322.407L834.414 322.379C829.292 322.359 824.869 317.305 824.895 310.699L824.928 302.207Z" stroke="url(#paint78_radial_111_2251)" stroke-width="2"/>
</g>
<path fill-rule="evenodd" clip-rule="evenodd" d="M636.861 462.532C629.326 466.359 618.473 466.316 610.968 462.431C604.87 459.274 598.037 458.957 591.719 462.215C578.381 469.092 572.334 489.32 578.06 507.608L578.056 507.61L587.436 536.275L596.186 578.368C597.16 583.055 600.655 586.346 604.674 586.362C608.991 586.379 612.684 582.625 613.389 577.503L617.551 547.283C618.041 543.724 620.607 541.115 623.607 541.127C626.607 541.139 629.153 543.767 629.615 547.33L633.54 577.582C634.205 582.709 637.869 586.492 642.185 586.509C646.205 586.524 649.725 583.261 650.736 578.582L659.815 536.558L669.418 507.967L669.415 507.965C675.284 489.723 669.395 469.448 656.112 462.467C649.818 459.16 642.983 459.423 636.861 462.532Z" fill="url(#paint79_linear_111_2251)"/>
<path fill-rule="evenodd" clip-rule="evenodd" d="M626.411 465.287C626.443 466.018 626.209 466.758 625.709 467.352L618.325 476.12C617.39 477.229 617.383 478.849 618.31 479.967L625.625 488.791C626.551 489.909 626.545 491.529 625.61 492.639L618.226 501.406C617.291 502.516 617.285 504.136 618.211 505.253L625.526 514.078C626.452 515.195 626.446 516.815 625.511 517.925L618.127 526.692C617.192 527.802 617.186 529.422 618.112 530.54L625.53 539.488C626.084 540.157 626.306 541.01 626.19 541.827C625.403 541.38 624.526 541.131 623.607 541.127C620.607 541.115 618.041 543.724 617.551 547.283L613.389 577.503C612.684 582.625 608.991 586.379 604.674 586.362C600.655 586.346 597.16 583.055 596.186 578.368L587.436 536.276L578.056 507.61L578.06 507.608C572.333 489.32 578.381 469.092 591.718 462.215C598.037 458.957 604.87 459.274 610.968 462.431C615.404 464.728 621.011 465.682 626.411 465.287Z" fill="url(#paint80_linear_111_2251)"/>
<path d="M979.432 75.9143C979.97 72.484 982.478 70 985.394 70.0114L1014.05 70.1235C1016.95 70.1348 1019.44 72.6314 1019.95 76.0564C1020.45 79.4766 1020.41 83.0863 1021.52 86.2939C1022.93 90.3757 1026 93.0667 1029.04 95.3984L970.003 95.2805C973.02 93 976.15 89.7813 977.677 85.8491C978.846 82.8393 978.887 79.3929 979.398 76.1316L979.432 75.9143Z" fill="url(#paint81_linear_111_2251)"/>
<path d="M979.432 75.9143C979.97 72.484 982.478 70 985.394 70.0114L1014.05 70.1235C1016.95 70.1348 1019.44 72.6314 1019.95 76.0564C1020.45 79.4766 1020.41 83.0863 1021.52 86.2939C1022.93 90.3757 1026 93.0667 1029.04 95.3984L970.003 95.2805C973.02 93 976.15 89.7813 977.677 85.8491C978.846 82.8393 978.887 79.3929 979.398 76.1316L979.432 75.9143Z" fill="url(#paint82_linear_111_2251)" fill-opacity="0.4"/>
<path d="M979.432 75.9143C979.97 72.484 982.478 70 985.394 70.0114L1014.05 70.1235C1016.95 70.1348 1019.44 72.6314 1019.95 76.0564C1020.45 79.4766 1020.41 83.0863 1021.52 86.2939C1022.93 90.3757 1026 93.0667 1029.04 95.3984L970.003 95.2805C973.02 93 976.15 89.7813 977.677 85.8491C978.846 82.8393 978.887 79.3929 979.398 76.1316L979.432 75.9143Z" fill="url(#paint83_linear_111_2251)" fill-opacity="0.05"/>
<path d="M1031.08 101.508C1031.71 99.1833 1030.9 96.6564 1029.18 95.4754C1028.95 95.3195 1028.7 95.2218 1028.45 95.1439L1006.29 88.3569C1001.93 87.0219 997.363 87.004 992.994 88.3049L970.786 94.9182C970.531 94.9941 970.279 95.0899 970.05 95.244C968.315 96.4115 967.493 98.932 968.106 101.262C970.067 108.72 970.988 113.848 972.505 122.67L974.287 133.042C975.186 137.376 978.407 140.421 982.114 140.441L982.123 140.441L982.133 140.441C986.114 140.451 989.518 136.978 990.169 132.241L994.01 104.544C994.462 101.25 996.832 98.7037 999.601 98.7145C1002.37 98.7253 1004.72 101.29 1005.15 104.587L1008.77 132.314C1009.38 137.056 1012.76 140.555 1016.74 140.576L1016.75 140.576L1016.76 140.576C1020.47 140.585 1023.71 137.566 1024.65 133.239L1026.51 122.881C1028.1 114.071 1029.06 108.95 1031.08 101.508Z" fill="url(#paint84_linear_111_2251)"/>
<path d="M1031.08 101.508C1031.71 99.1833 1030.9 96.6564 1029.18 95.4754C1028.95 95.3195 1028.7 95.2218 1028.45 95.1439L1006.29 88.3569C1001.93 87.0219 997.363 87.004 992.994 88.3049L970.786 94.9182C970.531 94.9941 970.279 95.0899 970.05 95.244C968.315 96.4115 967.493 98.932 968.106 101.262C970.067 108.72 970.988 113.848 972.505 122.67L974.287 133.042C975.186 137.376 978.407 140.421 982.114 140.441L982.123 140.441L982.133 140.441C986.114 140.451 989.518 136.978 990.169 132.241L994.01 104.544C994.462 101.25 996.832 98.7037 999.601 98.7145C1002.37 98.7253 1004.72 101.29 1005.15 104.587L1008.77 132.314C1009.38 137.056 1012.76 140.555 1016.74 140.576L1016.75 140.576L1016.76 140.576C1020.47 140.585 1023.71 137.566 1024.65 133.239L1026.51 122.881C1028.1 114.071 1029.06 108.95 1031.08 101.508Z" fill="url(#paint85_radial_111_2251)" fill-opacity="0.2"/>
<path d="M988.12 9.11395C994.978 12.7323 1004.9 12.7711 1011.78 9.20648C1014.67 7.70999 1017.74 6.921 1020.82 6.93283L1020.82 6.93284C1023.7 6.9443 1026.6 7.65602 1029.38 9.1443C1041.51 15.6458 1046.89 34.5303 1041.53 51.5227L1041.53 51.5245C1040.93 53.1168 1040.3 54.716 1039.69 56.3221C1038.79 58.6825 1036.63 59.8966 1034.64 59.1543C1034.42 59.0721 1034.2 58.9818 1033.97 58.9177L1006.69 51.1278C1002.16 49.8319 997.428 49.8134 992.88 51.0738L965.541 58.6502C965.316 58.7125 965.096 58.8011 964.876 58.8815C962.879 59.6083 960.723 58.3772 959.844 56.0098C959.247 54.399 958.634 52.795 958.04 51.1981L958.043 51.1964C952.812 34.1625 958.34 15.3207 970.529 8.91424C976.303 5.87905 982.548 6.17407 988.12 9.11395Z" fill="url(#paint86_linear_111_2251)"/>
<path fill-rule="evenodd" clip-rule="evenodd" d="M827.162 11.7948C819.627 15.6213 808.774 15.5788 801.269 11.6936C795.172 8.5369 788.338 8.21966 782.02 11.4778C768.685 18.3533 762.637 38.5748 768.358 56.8599C768.359 56.864 768.359 56.8684 768.358 56.8724V56.8724L770.147 61.5831C776.194 77.507 780.735 94.1927 783.683 111.329L786.487 127.631C787.462 132.318 790.956 135.609 794.976 135.624C799.292 135.641 802.985 131.887 803.691 126.766L807.852 96.5456C808.342 92.9864 810.909 90.3779 813.908 90.3896C816.908 90.4013 819.454 93.0299 819.916 96.5928L823.841 126.844C824.506 131.972 828.17 135.754 832.487 135.771C836.506 135.787 840.026 132.523 841.037 127.844L843.969 111.565C847.051 94.4519 851.722 77.8023 857.894 61.9261L859.719 57.2296V57.2296C859.718 57.2255 859.718 57.2211 859.719 57.217C865.583 38.9772 859.693 18.7091 846.413 11.7295C840.12 8.42206 833.284 8.68588 827.162 11.7948Z" fill="url(#paint87_linear_111_2251)"/>
<mask id="mask2_111_2251" style="mask-type:alpha" maskUnits="userSpaceOnUse" x="766" y="9" width="96" height="127">
<path fill-rule="evenodd" clip-rule="evenodd" d="M827.162 11.7948C819.627 15.6213 808.774 15.5788 801.269 11.6936C795.172 8.5369 788.338 8.21966 782.02 11.4778C768.685 18.3533 762.637 38.5748 768.358 56.8599C768.359 56.864 768.359 56.8684 768.358 56.8724V56.8724L770.147 61.5831C776.194 77.507 780.735 94.1927 783.683 111.329L786.487 127.631C787.462 132.318 790.956 135.609 794.976 135.624C799.292 135.641 802.985 131.887 803.691 126.766L807.852 96.5456C808.342 92.9864 810.909 90.3779 813.908 90.3896C816.908 90.4013 819.454 93.0299 819.916 96.5928L823.841 126.844C824.506 131.972 828.17 135.754 832.487 135.771C836.506 135.787 840.026 132.523 841.037 127.844L843.969 111.565C847.051 94.4519 851.722 77.8023 857.894 61.9261L859.719 57.2296V57.2296C859.718 57.2255 859.718 57.2211 859.719 57.217C865.583 38.9772 859.693 18.7091 846.413 11.7295C840.12 8.42206 833.284 8.68588 827.162 11.7948Z" fill="url(#paint88_linear_111_2251)"/>
</mask>
<g mask="url(#mask2_111_2251)">
<path d="M799.482 22.9788C799.484 22.4392 799.056 22.0016 798.522 21.9197C793.654 21.1717 789.904 16.183 789.928 10.1556L789.936 8.1852C789.957 2.74416 793.639 3.76626 798.185 3.78404C800.58 3.7934 802.731 5.0256 804.227 6.98498C806.947 3.90775 810.62 2.02645 814.656 2.04223C818.691 2.058 822.342 5.77413 825.038 8.87253C826.55 6.92492 828.711 5.70958 831.105 5.71894C835.652 5.73672 839.32 10.162 839.299 15.603L839.291 17.5734C839.267 23.6008 835.479 28.56 830.605 29.2699C830.071 29.3477 829.639 29.7819 829.637 30.3215L829.634 31.0001C829.595 40.9753 822.807 49.0354 814.472 49.0028C806.137 48.9702 799.412 40.8573 799.451 30.8821L799.482 22.9788Z" fill="url(#paint89_linear_111_2251)"/>
</g>
<path d="M954.751 477.889C950.5 477.873 947.038 481.983 947.018 487.07L946.954 503.464C946.915 513.391 953.626 521.454 961.92 521.446L998.666 521.415C999.351 521.414 1000.03 521.599 1000.64 521.956L1043.21 546.626C1045.31 547.839 1047.82 547.187 1049.31 545.045C1051.06 542.53 1050.83 538.81 1048.79 536.638L1012.7 498.22C1009.36 494.667 1004.77 493.31 1000.43 494.59L965.632 504.854C962.114 505.891 958.634 503.015 958.201 498.712L956.272 479.509C956.179 478.587 955.527 477.892 954.751 477.889Z" fill="url(#paint90_linear_111_2251)"/>
<mask id="mask3_111_2251" style="mask-type:alpha" maskUnits="userSpaceOnUse" x="946" y="477" width="105" height="71">
<path d="M954.751 477.889C950.5 477.873 947.038 481.983 947.018 487.07L946.954 503.464C946.915 513.391 953.626 521.454 961.92 521.446L998.666 521.415C999.351 521.414 1000.03 521.599 1000.64 521.956L1043.21 546.626C1045.31 547.839 1047.82 547.187 1049.31 545.045C1051.06 542.53 1050.83 538.81 1048.79 536.638L1012.7 498.22C1009.36 494.667 1004.77 493.31 1000.43 494.59L965.632 504.854C962.114 505.891 958.634 503.015 958.201 498.712L956.272 479.509C956.179 478.587 955.527 477.892 954.751 477.889Z" fill="url(#paint91_linear_111_2251)"/>
</mask>
<g mask="url(#mask3_111_2251)">
<rect x="990.764" y="492.48" width="22.6378" height="36.1238" transform="rotate(0.223996 990.764 492.48)" fill="url(#paint92_linear_111_2251)"/>
<rect x="995.292" y="492.498" width="7.54593" height="36.1238" transform="rotate(0.223996 995.292 492.498)" fill="url(#paint93_linear_111_2251)"/>
<rect width="7.65442" height="35.7567" transform="matrix(-0.951035 -0.309084 0.222293 -0.97498 974.513 529.094)" fill="url(#paint94_linear_111_2251)"/>
</g>
<path d="M960.672 469.061C960.691 463.974 964.153 459.864 968.404 459.881L982.102 459.934C990.397 459.967 997.08 468.061 997.008 477.988L996.69 521.964C996.684 522.783 996.833 523.593 997.126 524.332L1017.4 575.475C1018.4 577.991 1017.83 580.998 1016.03 582.765C1013.92 584.84 1010.81 584.534 1009.01 582.075L977.198 538.571C974.256 534.548 973.158 529.047 974.263 523.861L983.115 482.298C984.01 478.096 981.634 473.908 978.042 473.357L962.013 470.895C961.243 470.776 960.668 469.991 960.672 469.061Z" fill="url(#paint95_linear_111_2251)"/>
<mask id="mask4_111_2251" style="mask-type:alpha" maskUnits="userSpaceOnUse" x="960" y="459" width="58" height="126">
<path d="M960.672 469.061C960.691 463.974 964.153 459.864 968.404 459.881L982.102 459.934C990.397 459.967 997.08 468.061 997.008 477.988L996.69 521.964C996.684 522.783 996.833 523.593 997.126 524.332L1017.4 575.475C1018.4 577.991 1017.83 580.998 1016.03 582.765C1013.92 584.84 1010.81 584.534 1009.01 582.075L977.198 538.571C974.256 534.548 973.158 529.047 974.263 523.861L983.115 482.298C984.01 478.096 981.634 473.908 978.042 473.357L962.013 470.895C961.243 470.776 960.668 469.991 960.672 469.061Z" fill="url(#paint96_linear_111_2251)"/>
</mask>
<g mask="url(#mask4_111_2251)">
<path d="M973.692 477.963L983.275 478.001L992.763 560.22L970.643 548.288L973.692 477.963Z" fill="url(#paint97_linear_111_2251)"/>
</g>
<g filter="url(#filter10_d_111_2251)">
<path d="M990.956 514.391C992.733 512.282 992.746 508.851 990.986 506.729L989.922 505.445C988.162 503.322 985.296 503.311 983.519 505.42L981.922 507.316C980.146 509.425 980.132 512.856 981.892 514.979L982.956 516.263C984.716 518.386 987.583 518.397 989.359 516.288L990.956 514.391Z" fill="url(#paint98_linear_111_2251)"/>
</g>
<path d="M989.248 511.985C989.84 511.282 989.845 510.139 989.258 509.431L987.65 507.491C987.064 506.784 986.108 506.78 985.516 507.483L983.63 509.722C983.038 510.425 983.034 511.568 983.62 512.276L985.228 514.216C985.815 514.924 986.77 514.927 987.363 514.224L989.248 511.985Z" fill="url(#paint99_linear_111_2251)"/>
<rect x="604.446" y="301.986" width="4.52756" height="18.0619" transform="rotate(0.223996 604.446 301.986)" fill="url(#paint100_linear_111_2251)"/>
<ellipse cx="606.84" cy="268.58" rx="29.4291" ry="35.2207" transform="rotate(0.223996 606.84 268.58)" fill="url(#paint101_linear_111_2251)"/>
<ellipse cx="606.84" cy="268.58" rx="24.9016" ry="29.8021" transform="rotate(0.223996 606.84 268.58)" fill="url(#paint102_linear_111_2251)"/>
<ellipse opacity="0.55" cx="17.9447" cy="13.6417" rx="17.9447" ry="13.6417" transform="matrix(0.75844 -0.651743 0.514107 0.857727 592.457 280.281)" fill="url(#paint103_linear_111_2251)"/>
<g filter="url(#filter11_f_111_2251)">
<path d="M595.446 246.129L594.49 240.542C594.351 239.727 593.646 239.131 592.82 239.128C591.974 239.124 591.255 239.742 591.13 240.579L590.34 245.9C589.918 248.742 587.802 251.037 585.004 251.689L580.498 252.738C579.595 252.949 578.955 253.752 578.952 254.678L578.951 254.738C578.948 255.7 579.629 256.528 580.574 256.71L584.663 257.495C587.618 258.063 589.88 260.456 590.28 263.438L591.028 269.009C591.141 269.846 591.853 270.471 592.696 270.474C593.522 270.477 594.229 269.884 594.368 269.07L595.366 263.256C595.859 260.379 598.087 258.109 600.955 257.563L604.855 256.821C605.819 256.637 606.518 255.796 606.522 254.814C606.526 253.869 605.884 253.044 604.967 252.816L600.653 251.74C597.957 251.069 595.914 248.867 595.446 246.129Z" fill="url(#paint104_linear_111_2251)"/>
</g>
<path d="M594.263 246.715L593.556 239.807C593.517 239.422 593.194 239.129 592.807 239.127C592.413 239.126 592.083 239.428 592.051 239.821L591.498 246.444C591.214 249.846 588.608 252.595 585.227 253.06L579.754 253.812C579.296 253.875 578.953 254.266 578.951 254.729C578.95 255.207 579.311 255.609 579.786 255.657L585.203 256.21C588.552 256.552 591.172 259.25 591.416 262.607L591.936 269.775C591.964 270.168 592.29 270.473 592.684 270.474C593.071 270.476 593.396 270.184 593.436 269.8L594.226 262.362C594.568 259.134 597.134 256.591 600.365 256.277L605.68 255.761C606.156 255.715 606.52 255.315 606.522 254.836C606.524 254.373 606.186 253.979 605.727 253.91L600.363 253.107C597.109 252.62 594.598 249.989 594.263 246.715Z" fill="url(#paint105_linear_111_2251)"/>
<path d="M648.219 300.283C648.237 295.604 649.34 291.02 651.405 287.043L663.362 264.011C665.265 260.346 665.173 255.683 663.128 252.137L656.9 241.337C656.718 241.022 656.771 240.593 657.02 240.353C657.288 240.094 657.682 240.151 657.89 240.48L665.872 253.127C668.075 256.617 668.305 261.353 666.456 265.133L655.647 287.228C653.766 291.074 652.766 295.445 652.748 299.899L652.669 320.236L648.141 320.219L648.219 300.283Z" fill="url(#paint106_linear_111_2251)"/>
<path d="M648.219 300.283C648.237 295.604 649.34 291.02 651.405 287.043L663.362 264.011C665.265 260.346 665.173 255.683 663.128 252.137L656.9 241.337C656.718 241.022 656.771 240.593 657.02 240.353C657.288 240.094 657.682 240.151 657.89 240.48L665.872 253.127C668.075 256.617 668.305 261.353 666.456 265.133L655.647 287.228C653.766 291.074 652.766 295.445 652.748 299.899L652.669 320.236L648.141 320.219L648.219 300.283Z" fill="url(#paint107_linear_111_2251)" fill-opacity="0.2"/>
<path d="M645.348 318.248C645.418 317.313 646.074 316.598 646.858 316.601L653.98 316.629C654.764 316.632 655.414 317.353 655.477 318.287L657.868 353.708C658.227 359.034 654.701 363.593 650.235 363.576C645.77 363.558 642.279 358.971 642.681 353.648L645.348 318.248Z" fill="url(#paint108_linear_111_2251)"/>
<path d="M645.348 318.248C645.418 317.313 646.074 316.598 646.858 316.601L653.98 316.629C654.764 316.632 655.414 317.353 655.477 318.287L657.868 353.708C658.227 359.034 654.701 363.593 650.235 363.576C645.77 363.558 642.279 358.971 642.681 353.648L645.348 318.248Z" fill="url(#paint109_linear_111_2251)" fill-opacity="0.6"/>
<path d="M645.348 318.248C645.418 317.313 646.074 316.598 646.858 316.601L653.98 316.629C654.764 316.632 655.414 317.353 655.477 318.287L657.868 353.708C658.227 359.034 654.701 363.593 650.235 363.576C645.77 363.558 642.279 358.971 642.681 353.648L645.348 318.248Z" fill="url(#paint110_linear_111_2251)" fill-opacity="0.5"/>
<path d="M601.582 318.077C601.652 317.142 602.308 316.427 603.092 316.43L610.214 316.458C610.998 316.461 611.648 317.181 611.711 318.116L614.102 353.536C614.461 358.862 610.935 363.422 606.469 363.405C602.004 363.387 598.513 358.8 598.914 353.477L601.582 318.077Z" fill="url(#paint111_linear_111_2251)"/>
<path d="M601.582 318.077C601.652 317.142 602.308 316.427 603.092 316.43L610.214 316.458C610.998 316.461 611.648 317.181 611.711 318.116L614.102 353.536C614.461 358.862 610.935 363.422 606.469 363.405C602.004 363.387 598.513 358.8 598.914 353.477L601.582 318.077Z" fill="url(#paint112_linear_111_2251)" fill-opacity="0.6"/>
<path d="M601.582 318.077C601.652 317.142 602.308 316.427 603.092 316.43L610.214 316.458C610.998 316.461 611.648 317.181 611.711 318.116L614.102 353.536C614.461 358.862 610.935 363.422 606.469 363.405C602.004 363.387 598.513 358.8 598.914 353.477L601.582 318.077Z" fill="url(#paint113_linear_111_2251)" fill-opacity="0.5"/>
<path d="M986.874 239.435C994.442 243.27 1005.39 243.313 1012.98 239.538C1019.16 236.47 1026.05 236.21 1032.4 239.475C1045.79 246.365 1051.73 266.373 1045.82 284.375L1045.82 284.377L1041.86 295.911C1040.93 298.634 1038.71 300.409 1036.25 300.399L963.134 300.114C960.676 300.104 958.471 298.312 957.558 295.582L953.69 284.017L953.694 284.015C947.918 265.967 954.014 246.006 967.463 239.221C973.835 236.006 980.725 236.32 986.874 239.435Z" fill="url(#paint114_linear_111_2251)"/>
<path d="M986.874 239.435C994.442 243.27 1005.39 243.313 1012.98 239.538C1019.16 236.47 1026.05 236.21 1032.4 239.475C1045.79 246.365 1051.73 266.373 1045.82 284.375L1045.82 284.377L1041.86 295.911C1040.93 298.634 1038.71 300.409 1036.25 300.399L963.134 300.114C960.676 300.104 958.471 298.312 957.558 295.582L953.69 284.017L953.694 284.015C947.918 265.967 954.014 246.006 967.463 239.221C973.835 236.006 980.725 236.32 986.874 239.435Z" fill="url(#paint115_linear_111_2251)" fill-opacity="0.1"/>
<path d="M986.874 239.435C994.442 243.27 1005.39 243.313 1012.98 239.538C1019.16 236.47 1026.05 236.21 1032.4 239.475C1045.79 246.365 1051.73 266.373 1045.82 284.375L1045.82 284.377L1041.86 295.911C1040.93 298.634 1038.71 300.409 1036.25 300.399L963.134 300.114C960.676 300.104 958.471 298.312 957.558 295.582L953.69 284.017L953.694 284.015C947.918 265.967 954.014 246.006 967.463 239.221C973.835 236.006 980.725 236.32 986.874 239.435Z" fill="url(#paint116_linear_111_2251)" fill-opacity="0.05"/>
<path d="M972.506 305.569L1026.84 305.781L1015.33 346.3C1013.02 354.428 1006.63 359.888 999.459 359.86C992.289 359.832 985.942 354.323 983.697 346.177L972.506 305.569Z" fill="url(#paint117_linear_111_2251)"/>
<path d="M957.417 304.607C957.427 302.113 959.124 300.098 961.208 300.106L1038.18 300.407C1040.26 300.415 1041.94 302.443 1041.93 304.937C1041.92 307.431 1040.22 309.446 1038.14 309.438L961.173 309.137C959.089 309.129 957.408 307.1 957.417 304.607Z" fill="url(#paint118_linear_111_2251)"/>
<path d="M979.896 345.334C979.904 343.339 981.262 341.727 982.929 341.734L1016.13 341.863C1017.8 341.87 1019.14 343.493 1019.13 345.488C1019.13 347.483 1017.77 349.095 1016.1 349.088L982.9 348.958C981.233 348.952 979.888 347.329 979.896 345.334Z" fill="url(#paint119_linear_111_2251)"/>
<path d="M976.173 332.676C976.181 330.681 977.538 329.069 979.205 329.076L1019.95 329.235C1021.62 329.241 1022.96 330.864 1022.96 332.859C1022.95 334.854 1021.59 336.466 1019.92 336.46L979.177 336.3C977.51 336.294 976.165 334.671 976.173 332.676Z" fill="url(#paint120_linear_111_2251)"/>
<path d="M972.449 320.018C972.457 318.023 973.815 316.411 975.482 316.418L1023.78 316.606C1025.44 316.613 1026.79 318.236 1026.78 320.231C1026.77 322.226 1025.41 323.838 1023.75 323.831L975.453 323.642C973.786 323.636 972.441 322.013 972.449 320.018Z" fill="url(#paint121_linear_111_2251)"/>
<defs>
<filter id="filter0_f_111_2251" x="190.791" y="460.907" width="50.2362" height="54.9238" filterUnits="userSpaceOnUse" color-interpolation-filters="sRGB">
<feFlood flood-opacity="0" result="BackgroundImageFix"/>
<feBlend mode="normal" in="SourceGraphic" in2="BackgroundImageFix" result="shape"/>
<feGaussianBlur stdDeviation="4" result="effect1_foregroundBlur_111_2251"/>
</filter>
<filter id="filter1_f_111_2251" x="257.164" y="517.134" width="37.5256" height="40.4736" filterUnits="userSpaceOnUse" color-interpolation-filters="sRGB">
<feFlood flood-opacity="0" result="BackgroundImageFix"/>
<feBlend mode="normal" in="SourceGraphic" in2="BackgroundImageFix" result="shape"/>
<feGaussianBlur stdDeviation="4" result="effect1_foregroundBlur_111_2251"/>
</filter>
<filter id="filter2_f_111_2251" x="17.915" y="473.614" width="84.8062" height="50.6364" filterUnits="userSpaceOnUse" color-interpolation-filters="sRGB">
<feFlood flood-opacity="0" result="BackgroundImageFix"/>
<feBlend mode="normal" in="SourceGraphic" in2="BackgroundImageFix" result="shape"/>
<feGaussianBlur stdDeviation="0.5" result="effect1_foregroundBlur_111_2251"/>
</filter>
<filter id="filter3_f_111_2251" x="13.9151" y="466.318" width="94.8334" height="56.6179" filterUnits="userSpaceOnUse" color-interpolation-filters="sRGB">
<feFlood flood-opacity="0" result="BackgroundImageFix"/>
<feBlend mode="normal" in="SourceGraphic" in2="BackgroundImageFix" result="shape"/>
<feGaussianBlur stdDeviation="2.5" result="effect1_foregroundBlur_111_2251"/>
</filter>
<filter id="filter4_f_111_2251" x="13.9151" y="468.711" width="92.9402" height="60.4092" filterUnits="userSpaceOnUse" color-interpolation-filters="sRGB">
<feFlood flood-opacity="0" result="BackgroundImageFix"/>
<feBlend mode="normal" in="SourceGraphic" in2="BackgroundImageFix" result="shape"/>
<feGaussianBlur stdDeviation="2.5" result="effect1_foregroundBlur_111_2251"/>
</filter>
<filter id="filter5_d_111_2251" x="388.963" y="285.401" width="44.257" height="49.8057" filterUnits="userSpaceOnUse" color-interpolation-filters="sRGB">
<feFlood flood-opacity="0" result="BackgroundImageFix"/>
<feColorMatrix in="SourceAlpha" type="matrix" values="0 0 0 0 0 0 0 0 0 0 0 0 0 0 0 0 0 0 127 0" result="hardAlpha"/>
<feOffset dy="4"/>
<feGaussianBlur stdDeviation="4"/>
<feComposite in2="hardAlpha" operator="out"/>
<feColorMatrix type="matrix" values="0 0 0 0 0.148194 0 0 0 0 0.235583 0 0 0 0 0.585139 0 0 0 0.13 0"/>
<feBlend mode="normal" in2="BackgroundImageFix" result="effect1_dropShadow_111_2251"/>
<feBlend mode="normal" in="SourceGraphic" in2="effect1_dropShadow_111_2251" result="shape"/>
</filter>
<filter id="filter6_d_111_2251" x="440.275" y="285.601" width="44.257" height="49.8057" filterUnits="userSpaceOnUse" color-interpolation-filters="sRGB">
<feFlood flood-opacity="0" result="BackgroundImageFix"/>
<feColorMatrix in="SourceAlpha" type="matrix" values="0 0 0 0 0 0 0 0 0 0 0 0 0 0 0 0 0 0 127 0" result="hardAlpha"/>
<feOffset dy="4"/>
<feGaussianBlur stdDeviation="4"/>
<feComposite in2="hardAlpha" operator="out"/>
<feColorMatrix type="matrix" values="0 0 0 0 0.148194 0 0 0 0 0.235583 0 0 0 0 0.585139 0 0 0 0.13 0"/>
<feBlend mode="normal" in2="BackgroundImageFix" result="effect1_dropShadow_111_2251"/>
<feBlend mode="normal" in="SourceGraphic" in2="effect1_dropShadow_111_2251" result="shape"/>
</filter>
<filter id="filter7_f_111_2251" x="570.195" y="5.11627" width="46.1843" height="50.3174" filterUnits="userSpaceOnUse" color-interpolation-filters="sRGB">
<feFlood flood-opacity="0" result="BackgroundImageFix"/>
<feBlend mode="normal" in="SourceGraphic" in2="BackgroundImageFix" result="shape"/>
<feGaussianBlur stdDeviation="4" result="effect1_foregroundBlur_111_2251"/>
</filter>
<filter id="filter8_d_111_2251" x="764.583" y="285.401" width="44.257" height="49.8057" filterUnits="userSpaceOnUse" color-interpolation-filters="sRGB">
<feFlood flood-opacity="0" result="BackgroundImageFix"/>
<feColorMatrix in="SourceAlpha" type="matrix" values="0 0 0 0 0 0 0 0 0 0 0 0 0 0 0 0 0 0 127 0" result="hardAlpha"/>
<feOffset dy="4"/>
<feGaussianBlur stdDeviation="4"/>
<feComposite in2="hardAlpha" operator="out"/>
<feColorMatrix type="matrix" values="0 0 0 0 0.148194 0 0 0 0 0.235583 0 0 0 0 0.585139 0 0 0 0.13 0"/>
<feBlend mode="normal" in2="BackgroundImageFix" result="effect1_dropShadow_111_2251"/>
<feBlend mode="normal" in="SourceGraphic" in2="effect1_dropShadow_111_2251" result="shape"/>
</filter>
<filter id="filter9_d_111_2251" x="815.895" y="285.601" width="44.257" height="49.8057" filterUnits="userSpaceOnUse" color-interpolation-filters="sRGB">
<feFlood flood-opacity="0" result="BackgroundImageFix"/>
<feColorMatrix in="SourceAlpha" type="matrix" values="0 0 0 0 0 0 0 0 0 0 0 0 0 0 0 0 0 0 127 0" result="hardAlpha"/>
<feOffset dy="4"/>
<feGaussianBlur stdDeviation="4"/>
<feComposite in2="hardAlpha" operator="out"/>
<feColorMatrix type="matrix" values="0 0 0 0 0.148194 0 0 0 0 0.235583 0 0 0 0 0.585139 0 0 0 0.13 0"/>
<feBlend mode="normal" in2="BackgroundImageFix" result="effect1_dropShadow_111_2251"/>
<feBlend mode="normal" in="SourceGraphic" in2="effect1_dropShadow_111_2251" result="shape"/>
</filter>
<filter id="filter10_d_111_2251" x="977.581" y="501.845" width="19.7164" height="22.0171" filterUnits="userSpaceOnUse" color-interpolation-filters="sRGB">
<feFlood flood-opacity="0" result="BackgroundImageFix"/>
<feColorMatrix in="SourceAlpha" type="matrix" values="0 0 0 0 0 0 0 0 0 0 0 0 0 0 0 0 0 0 127 0" result="hardAlpha"/>
<feOffset dx="1" dy="2"/>
<feGaussianBlur stdDeviation="2"/>
<feComposite in2="hardAlpha" operator="out"/>
<feColorMatrix type="matrix" values="0 0 0 0 0.0684722 0 0 0 0 0.0823278 0 0 0 0 0.414861 0 0 0 0.15 0"/>
<feBlend mode="normal" in2="BackgroundImageFix" result="effect1_dropShadow_111_2251"/>
<feBlend mode="normal" in="SourceGraphic" in2="effect1_dropShadow_111_2251" result="shape"/>
</filter>
<filter id="filter11_f_111_2251" x="570.951" y="231.128" width="43.5708" height="47.3466" filterUnits="userSpaceOnUse" color-interpolation-filters="sRGB">
<feFlood flood-opacity="0" result="BackgroundImageFix"/>
<feBlend mode="normal" in="SourceGraphic" in2="BackgroundImageFix" result="shape"/>
<feGaussianBlur stdDeviation="4" result="effect1_foregroundBlur_111_2251"/>
</filter>
<linearGradient id="paint0_linear_111_2251" x1="25.3797" y1="12.1312" x2="98.1703" y2="122.202" gradientUnits="userSpaceOnUse">
<stop stop-color="#F0F6F9"/>
<stop offset="1" stop-color="#CDDFF2"/>
</linearGradient>
<linearGradient id="paint1_linear_111_2251" x1="59.8774" y1="78.1925" x2="59.8986" y2="72.774" gradientUnits="userSpaceOnUse">
<stop offset="0.241809" stop-color="#065099"/>
<stop offset="1" stop-color="#DFEBF6" stop-opacity="0.47"/>
</linearGradient>
<linearGradient id="paint2_linear_111_2251" x1="60.6426" y1="75.4862" x2="60.6708" y2="68.2615" gradientUnits="userSpaceOnUse">
<stop stop-color="#065099"/>
<stop offset="1" stop-color="#065099" stop-opacity="0"/>
</linearGradient>
<linearGradient id="paint3_linear_111_2251" x1="87.6293" y1="121.239" x2="23.9926" y2="103.379" gradientUnits="userSpaceOnUse">
<stop stop-color="#BCC1D6"/>
<stop offset="1" stop-color="#E9ECFA"/>
</linearGradient>
<linearGradient id="paint4_linear_111_2251" x1="45.602" y1="75.4274" x2="68.6855" y2="78.7028" gradientUnits="userSpaceOnUse">
<stop stop-color="#F0F3FF"/>
<stop offset="1" stop-color="#E1E5F5"/>
</linearGradient>
<linearGradient id="paint5_linear_111_2251" x1="53.497" y1="117.001" x2="61.664" y2="118.824" gradientUnits="userSpaceOnUse">
<stop stop-color="#F1F4FF"/>
<stop offset="1" stop-color="#D5DAF0"/>
</linearGradient>
<linearGradient id="paint6_linear_111_2251" x1="55.4125" y1="104.365" x2="65.3365" y2="106.785" gradientUnits="userSpaceOnUse">
<stop stop-color="#F1F4FF"/>
<stop offset="1" stop-color="#D5DAF0"/>
</linearGradient>
<linearGradient id="paint7_linear_111_2251" x1="55.2969" y1="91.7211" x2="66.9467" y2="94.8817" gradientUnits="userSpaceOnUse">
<stop stop-color="#F1F4FF"/>
<stop offset="1" stop-color="#D5DAF0"/>
</linearGradient>
<linearGradient id="paint8_linear_111_2251" x1="248.534" y1="54.7148" x2="248.424" y2="82.7106" gradientUnits="userSpaceOnUse">
<stop stop-color="#AAC8E3"/>
<stop offset="1" stop-color="#C8DBED"/>
</linearGradient>
<linearGradient id="paint9_linear_111_2251" x1="220.569" y1="66.0041" x2="228.87" y2="66.0366" gradientUnits="userSpaceOnUse">
<stop stop-color="#F1F7FA"/>
<stop offset="1" stop-color="#F0F7FA" stop-opacity="0"/>
</linearGradient>
<linearGradient id="paint10_linear_111_2251" x1="248.534" y1="54.7148" x2="248.502" y2="62.8426" gradientUnits="userSpaceOnUse">
<stop stop-color="#065099"/>
<stop offset="1" stop-color="#065099" stop-opacity="0"/>
</linearGradient>
<linearGradient id="paint11_linear_111_2251" x1="248.565" y1="46.587" x2="248.488" y2="66.455" gradientUnits="userSpaceOnUse">
<stop stop-color="#23578B"/>
<stop offset="1" stop-color="#23578B" stop-opacity="0"/>
</linearGradient>
<linearGradient id="paint12_linear_111_2251" x1="220.624" y1="51.8964" x2="257.963" y2="128.54" gradientUnits="userSpaceOnUse">
<stop stop-color="#E8F2F8"/>
<stop offset="1" stop-color="#CDDFF2"/>
</linearGradient>
<radialGradient id="paint13_radial_111_2251" cx="0" cy="0" r="1" gradientUnits="userSpaceOnUse" gradientTransform="translate(240.187 66.4225) rotate(74.1986) scale(30.0675 32.4093)">
<stop stop-color="white"/>
<stop offset="1" stop-color="#EDF5F8" stop-opacity="0"/>
</radialGradient>
<linearGradient id="paint14_linear_111_2251" x1="216.964" y1="22.9828" x2="292.015" y2="66.5742" gradientUnits="userSpaceOnUse">
<stop stop-color="#F0F6F9"/>
<stop offset="1" stop-color="#CDDFF2"/>
</linearGradient>
<linearGradient id="paint15_linear_111_2251" x1="400.9" y1="10.3244" x2="475.271" y2="120.373" gradientUnits="userSpaceOnUse">
<stop stop-color="#F0F6F9"/>
<stop offset="1" stop-color="#CDDFF2"/>
</linearGradient>
<linearGradient id="paint16_linear_111_2251" x1="213.09" y1="235.095" x2="287.461" y2="345.143" gradientUnits="userSpaceOnUse">
<stop stop-color="#F0F6F9"/>
<stop offset="1" stop-color="#CDDFF2"/>
</linearGradient>
<linearGradient id="paint17_linear_111_2251" x1="280.413" y1="231.746" x2="236.161" y2="307.532" gradientUnits="userSpaceOnUse">
<stop stop-color="#E0EDF6"/>
<stop offset="1" stop-color="#A5CAE8"/>
</linearGradient>
<linearGradient id="paint18_linear_111_2251" x1="209.915" y1="313.652" x2="222.085" y2="300.459" gradientUnits="userSpaceOnUse">
<stop stop-color="#043A70"/>
<stop offset="1" stop-color="#065099" stop-opacity="0"/>
</linearGradient>
<linearGradient id="paint19_linear_111_2251" x1="276.957" y1="343.717" x2="280.188" y2="331.321" gradientUnits="userSpaceOnUse">
<stop stop-color="#002C57"/>
<stop offset="1" stop-color="#065099" stop-opacity="0"/>
</linearGradient>
<radialGradient id="paint20_radial_111_2251" cx="0" cy="0" r="1" gradientUnits="userSpaceOnUse" gradientTransform="translate(247.314 304.698) rotate(-73.5234) scale(51.7792 39.5938)">
<stop stop-color="#F8BAB9"/>
<stop offset="1" stop-color="#C9706F"/>
</radialGradient>
<linearGradient id="paint21_linear_111_2251" x1="25.2805" y1="235.094" x2="99.6513" y2="345.143" gradientUnits="userSpaceOnUse">
<stop stop-color="#F0F6F9"/>
<stop offset="1" stop-color="#CDDFF2"/>
</linearGradient>
<linearGradient id="paint22_linear_111_2251" x1="25.2805" y1="235.094" x2="99.6513" y2="345.143" gradientUnits="userSpaceOnUse">
<stop stop-color="#F0F6F9"/>
<stop offset="1" stop-color="#CDDFF2"/>
</linearGradient>
<linearGradient id="paint23_linear_111_2251" x1="81.5091" y1="226.94" x2="58.6482" y2="301.631" gradientUnits="userSpaceOnUse">
<stop stop-color="#E6F0F8"/>
<stop offset="1" stop-color="#6F93BA"/>
</linearGradient>
<linearGradient id="paint24_linear_111_2251" x1="213.09" y1="459.865" x2="287.461" y2="569.914" gradientUnits="userSpaceOnUse">
<stop stop-color="#F0F6F9"/>
<stop offset="1" stop-color="#CDDFF2"/>
</linearGradient>
<linearGradient id="paint25_linear_111_2251" x1="215.986" y1="468.908" x2="215.833" y2="507.831" gradientUnits="userSpaceOnUse">
<stop stop-color="white"/>
<stop offset="1" stop-color="white"/>
</linearGradient>
<linearGradient id="paint26_linear_111_2251" x1="215.986" y1="468.908" x2="215.833" y2="507.831" gradientUnits="userSpaceOnUse">
<stop stop-color="white"/>
<stop offset="1" stop-color="white"/>
</linearGradient>
<linearGradient id="paint27_linear_111_2251" x1="275.975" y1="525.134" x2="275.879" y2="549.608" gradientUnits="userSpaceOnUse">
<stop stop-color="white"/>
<stop offset="1" stop-color="white"/>
</linearGradient>
<linearGradient id="paint28_linear_111_2251" x1="275.975" y1="525.134" x2="275.879" y2="549.608" gradientUnits="userSpaceOnUse">
<stop stop-color="white"/>
<stop offset="1" stop-color="white"/>
</linearGradient>
<linearGradient id="paint29_linear_111_2251" x1="12.7262" y1="428.208" x2="75.4678" y2="527.356" gradientUnits="userSpaceOnUse">
<stop stop-color="#F6F1E8"/>
<stop offset="1" stop-color="#D8B682"/>
</linearGradient>
<linearGradient id="paint30_linear_111_2251" x1="25.4934" y1="459.866" x2="99.3958" y2="571.067" gradientUnits="userSpaceOnUse">
<stop stop-color="#F1F7FA"/>
<stop offset="1" stop-color="#CFE0F3"/>
</linearGradient>
<linearGradient id="paint31_linear_111_2251" x1="40.5103" y1="492.933" x2="87.4715" y2="577.314" gradientUnits="userSpaceOnUse">
<stop stop-color="#F0F6FA"/>
<stop offset="1" stop-color="#CEE0F3"/>
</linearGradient>
<linearGradient id="paint32_linear_111_2251" x1="74.0046" y1="488.79" x2="84.0993" y2="530.252" gradientUnits="userSpaceOnUse">
<stop stop-color="#134980"/>
<stop offset="1" stop-color="#236BB4" stop-opacity="0"/>
</linearGradient>
<linearGradient id="paint33_linear_111_2251" x1="74.0047" y1="488.79" x2="84.0994" y2="530.252" gradientUnits="userSpaceOnUse">
<stop stop-color="#134980"/>
<stop offset="1" stop-color="#236BB4" stop-opacity="0"/>
</linearGradient>
<linearGradient id="paint34_linear_111_2251" x1="74.0047" y1="488.79" x2="84.0994" y2="530.252" gradientUnits="userSpaceOnUse">
<stop stop-color="#134980"/>
<stop offset="1" stop-color="#236BB4" stop-opacity="0"/>
</linearGradient>
<linearGradient id="paint35_linear_111_2251" x1="69.0072" y1="512.561" x2="59.6976" y2="490.822" gradientUnits="userSpaceOnUse">
<stop stop-color="#F4F8FB"/>
<stop offset="0.651561" stop-color="white"/>
<stop offset="1" stop-color="#F9F6F2"/>
</linearGradient>
<linearGradient id="paint36_linear_111_2251" x1="400.9" y1="459.865" x2="475.271" y2="569.914" gradientUnits="userSpaceOnUse">
<stop stop-color="#F0F6F9"/>
<stop offset="1" stop-color="#CDDFF2"/>
</linearGradient>
<linearGradient id="paint37_linear_111_2251" x1="400.9" y1="459.865" x2="475.271" y2="569.914" gradientUnits="userSpaceOnUse">
<stop stop-color="#F0F6F9"/>
<stop offset="1" stop-color="#CDDFF2"/>
</linearGradient>
<linearGradient id="paint38_linear_111_2251" x1="468.223" y1="456.516" x2="423.971" y2="532.303" gradientUnits="userSpaceOnUse">
<stop stop-color="#E0EDF6"/>
<stop offset="1" stop-color="#A5CAE8"/>
</linearGradient>
<linearGradient id="paint39_linear_111_2251" x1="419.87" y1="471.68" x2="429.679" y2="471.718" gradientUnits="userSpaceOnUse">
<stop stop-color="#043A70"/>
<stop offset="1" stop-color="#065099" stop-opacity="0"/>
</linearGradient>
<linearGradient id="paint40_linear_111_2251" x1="468.685" y1="531.475" x2="468.731" y2="519.735" gradientUnits="userSpaceOnUse">
<stop stop-color="#002C57"/>
<stop offset="1" stop-color="#065099" stop-opacity="0"/>
</linearGradient>
<linearGradient id="paint41_linear_111_2251" x1="468.223" y1="456.516" x2="423.971" y2="532.303" gradientUnits="userSpaceOnUse">
<stop stop-color="#E0EDF6"/>
<stop offset="1" stop-color="#A5CAE8"/>
</linearGradient>
<linearGradient id="paint42_linear_111_2251" x1="419.87" y1="471.68" x2="429.679" y2="471.718" gradientUnits="userSpaceOnUse">
<stop stop-color="#043A70"/>
<stop offset="1" stop-color="#065099" stop-opacity="0"/>
</linearGradient>
<linearGradient id="paint43_linear_111_2251" x1="468.685" y1="531.475" x2="468.731" y2="519.735" gradientUnits="userSpaceOnUse">
<stop stop-color="#002C57"/>
<stop offset="1" stop-color="#065099" stop-opacity="0"/>
</linearGradient>
<radialGradient id="paint44_radial_111_2251" cx="0" cy="0" r="1" gradientUnits="userSpaceOnUse" gradientTransform="translate(441.601 510.598) rotate(-54.299) scale(37.7053 39.7357)">
<stop stop-color="#F5A2A1"/>
<stop offset="1" stop-color="#D96F6E"/>
</radialGradient>
<linearGradient id="paint45_linear_111_2251" x1="434.841" y1="277.673" x2="473.547" y2="307.255" gradientUnits="userSpaceOnUse">
<stop stop-color="#F0F6F9"/>
<stop offset="1" stop-color="#CDDFF2"/>
</linearGradient>
<linearGradient id="paint46_linear_111_2251" x1="380.532" y1="272.042" x2="432.836" y2="322.07" gradientUnits="userSpaceOnUse">
<stop stop-color="#F0F6F9"/>
<stop offset="1" stop-color="#CDDFF2"/>
</linearGradient>
<linearGradient id="paint47_linear_111_2251" x1="436.29" y1="293.032" x2="435.119" y2="316.493" gradientUnits="userSpaceOnUse">
<stop stop-color="#E3E7F6"/>
<stop offset="1" stop-color="#C7CCDF"/>
</linearGradient>
<radialGradient id="paint48_radial_111_2251" cx="0" cy="0" r="1" gradientUnits="userSpaceOnUse" gradientTransform="translate(460.381 307.576) rotate(177.686) scale(20.394 134.16)">
<stop stop-color="#ADB6DA"/>
<stop offset="1" stop-color="#626D97" stop-opacity="0"/>
</radialGradient>
<radialGradient id="paint49_radial_111_2251" cx="0" cy="0" r="1" gradientUnits="userSpaceOnUse" gradientTransform="translate(460.381 307.576) rotate(177.686) scale(20.394 134.16)">
<stop stop-color="#ADB6DA"/>
<stop offset="1" stop-color="#626D97" stop-opacity="0"/>
</radialGradient>
<radialGradient id="paint50_radial_111_2251" cx="0" cy="0" r="1" gradientUnits="userSpaceOnUse" gradientTransform="translate(412.087 307.387) rotate(2.76202) scale(20.394 134.16)">
<stop stop-color="#ADB6DA"/>
<stop offset="1" stop-color="#626D97" stop-opacity="0"/>
</radialGradient>
<radialGradient id="paint51_radial_111_2251" cx="0" cy="0" r="1" gradientUnits="userSpaceOnUse" gradientTransform="translate(412.087 307.387) rotate(2.76202) scale(20.394 134.16)">
<stop stop-color="#ADB6DA"/>
<stop offset="1" stop-color="#626D97" stop-opacity="0"/>
</radialGradient>
<linearGradient id="paint52_linear_111_2251" x1="408.385" y1="289.31" x2="422.645" y2="321.998" gradientUnits="userSpaceOnUse">
<stop stop-color="#F2F5FF"/>
<stop offset="1" stop-color="#D6DBF1"/>
</linearGradient>
<radialGradient id="paint53_radial_111_2251" cx="0" cy="0" r="1" gradientUnits="userSpaceOnUse" gradientTransform="translate(420.55 265.877) rotate(121.887) scale(44.5633 41.6712)">
<stop stop-color="white"/>
<stop offset="1" stop-color="white" stop-opacity="0"/>
</radialGradient>
<linearGradient id="paint54_linear_111_2251" x1="459.697" y1="289.511" x2="473.957" y2="322.198" gradientUnits="userSpaceOnUse">
<stop stop-color="#F2F5FF"/>
<stop offset="1" stop-color="#D6DBF1"/>
</linearGradient>
<radialGradient id="paint55_radial_111_2251" cx="0" cy="0" r="1" gradientUnits="userSpaceOnUse" gradientTransform="translate(471.862 266.078) rotate(121.887) scale(44.5633 41.6712)">
<stop stop-color="white"/>
<stop offset="1" stop-color="white" stop-opacity="0"/>
</radialGradient>
<linearGradient id="paint56_linear_111_2251" x1="629.402" y1="57.5091" x2="629.292" y2="85.5049" gradientUnits="userSpaceOnUse">
<stop stop-color="#AAC8E3"/>
<stop offset="1" stop-color="#C8DBED"/>
</linearGradient>
<linearGradient id="paint57_linear_111_2251" x1="601.438" y1="68.7984" x2="609.738" y2="68.8309" gradientUnits="userSpaceOnUse">
<stop stop-color="#F1F7FA"/>
<stop offset="1" stop-color="#F0F7FA" stop-opacity="0"/>
</linearGradient>
<linearGradient id="paint58_linear_111_2251" x1="629.402" y1="57.5091" x2="629.37" y2="65.6369" gradientUnits="userSpaceOnUse">
<stop stop-color="#065099"/>
<stop offset="1" stop-color="#065099" stop-opacity="0"/>
</linearGradient>
<linearGradient id="paint59_linear_111_2251" x1="629.434" y1="49.3813" x2="629.356" y2="69.2493" gradientUnits="userSpaceOnUse">
<stop stop-color="#23578B"/>
<stop offset="1" stop-color="#23578B" stop-opacity="0"/>
</linearGradient>
<linearGradient id="paint60_linear_111_2251" x1="629.409" y1="55.703" x2="629.328" y2="76.474" gradientUnits="userSpaceOnUse">
<stop stop-color="#E8C200"/>
<stop offset="1" stop-color="#FFE457" stop-opacity="0"/>
</linearGradient>
<linearGradient id="paint61_linear_111_2251" x1="601.493" y1="54.6907" x2="638.832" y2="131.334" gradientUnits="userSpaceOnUse">
<stop stop-color="#E8F2F8"/>
<stop offset="1" stop-color="#CDDFF2"/>
</linearGradient>
<radialGradient id="paint62_radial_111_2251" cx="0" cy="0" r="1" gradientUnits="userSpaceOnUse" gradientTransform="translate(621.056 69.2168) rotate(74.1986) scale(30.0675 32.4093)">
<stop stop-color="white"/>
<stop offset="1" stop-color="#EDF5F8" stop-opacity="0"/>
</radialGradient>
<linearGradient id="paint63_linear_111_2251" x1="597.833" y1="25.7771" x2="696.71" y2="77.0549" gradientUnits="userSpaceOnUse">
<stop stop-color="#F9EE93"/>
<stop offset="1" stop-color="#E4BB29"/>
</linearGradient>
<linearGradient id="paint64_linear_111_2251" x1="593.355" y1="13.1162" x2="593.22" y2="47.4335" gradientUnits="userSpaceOnUse">
<stop stop-color="white"/>
<stop offset="1" stop-color="white"/>
</linearGradient>
<linearGradient id="paint65_linear_111_2251" x1="593.355" y1="13.1162" x2="593.22" y2="47.4335" gradientUnits="userSpaceOnUse">
<stop stop-color="white"/>
<stop offset="1" stop-color="white"/>
</linearGradient>
<linearGradient id="paint66_linear_111_2251" x1="816.445" y1="516.013" x2="815.206" y2="572.899" gradientUnits="userSpaceOnUse">
<stop stop-color="#C15D5D"/>
<stop offset="0.828884" stop-color="#D7908E"/>
</linearGradient>
<linearGradient id="paint67_linear_111_2251" x1="773.529" y1="468.639" x2="844.084" y2="542.613" gradientUnits="userSpaceOnUse">
<stop stop-color="#F0F6F9"/>
<stop offset="1" stop-color="#CDDFF2"/>
</linearGradient>
<linearGradient id="paint68_linear_111_2251" x1="810.461" y1="277.673" x2="849.167" y2="307.255" gradientUnits="userSpaceOnUse">
<stop stop-color="#F0F6F9"/>
<stop offset="1" stop-color="#CDDFF2"/>
</linearGradient>
<linearGradient id="paint69_linear_111_2251" x1="756.152" y1="272.042" x2="808.456" y2="322.07" gradientUnits="userSpaceOnUse">
<stop stop-color="#F0F6F9"/>
<stop offset="1" stop-color="#CDDFF2"/>
</linearGradient>
<linearGradient id="paint70_linear_111_2251" x1="811.91" y1="293.032" x2="810.739" y2="316.493" gradientUnits="userSpaceOnUse">
<stop stop-color="#E3E7F6"/>
<stop offset="1" stop-color="#C7CCDF"/>
</linearGradient>
<radialGradient id="paint71_radial_111_2251" cx="0" cy="0" r="1" gradientUnits="userSpaceOnUse" gradientTransform="translate(836.001 307.576) rotate(177.686) scale(20.394 134.16)">
<stop stop-color="#ADB6DA"/>
<stop offset="1" stop-color="#626D97" stop-opacity="0"/>
</radialGradient>
<radialGradient id="paint72_radial_111_2251" cx="0" cy="0" r="1" gradientUnits="userSpaceOnUse" gradientTransform="translate(836.001 307.576) rotate(177.686) scale(20.394 134.16)">
<stop stop-color="#ADB6DA"/>
<stop offset="1" stop-color="#626D97" stop-opacity="0"/>
</radialGradient>
<radialGradient id="paint73_radial_111_2251" cx="0" cy="0" r="1" gradientUnits="userSpaceOnUse" gradientTransform="translate(787.707 307.387) rotate(2.76202) scale(20.394 134.16)">
<stop stop-color="#ADB6DA"/>
<stop offset="1" stop-color="#626D97" stop-opacity="0"/>
</radialGradient>
<radialGradient id="paint74_radial_111_2251" cx="0" cy="0" r="1" gradientUnits="userSpaceOnUse" gradientTransform="translate(787.707 307.387) rotate(2.76202) scale(20.394 134.16)">
<stop stop-color="#ADB6DA"/>
<stop offset="1" stop-color="#626D97" stop-opacity="0"/>
</radialGradient>
<linearGradient id="paint75_linear_111_2251" x1="784.005" y1="289.31" x2="798.265" y2="321.998" gradientUnits="userSpaceOnUse">
<stop stop-color="#F2F5FF"/>
<stop offset="1" stop-color="#D6DBF1"/>
</linearGradient>
<radialGradient id="paint76_radial_111_2251" cx="0" cy="0" r="1" gradientUnits="userSpaceOnUse" gradientTransform="translate(796.17 265.877) rotate(121.887) scale(44.5633 41.6712)">
<stop stop-color="white"/>
<stop offset="1" stop-color="white" stop-opacity="0"/>
</radialGradient>
<linearGradient id="paint77_linear_111_2251" x1="835.317" y1="289.511" x2="849.577" y2="322.199" gradientUnits="userSpaceOnUse">
<stop stop-color="#F2F5FF"/>
<stop offset="1" stop-color="#D6DBF1"/>
</linearGradient>
<radialGradient id="paint78_radial_111_2251" cx="0" cy="0" r="1" gradientUnits="userSpaceOnUse" gradientTransform="translate(847.482 266.078) rotate(121.887) scale(44.5633 41.6712)">
<stop stop-color="white"/>
<stop offset="1" stop-color="white" stop-opacity="0"/>
</radialGradient>
<linearGradient id="paint79_linear_111_2251" x1="588.71" y1="459.865" x2="663.081" y2="569.914" gradientUnits="userSpaceOnUse">
<stop stop-color="#EBF4F8"/>
<stop offset="1" stop-color="#D0E0F3"/>
</linearGradient>
<linearGradient id="paint80_linear_111_2251" x1="588.93" y1="459.866" x2="662.817" y2="571.106" gradientUnits="userSpaceOnUse">
<stop stop-color="#F7F5EF"/>
<stop offset="1" stop-color="#D0A768"/>
</linearGradient>
<linearGradient id="paint81_linear_111_2251" x1="999.722" y1="67.7555" x2="999.617" y2="94.6314" gradientUnits="userSpaceOnUse">
<stop stop-color="#AAC8E3"/>
<stop offset="1" stop-color="#C8DBED"/>
</linearGradient>
<linearGradient id="paint82_linear_111_2251" x1="974.419" y1="78.5993" x2="981.929" y2="78.6286" gradientUnits="userSpaceOnUse">
<stop stop-color="#F1F7FA"/>
<stop offset="1" stop-color="#F0F7FA" stop-opacity="0"/>
</linearGradient>
<linearGradient id="paint83_linear_111_2251" x1="999.722" y1="67.7555" x2="999.692" y2="75.5582" gradientUnits="userSpaceOnUse">
<stop stop-color="#065099"/>
<stop offset="1" stop-color="#065099" stop-opacity="0"/>
</linearGradient>
<linearGradient id="paint84_linear_111_2251" x1="974.172" y1="65.1794" x2="1008.97" y2="135.815" gradientUnits="userSpaceOnUse">
<stop stop-color="#E8F2F8"/>
<stop offset="1" stop-color="#CDDFF2"/>
</linearGradient>
<radialGradient id="paint85_radial_111_2251" cx="0" cy="0" r="1" gradientUnits="userSpaceOnUse" gradientTransform="translate(992.08 78.6236) rotate(74.3647) scale(27.8067 29.6945)">
<stop stop-color="white"/>
<stop offset="1" stop-color="#EDF5F8" stop-opacity="0"/>
</radialGradient>
<linearGradient id="paint86_linear_111_2251" x1="971.206" y1="15.1508" x2="1040.14" y2="54.1114" gradientUnits="userSpaceOnUse">
<stop stop-color="#F0F6F9"/>
<stop offset="1" stop-color="#CDDFF2"/>
</linearGradient>
<linearGradient id="paint87_linear_111_2251" x1="779.011" y1="9.12769" x2="853.382" y2="119.176" gradientUnits="userSpaceOnUse">
<stop stop-color="#F0F6F9"/>
<stop offset="1" stop-color="#CDDFF2"/>
</linearGradient>
<linearGradient id="paint88_linear_111_2251" x1="779.011" y1="9.12769" x2="853.382" y2="119.176" gradientUnits="userSpaceOnUse">
<stop stop-color="#F0F6F9"/>
<stop offset="1" stop-color="#CDDFF2"/>
</linearGradient>
<linearGradient id="paint89_linear_111_2251" x1="835.24" y1="0.973299" x2="812.379" y2="75.6645" gradientUnits="userSpaceOnUse">
<stop stop-color="#E6F0F8"/>
<stop offset="1" stop-color="#6F93BA"/>
</linearGradient>
<linearGradient id="paint90_linear_111_2251" x1="947.005" y1="490.503" x2="1055.01" y2="516.733" gradientUnits="userSpaceOnUse">
<stop stop-color="#DFE3F3"/>
<stop offset="1" stop-color="#CCD0E3"/>
</linearGradient>
<linearGradient id="paint91_linear_111_2251" x1="947.005" y1="490.503" x2="1055.01" y2="516.733" gradientUnits="userSpaceOnUse">
<stop stop-color="#DFE3F3"/>
<stop offset="1" stop-color="#CCD0E3"/>
</linearGradient>
<linearGradient id="paint92_linear_111_2251" x1="984.296" y1="506.929" x2="1002.08" y2="506.929" gradientUnits="userSpaceOnUse">
<stop stop-color="#9099C4"/>
<stop offset="1" stop-color="#9099C4" stop-opacity="0"/>
</linearGradient>
<linearGradient id="paint93_linear_111_2251" x1="993.136" y1="506.947" x2="999.064" y2="506.947" gradientUnits="userSpaceOnUse">
<stop stop-color="#9099C4"/>
<stop offset="1" stop-color="#9099C4" stop-opacity="0"/>
</linearGradient>
<linearGradient id="paint94_linear_111_2251" x1="-2.18698" y1="14.3027" x2="3.82721" y2="14.3027" gradientUnits="userSpaceOnUse">
<stop stop-color="#9099C4"/>
<stop offset="1" stop-color="#9099C4" stop-opacity="0"/>
</linearGradient>
<linearGradient id="paint95_linear_111_2251" x1="975.055" y1="457.197" x2="1011.47" y2="581.56" gradientUnits="userSpaceOnUse">
<stop stop-color="#E9ECF7"/>
<stop offset="1" stop-color="#CCD0E3"/>
</linearGradient>
<linearGradient id="paint96_linear_111_2251" x1="975.055" y1="457.197" x2="1011.47" y2="581.56" gradientUnits="userSpaceOnUse">
<stop stop-color="#E9ECF7"/>
<stop offset="1" stop-color="#CCD0E3"/>
</linearGradient>
<linearGradient id="paint97_linear_111_2251" x1="962.019" y1="510.429" x2="982.422" y2="511.772" gradientUnits="userSpaceOnUse">
<stop stop-color="white"/>
<stop offset="1" stop-color="white" stop-opacity="0"/>
</linearGradient>
<linearGradient id="paint98_linear_111_2251" x1="983.325" y1="505.978" x2="991.321" y2="514.634" gradientUnits="userSpaceOnUse">
<stop stop-color="#F7F7FB"/>
<stop offset="1" stop-color="#DEE1F0"/>
</linearGradient>
<linearGradient id="paint99_linear_111_2251" x1="966.66" y1="481.548" x2="992.947" y2="508.806" gradientUnits="userSpaceOnUse">
<stop stop-color="#C5CAE2"/>
<stop offset="1" stop-color="#D1D5E7"/>
</linearGradient>
<linearGradient id="paint100_linear_111_2251" x1="608.219" y1="302.738" x2="603.71" y2="311.779" gradientUnits="userSpaceOnUse">
<stop stop-color="#B9BED9"/>
<stop offset="1" stop-color="#D3D7E8"/>
</linearGradient>
<linearGradient id="paint101_linear_111_2251" x1="606.84" y1="233.36" x2="606.84" y2="303.801" gradientUnits="userSpaceOnUse">
<stop stop-color="#E9ECF7"/>
<stop offset="1" stop-color="#CDD1E4"/>
</linearGradient>
<linearGradient id="paint102_linear_111_2251" x1="606.84" y1="238.778" x2="606.84" y2="298.383" gradientUnits="userSpaceOnUse">
<stop stop-color="white"/>
<stop offset="1" stop-color="#E4E6ED"/>
</linearGradient>
<linearGradient id="paint103_linear_111_2251" x1="17.0206" y1="-6.06944" x2="17.3697" y2="37.6286" gradientUnits="userSpaceOnUse">
<stop stop-color="white" stop-opacity="0"/>
<stop offset="1" stop-color="white"/>
</linearGradient>
<linearGradient id="paint104_linear_111_2251" x1="592.798" y1="239.127" x2="592.675" y2="270.474" gradientUnits="userSpaceOnUse">
<stop stop-color="white"/>
<stop offset="1" stop-color="white"/>
</linearGradient>
<linearGradient id="paint105_linear_111_2251" x1="592.798" y1="239.127" x2="592.675" y2="270.474" gradientUnits="userSpaceOnUse">
<stop stop-color="white"/>
<stop offset="1" stop-color="white"/>
</linearGradient>
<linearGradient id="paint106_linear_111_2251" x1="665.18" y1="327.07" x2="641.835" y2="250.509" gradientUnits="userSpaceOnUse">
<stop stop-color="#B9BED9"/>
<stop offset="1" stop-color="#D3D7E8"/>
</linearGradient>
<linearGradient id="paint107_linear_111_2251" x1="649.895" y1="287.273" x2="652.572" y2="288.784" gradientUnits="userSpaceOnUse">
<stop stop-color="white"/>
<stop offset="1" stop-color="white" stop-opacity="0"/>
</linearGradient>
<linearGradient id="paint108_linear_111_2251" x1="642.022" y1="341.181" x2="657.132" y2="341.87" gradientUnits="userSpaceOnUse">
<stop stop-color="#CED4E7"/>
<stop offset="0.3125" stop-color="#EDF1FD"/>
<stop offset="1" stop-color="#CDD3E6"/>
</linearGradient>
<linearGradient id="paint109_linear_111_2251" x1="649.488" y1="361.767" x2="649.573" y2="340.092" gradientUnits="userSpaceOnUse">
<stop stop-color="#BAC0DC"/>
<stop offset="0.648933" stop-color="#BAC0DC" stop-opacity="0"/>
</linearGradient>
<linearGradient id="paint110_linear_111_2251" x1="650.419" y1="316.615" x2="650.408" y2="319.324" gradientUnits="userSpaceOnUse">
<stop stop-color="white"/>
<stop offset="1" stop-color="white" stop-opacity="0"/>
</linearGradient>
<linearGradient id="paint111_linear_111_2251" x1="598.256" y1="341.01" x2="613.366" y2="341.699" gradientUnits="userSpaceOnUse">
<stop stop-color="#D2D8E9"/>
<stop offset="0.3125" stop-color="#EDF1FD"/>
<stop offset="1" stop-color="#C7CDE1"/>
</linearGradient>
<linearGradient id="paint112_linear_111_2251" x1="605.722" y1="361.596" x2="605.807" y2="339.921" gradientUnits="userSpaceOnUse">
<stop stop-color="#BAC0DC"/>
<stop offset="0.648933" stop-color="#BAC0DC" stop-opacity="0"/>
</linearGradient>
<linearGradient id="paint113_linear_111_2251" x1="606.653" y1="316.444" x2="606.642" y2="319.153" gradientUnits="userSpaceOnUse">
<stop stop-color="white"/>
<stop offset="1" stop-color="white" stop-opacity="0"/>
</linearGradient>
<linearGradient id="paint114_linear_111_2251" x1="964.429" y1="236.901" x2="1037.22" y2="346.973" gradientUnits="userSpaceOnUse">
<stop stop-color="#F0F6F9"/>
<stop offset="1" stop-color="#CDDFF2"/>
</linearGradient>
<linearGradient id="paint115_linear_111_2251" x1="998.927" y1="302.963" x2="998.948" y2="297.544" gradientUnits="userSpaceOnUse">
<stop offset="0.241809" stop-color="#065099"/>
<stop offset="1" stop-color="#DFEBF6" stop-opacity="0.47"/>
</linearGradient>
<linearGradient id="paint116_linear_111_2251" x1="999.692" y1="300.256" x2="999.72" y2="293.032" gradientUnits="userSpaceOnUse">
<stop stop-color="#065099"/>
<stop offset="1" stop-color="#065099" stop-opacity="0"/>
</linearGradient>
<linearGradient id="paint117_linear_111_2251" x1="1026.68" y1="346.01" x2="963.042" y2="328.149" gradientUnits="userSpaceOnUse">
<stop stop-color="#BCC1D6"/>
<stop offset="1" stop-color="#E9ECFA"/>
</linearGradient>
<linearGradient id="paint118_linear_111_2251" x1="984.651" y1="300.198" x2="1007.73" y2="303.473" gradientUnits="userSpaceOnUse">
<stop stop-color="#F0F3FF"/>
<stop offset="1" stop-color="#E1E5F5"/>
</linearGradient>
<linearGradient id="paint119_linear_111_2251" x1="992.546" y1="341.771" x2="1000.71" y2="343.595" gradientUnits="userSpaceOnUse">
<stop stop-color="#F1F4FF"/>
<stop offset="1" stop-color="#D5DAF0"/>
</linearGradient>
<linearGradient id="paint120_linear_111_2251" x1="994.462" y1="329.135" x2="1004.39" y2="331.556" gradientUnits="userSpaceOnUse">
<stop stop-color="#F1F4FF"/>
<stop offset="1" stop-color="#D5DAF0"/>
</linearGradient>
<linearGradient id="paint121_linear_111_2251" x1="994.346" y1="316.491" x2="1006" y2="319.652" gradientUnits="userSpaceOnUse">
<stop stop-color="#F1F4FF"/>
<stop offset="1" stop-color="#D5DAF0"/>
</linearGradient>
</defs>
</svg>
