<svg width="120" height="120" viewBox="0 0 120 120" fill="none" xmlns="http://www.w3.org/2000/svg">
<path fill-rule="evenodd" clip-rule="evenodd" d="M72.4681 9.55866C64.994 12.7609 54.2068 12.7608 46.7326 9.55864C40.6599 6.9569 33.8673 6.71563 27.5997 9.4419C14.3731 15.1952 8.44074 32.0081 14.1975 47.1747C14.1988 47.1781 14.1987 47.1819 14.1973 47.1852V47.1852L15.9938 51.0915C22.0665 64.2962 26.6439 78.1384 29.6406 92.3602L32.4914 105.889C33.4779 109.778 36.9641 112.5 40.959 112.5C45.2495 112.5 48.9053 109.371 49.5864 105.115L53.6053 80.0044C54.0786 77.047 56.6191 74.8724 59.6005 74.8724C62.582 74.8724 65.1224 77.047 65.5958 80.0044L69.6146 105.115C70.2957 109.371 73.9515 112.5 78.242 112.5C82.2369 112.5 85.7231 109.778 86.7096 105.889L89.5603 92.3602C92.5571 78.1384 97.1345 64.2962 103.207 51.0915L105.004 47.1852V47.1852C105.002 47.1819 105.002 47.1781 105.003 47.1747C110.76 32.0081 104.828 15.1952 91.6013 9.4419C85.3336 6.7156 78.5409 6.95689 72.4681 9.55866Z" fill="url(#paint0_linear_318_1679)"/>
<g filter="url(#filter0_f_318_1679)">
<path d="M30.8452 22.353L29.6373 16.5897C29.4431 15.6634 28.6262 15 27.6798 15H27.406C26.433 15 25.6012 15.7002 25.4353 16.659L24.4915 22.1137C23.9975 24.9685 21.796 27.224 18.9539 27.7868L12.1115 29.142C11.1749 29.3275 10.5001 30.1492 10.5001 31.1039V31.1536C10.5001 32.1383 11.2168 32.9765 12.1896 33.1293L18.6776 34.1489C21.6588 34.6174 24.0042 36.9438 24.497 39.9211L25.4454 45.6516C25.6052 46.617 26.44 47.325 27.4185 47.325H27.6652C28.6182 47.325 29.4389 46.6525 29.6262 45.7181L30.8348 39.6893C31.4083 36.8287 33.6958 34.6238 36.5755 34.1558L42.8122 33.1424C43.8004 32.9818 44.5264 32.1283 44.5264 31.1271C44.5264 30.1574 43.8443 29.3215 42.8943 29.1269L36.2919 27.7748C33.5579 27.2149 31.4176 25.0845 30.8452 22.353Z" fill="url(#paint1_linear_318_1679)"/>
</g>
<path d="M29.2784 22.1945L28.4694 15.8305C28.4091 15.3558 28.0052 15 27.5267 15C27.0368 15 26.6271 15.3725 26.5807 15.8603L25.9793 22.1801C25.6255 25.899 22.7245 28.8669 19.0146 29.3054L11.3296 30.2138C10.8565 30.2697 10.5001 30.6708 10.5001 31.1472C10.5001 31.6365 10.8755 32.0439 11.3631 32.0839L18.6117 32.6781C22.5206 32.9986 25.6337 36.0823 25.9911 39.9881L26.5838 46.4649C26.6284 46.9521 27.037 47.325 27.5262 47.325C28.0044 47.325 28.4075 46.9682 28.4655 46.4935L29.2621 39.978C29.7426 36.0481 32.9134 32.9938 36.8585 32.6606L43.663 32.0861C44.1511 32.0448 44.5264 31.6366 44.5264 31.1467C44.5264 30.6701 44.1707 30.2685 43.6976 30.2109L36.4504 29.3286C32.7084 28.873 29.7538 25.934 29.2784 22.1945Z" fill="url(#paint2_linear_318_1679)"/>
<g filter="url(#filter1_f_318_1679)">
<path d="M89.0998 64.453L88.7078 62.5823C88.5756 61.9517 88.0194 61.5 87.3751 61.5C86.7127 61.5 86.1463 61.9767 86.0334 62.6295L85.7593 64.2137C85.2653 67.0685 83.0638 69.324 80.2218 69.8868L77.6857 70.3891C77.0881 70.5075 76.6575 71.0317 76.6575 71.641C76.6575 72.2693 77.1149 72.8041 77.7355 72.9017L79.9455 73.2489C82.9267 73.7174 85.272 76.0438 85.7648 79.0211L86.0418 80.695C86.1497 81.3469 86.7135 81.825 87.3742 81.825C88.0178 81.825 88.5719 81.3709 88.6984 80.7399L89.0895 78.7893C89.663 75.9287 91.9505 73.7238 94.8302 73.2558L96.9744 72.9074C97.5958 72.8064 98.0522 72.2698 98.0522 71.6403C98.0522 71.0305 97.6234 70.5049 97.0261 70.3826L94.5466 69.8748C91.8125 69.3149 89.6723 67.1845 89.0998 64.453Z" fill="url(#paint3_linear_318_1679)"/>
</g>
<path d="M88.4648 66.0237L87.9561 62.0222C87.9182 61.7237 87.6642 61.5 87.3634 61.5C87.0553 61.5 86.7977 61.7342 86.7685 62.0409L86.3904 66.0146C86.1679 68.353 84.3439 70.2191 82.0112 70.4948L77.1791 71.066C76.8816 71.1011 76.6575 71.3533 76.6575 71.6529C76.6575 71.9605 76.8936 72.2167 77.2002 72.2419L81.7578 72.6155C84.2157 72.817 86.1731 74.7559 86.3978 77.2118L86.7705 81.2842C86.7986 81.5905 87.0554 81.825 87.3631 81.825C87.6637 81.825 87.9172 81.6007 87.9537 81.3022L88.4545 77.2054C88.7567 74.7344 90.7503 72.8139 93.2309 72.6045L97.5094 72.2432C97.8163 72.2173 98.0522 71.9606 98.0522 71.6526C98.0522 71.3529 97.8286 71.1004 97.5311 71.0642L92.9743 70.5094C90.6214 70.2229 88.7637 68.375 88.4648 66.0237Z" fill="url(#paint4_linear_318_1679)"/>
<defs>
<filter id="filter0_f_318_1679" x="2.5" y="7" width="50.0264" height="48.3252" filterUnits="userSpaceOnUse" color-interpolation-filters="sRGB">
<feFlood flood-opacity="0" result="BackgroundImageFix"/>
<feBlend mode="normal" in="SourceGraphic" in2="BackgroundImageFix" result="shape"/>
<feGaussianBlur stdDeviation="4" result="effect1_foregroundBlur_318_1679"/>
</filter>
<filter id="filter1_f_318_1679" x="68.6577" y="53.5" width="37.3945" height="36.3252" filterUnits="userSpaceOnUse" color-interpolation-filters="sRGB">
<feFlood flood-opacity="0" result="BackgroundImageFix"/>
<feBlend mode="normal" in="SourceGraphic" in2="BackgroundImageFix" result="shape"/>
<feGaussianBlur stdDeviation="4" result="effect1_foregroundBlur_318_1679"/>
</filter>
<linearGradient id="paint0_linear_318_1679" x1="24.6005" y1="7.5" x2="82.0005" y2="108.3" gradientUnits="userSpaceOnUse">
<stop stop-color="#F0F6F9"/>
<stop offset="1" stop-color="#CDDFF2"/>
</linearGradient>
<linearGradient id="paint1_linear_318_1679" x1="27.5132" y1="15" x2="27.5132" y2="47.325" gradientUnits="userSpaceOnUse">
<stop stop-color="white"/>
<stop offset="1" stop-color="white"/>
</linearGradient>
<linearGradient id="paint2_linear_318_1679" x1="27.5132" y1="15" x2="27.5132" y2="47.325" gradientUnits="userSpaceOnUse">
<stop stop-color="white"/>
<stop offset="1" stop-color="white"/>
</linearGradient>
<linearGradient id="paint3_linear_318_1679" x1="87.3549" y1="61.5" x2="87.3549" y2="81.825" gradientUnits="userSpaceOnUse">
<stop stop-color="white"/>
<stop offset="1" stop-color="white"/>
</linearGradient>
<linearGradient id="paint4_linear_318_1679" x1="87.3549" y1="61.5" x2="87.3549" y2="81.825" gradientUnits="userSpaceOnUse">
<stop stop-color="white"/>
<stop offset="1" stop-color="white"/>
</linearGradient>
</defs>
</svg>
