<svg width="180" height="180" viewBox="0 0 180 180" fill="none" xmlns="http://www.w3.org/2000/svg">
<path fill-rule="evenodd" clip-rule="evenodd" d="M108.702 14.338C97.4907 19.1413 81.31 19.1412 70.0987 14.338C60.9897 10.4353 50.8007 10.0734 41.3993 14.1629C21.5594 22.7927 12.6609 48.0121 21.296 70.7621C21.2979 70.7672 21.2978 70.7728 21.2957 70.7777L23.9904 76.6372C33.0995 96.4443 39.9655 117.208 44.4607 138.54L48.7368 158.834C50.2166 164.667 55.4459 168.75 61.4382 168.75C67.874 168.75 73.3576 164.056 74.3794 157.672L80.4077 120.007C81.1177 115.57 84.9283 112.309 89.4006 112.309C93.8728 112.309 97.6834 115.571 98.3934 120.007L104.422 157.672C105.443 164.056 110.927 168.75 117.363 168.75C123.355 168.75 128.584 164.667 130.064 158.834L134.34 138.54C138.835 117.208 145.701 96.4442 154.811 76.6372L157.505 70.7777C157.503 70.7728 157.503 70.7671 157.505 70.7621C166.14 48.0121 157.242 22.7927 137.402 14.1629C128 10.0734 117.811 10.4353 108.702 14.338Z" fill="url(#paint0_linear_104_112)"/>
<path d="M19.1494 63.5418C26.2654 80.6842 37.8589 98.8817 56.1221 114.583C63.2003 120.668 70.8585 125.734 78.8194 129.931L80.4077 120.007C81.1177 115.57 84.9283 112.309 89.4006 112.309C93.8728 112.309 97.6834 115.571 98.3934 120.007L101.51 139.478C112.003 142.917 122.569 145.185 132.645 146.587L134.34 138.54C138.835 117.208 145.701 96.4442 154.811 76.6372L157.505 70.7777C157.503 70.7728 157.503 70.7672 157.505 70.7621C166.14 48.0121 157.242 22.7927 137.402 14.1629C128 10.0734 117.811 10.4353 108.702 14.338C97.4907 19.1413 81.31 19.1412 70.0987 14.338C60.9897 10.4353 50.8007 10.0734 41.3993 14.1629C23.641 21.8873 14.6486 42.9027 19.1494 63.5418Z" fill="url(#paint1_linear_104_112)"/>
<path d="M19.1494 63.5418C26.2654 80.6842 37.8589 98.8817 56.1221 114.583C63.2003 120.668 70.8585 125.734 78.8194 129.931L80.4077 120.007C81.1177 115.57 84.9283 112.309 89.4006 112.309C93.8728 112.309 97.6834 115.571 98.3934 120.007L101.51 139.478C112.003 142.917 122.569 145.185 132.645 146.587L134.34 138.54C138.835 117.208 145.701 96.4442 154.811 76.6372L157.505 70.7777C157.503 70.7728 157.503 70.7672 157.505 70.7621C166.14 48.0121 157.242 22.7927 137.402 14.1629C128 10.0734 117.811 10.4353 108.702 14.338C97.4907 19.1413 81.31 19.1412 70.0987 14.338C60.9897 10.4353 50.8007 10.0734 41.3993 14.1629C23.641 21.8873 14.6486 42.9027 19.1494 63.5418Z" fill="url(#paint2_linear_104_112)" fill-opacity="0.1"/>
<path d="M19.1494 63.5418C26.2654 80.6842 37.8589 98.8817 56.1221 114.583C63.2003 120.668 70.8585 125.734 78.8194 129.931L80.4077 120.007C81.1177 115.57 84.9283 112.309 89.4006 112.309C93.8728 112.309 97.6834 115.571 98.3934 120.007L101.51 139.478C112.003 142.917 122.569 145.185 132.645 146.587L134.34 138.54C138.835 117.208 145.701 96.4442 154.811 76.6372L157.505 70.7777C157.503 70.7728 157.503 70.7672 157.505 70.7621C166.14 48.0121 157.242 22.7927 137.402 14.1629C128 10.0734 117.811 10.4353 108.702 14.338C97.4907 19.1413 81.31 19.1412 70.0987 14.338C60.9897 10.4353 50.8007 10.0734 41.3993 14.1629C23.641 21.8873 14.6486 42.9027 19.1494 63.5418Z" fill="url(#paint3_linear_104_112)" fill-opacity="0.1"/>
<path d="M67.7142 123.349C65.097 121.61 62.5311 119.76 60.0278 117.793C58.8193 107.396 56.1031 97.2071 51.9463 87.5526L42.1408 64.7785C35.4962 49.3461 49.4525 33.0015 65.7353 37.1463L76.6494 39.9244C83.9336 41.7786 91.5663 41.7786 98.8505 39.9244L110.927 36.8503C126.996 32.7601 140.901 48.6597 134.706 64.0402L124.821 88.5829C119.655 101.408 117 115.106 117 128.933V143.744C115.339 143.368 113.673 142.966 112.004 142.537L109.233 115.519C108.468 108.061 103.852 101.548 97.068 98.3555C91.879 95.9136 85.8711 95.9136 80.682 98.3555C73.8981 101.548 69.2823 108.061 68.5173 115.519L67.7142 123.349Z" fill="url(#paint4_radial_104_112)"/>
<defs>
<linearGradient id="paint0_linear_104_112" x1="36.9005" y1="11.25" x2="123" y2="162.45" gradientUnits="userSpaceOnUse">
<stop stop-color="#F0F6F9"/>
<stop offset="1" stop-color="#CDDFF2"/>
</linearGradient>
<linearGradient id="paint1_linear_104_112" x1="137.25" y1="6.75" x2="87.7501" y2="109.125" gradientUnits="userSpaceOnUse">
<stop stop-color="#E0EDF6"/>
<stop offset="1" stop-color="#A5CAE8"/>
</linearGradient>
<linearGradient id="paint2_linear_104_112" x1="32.625" y1="109.125" x2="47.25" y2="90" gradientUnits="userSpaceOnUse">
<stop stop-color="#043A70"/>
<stop offset="1" stop-color="#065099" stop-opacity="0"/>
</linearGradient>
<linearGradient id="paint3_linear_104_112" x1="132.75" y1="146.25" x2="136.125" y2="130.5" gradientUnits="userSpaceOnUse">
<stop stop-color="#002C57"/>
<stop offset="1" stop-color="#065099" stop-opacity="0"/>
</linearGradient>
<radialGradient id="paint4_radial_104_112" cx="0" cy="0" r="1" gradientUnits="userSpaceOnUse" gradientTransform="translate(88.3294 97.7887) rotate(-70.7665) scale(65.5853 58.0544)">
<stop stop-color="#F8BAB9"/>
<stop offset="1" stop-color="#C9706F"/>
</radialGradient>
</defs>
</svg>
